SplineFontDB: 3.0
FontName: Kreon-Regular
FullName: Kreon Regular
FamilyName: Kreon
Weight: Book
Copyright: Copyright (c) 2010 by Julia Petretta (www.juliapetretta.com), with Reserved Font Name "Kreon".
Version: 1.001
ItalicAngle: 0
UnderlinePosition: -50
UnderlineWidth: 50
Ascent: 800
Descent: 200
sfntRevision: 0x00010042
LayerCount: 2
Layer: 0 1 "Back"  1
Layer: 1 1 "Fore"  0
NeedsXUIDChange: 1
XUID: [1021 288 713564382 6872266]
FSType: 0
OS2Version: 3
OS2_WeightWidthSlopeOnly: 0
OS2_UseTypoMetrics: 1
CreationTime: 1295030040
ModificationTime: 1318900506
PfmFamily: 17
TTFWeight: 400
TTFWidth: 5
LineGap: 0
VLineGap: 0
Panose: 2 0 5 6 0 0 0 2 0 4
OS2TypoAscent: 974
OS2TypoAOffset: 0
OS2TypoDescent: -286
OS2TypoDOffset: 0
OS2TypoLinegap: 0
OS2WinAscent: 974
OS2WinAOffset: 0
OS2WinDescent: 286
OS2WinDOffset: 0
HheadAscent: 974
HheadAOffset: 0
HheadDescent: -286
HheadDOffset: 0
OS2SubXSize: 700
OS2SubYSize: 650
OS2SubXOff: 0
OS2SubYOff: 140
OS2SupXSize: 700
OS2SupYSize: 650
OS2SupXOff: 0
OS2SupYOff: 477
OS2StrikeYSize: 50
OS2StrikeYPos: 250
OS2Vendor: 'pyrs'
OS2CodePages: 00000111.40000000
OS2UnicodeRanges: 80000087.00000002.00000000.00000000
Lookup: 258 0 0 "'kern' Horizontal Kerning in Latin lookup 0"  {"'kern' Horizontal Kerning in Latin lookup 0 per glyph data 0"  "'kern' Horizontal Kerning in Latin lookup 0 kerning class 1"  } ['kern' ('latn' <'dflt' > ) ]
MarkAttachClasses: 1
DEI: 91125
KernClass2: 69+ 62 "'kern' Horizontal Kerning in Latin lookup 0 kerning class 1" 
 6 period
 5 comma
 20 hyphen endash emdash
 11 bracketleft
 8 asterisk
 20 quotedbl quotesingle
 10 exclamdown
 12 questiondown
 5 slash
 9 backslash
 9 parenleft
 9 braceleft
 13 guillemotleft
 10 registered
 14 guillemotright
 22 quotedblleft quoteleft
 24 quotedblright quoteright
 13 guilsinglleft
 14 guilsinglright
 27 quotesinglbase quotedblbase
 50 A Acircumflex Agrave Aacute Adieresis Atilde Aring
 1 B
 10 C Ccedilla
 5 D Eth
 43 E Egrave Eacute Ecircumflex Edieresis AE OE
 1 F
 3 H M

StartChar: e
Encoding: 101 101 4
Width: 444
Flags: HW
LayerCount: 2
Fore
SplineSet
408 353.5 m 0,0,1
 408 323 408 323 397.5 293.5 c 128,-1,2
 387 264 387 264 357 240 c 0,3,4
 289.268656716 185.814925373 289.268656716 185.814925373 135 184 c 1,5,6
 151.400394477 105.278106509 151.400394477 105.278106509 216 80 c 0,7,8
 239 71 239 71 266 71 c 128,-1,9
 293 71 293 71 312 75.5 c 128,-1,10
 331 80 331 80 345 86.5 c 0,11,12
 372.066666667 99.0666666667 372.066666667 99.0666666667 383 110 c 1,13,-1
 405 40 l 1,14,15
 394.142857143 29.1428571429 394.142857143 29.1428571429 367.571428571 18.0714285714 c 0,16,17
 268.169230769 -23.3461538462 268.169230769 -23.3461538462 172 11 c 0,18,19
 85.4764492754 41.9012681159 85.4764492754 41.9012681159 52 131.5 c 0,20,21
 35 177 35 177 35 237.5 c 128,-1,22
 35 298 35 298 53 344.5 c 128,-1,23
 71 391 71 391 101 422.5 c 0,24,25
 161.476190476 486 161.476190476 486 251 486 c 0,26,27
 317.235294118 486 317.235294118 486 361.5 451 c 0,28,29
 408 414.23255814 408 414.23255814 408 353.5 c 0,0,1
298 392 m 128,-1,31
 283 410 283 410 254.5 410 c 128,-1,32
 226 410 226 410 206.5 401 c 128,-1,33
 187 392 187 392 171 373.5 c 0,34,35
 135.591958939 332.559452524 135.591958939 332.559452524 130 258 c 1,36,37
 203.444444444 258 203.444444444 258 239.222222222 269.5 c 128,-1,38
 275 281 275 281 294 299.5 c 128,-1,39
 313 318 313 318 313 346 c 128,-1,30
 313 374 313 374 298 392 c 128,-1,31
EndSplineSet
EndChar

StartChar: f
Encoding: 102 102 5
Width: 337
Flags: HW
LayerCount: 2
Fore
SplineSet
17 476 m 1,0,-1
 24 486 l 1,1,-1
 99 486 l 1,2,-1
 99 577 l 2,3,4
 99 653 99 653 139.5 693.5 c 0,5,6
 176 730 176 730 236 730 c 0,7,8
 305.411764706 730 305.411764706 730 364 688.5 c 0,9,10
 376 680 376 680 379 677 c 1,11,-1
 308 594 l 1,12,-1
 244 653 l 1,13,14
 238 655 238 655 230 655 c 0,15,16
 190 655 190 655 190 589 c 2,17,-1
 190 486 l 1,18,-1
 303 486 l 2,19,20
 308 486 308 486 308 480 c 2,21,-1
 308 411 l 1,22,-1
 190 411 l 1,23,-1
 190 71 l 1,24,-1
 304 54 l 1,25,-1
 304 0 l 1,26,-1
 54 0 l 1,27,-1
 42 54 l 1,28,-1
 99 66 l 1,29,-1
 99 411 l 1,30,-1
 31 411 l 1,31,-1
 17 476 l 1,0,-1
EndSplineSet
EndChar

StartChar: g
Encoding: 103 103 6
Width: 488
Flags: HW
LayerCount: 2
Fore
SplineSet
116 155 m 1,0,1
 39 205.6 39 205.6 39 302 c 0,2,3
 39 382.137254902 39 382.137254902 93.5 434.5 c 0,4,5
 147.102040816 486 147.102040816 486 223.31292517 486 c 128,-1,6
 299.523809524 486 299.523809524 486 354 442 c 1,7,-1
 453 492 l 1,8,-1
 474 489 l 1,9,-1
 484 406 l 1,10,-1
 394 395 l 1,11,12
 418 351.363636364 418 351.363636364 418 304.681818182 c 128,-1,13
 418 258 418 258 401.5 225 c 128,-1,14
 385 192 385 192 358.5 170 c 0,15,16
 305.5 126 305.5 126 228 126 c 0,17,18
 203 126 203 126 184 130 c 1,19,-1
 159 91 l 1,20,-1
 163 74 l 1,21,22
 173 72 173 72 206 67.5 c 128,-1,23
 239 63 239 63 282 53 c 128,-1,24
 325 43 325 43 355.5 27.5 c 128,-1,25
 386 12 386 12 403.5 -6.5 c 0,26,27
 434 -38.7428571429 434 -38.7428571429 434 -88.8714285714 c 128,-1,28
 434 -139 434 -139 416 -173 c 128,-1,29
 398 -207 398 -207 369 -229.5 c 0,30,31
 310.355555556 -275 310.355555556 -275 225 -275 c 0,32,33
 135 -275 135 -275 79 -237 c 0,34,35
 18 -195.607142857 18 -195.607142857 18 -126 c 0,36,37
 18 -32.5 18 -32.5 101 9 c 1,38,39
 77 29 77 29 77 72.5 c 128,-1,40
 77 116 77 116 116 155 c 1,0,1
224 411 m 1,41,42
 183 409 183 409 158.5 380 c 128,-1,43
 134 351 134 351 134 314.5 c 128,-1,44
 134 278 134 278 142 258 c 128,-1,45
 150 238 150 238 163 225.5 c 0,46,47
 188.48 201 188.48 201 228.74 201 c 128,-1,48
 269 201 269 201 296 228 c 128,-1,49
 323 255 323 255 323 306 c 256,50,51
 323 357 323 357 294.5 384 c 128,-1,52
 266 411 266 411 228 411 c 2,53,-1
 224 411 l 1,41,42
330.5 -65.5 m 128,-1,55
 303 -53 303 -53 253.5 -42.5 c 128,-1,56
 204 -32 204 -32 177 -24 c 1,57,58
 106 -53 106 -53 106 -112 c 0,59,60
 106 -145.235294118 106 -145.235294118 143 -167 c 0,61,62
 177 -187 177 -187 231 -187 c 0,63,64
 283.571428571 -187 283.571428571 -187 320 -164.5 c 0,65,66
 358 -141.029411765 358 -141.029411765 358 -109.514705882 c 128,-1,54
 358 -78 358 -78 330.5 -65.5 c 128,-1,55
EndSplineSet
EndChar

StartChar: h
Encoding: 104 104 7
Width: 521
Flags: HW
LayerCount: 2
Fore
SplineSet
174 450 m 1,0,1
 223.846153846 486 223.846153846 486 292 486 c 0,2,3
 395.735849057 486 395.735849057 486 428.5 410.5 c 0,4,5
 440 384 440 384 440 346 c 2,6,-1
 440 70 l 1,7,-1
 500 54 l 1,8,-1
 500 0 l 1,9,-1
 301 0 l 1,10,-1
 289 54 l 1,11,-1
 350 68 l 1,12,-1
 350 331 l 2,13,14
 350 376 350 376 329 392.5 c 128,-1,15
 308 409 308 409 284.5 409 c 128,-1,16
 261 409 261 409 245.5 405 c 128,-1,17
 230 401 230 401 216 395 c 0,18,19
 188 383 188 383 174 369 c 1,20,-1
 174 70 l 1,21,-1
 233 54 l 1,22,-1
 233 0 l 1,23,-1
 34 0 l 1,24,-1
 22 54 l 1,25,-1
 84 68 l 1,26,-1
 84 656 l 1,27,-1
 27 652 l 1,28,-1
 18 712 l 1,29,-1
 143 733 l 1,30,-1
 174 699 l 1,31,-1
 174 450 l 1,0,1
EndSplineSet
EndChar

StartChar: i
Encoding: 105 105 8
Width: 268
Flags: HW
LayerCount: 2
Fore
SplineSet
184 70 m 1,0,-1
 243 54 l 1,1,-1
 243 0 l 1,2,-1
 43 0 l 1,3,-1
 32 54 l 1,4,-1
 94 68 l 1,5,-1
 94 408 l 1,6,-1
 39 404 l 1,7,-1
 29 464 l 1,8,-1
 152 486 l 1,9,-1
 184 454 l 1,10,-1
 184 70 l 1,0,-1
62 666 m 256,11,12
 62 692 62 692 80 710 c 128,-1,13
 98 728 98 728 124 728 c 256,14,15
 150 728 150 728 168 709 c 128,-1,16
 186 690 186 690 186 665 c 0,17,18
 186 640 186 640 168 622 c 128,-1,19
 150 604 150 604 124 604 c 256,20,21
 98 604 98 604 80 622 c 128,-1,22
 62 640 62 640 62 666 c 256,11,12
EndSplineSet
EndChar

StartChar: j
Encoding: 106 106 9
Width: 243
Flags: HW
LayerCount: 2
Fore
SplineSet
50 -196 m 0,0,1
 85 -196 85 -196 85 -135 c 2,2,-1
 85 408 l 1,3,-1
 32 404 l 1,4,-1
 23 464 l 1,5,-1
 144 486 l 1,6,-1
 175 454 l 1,7,-1
 175 -124 l 2,8,9
 175 -203 175 -203 142.5 -237.5 c 128,-1,10
 110 -272 110 -272 55 -272 c 0,11,12
 3.85714285714 -272 3.85714285714 -272 -37 -246 c 1,13,-1
 1 -173 l 1,14,15
 8 -178 8 -178 20.5 -187 c 128,-1,16
 33 -196 33 -196 50 -196 c 0,0,1
52 666 m 256,17,18
 52 692 52 692 70 710 c 128,-1,19
 88 728 88 728 114 728 c 256,20,21
 140 728 140 728 158 709 c 128,-1,22
 176 690 176 690 176 665 c 128,-1,23
 176 640 176 640 158 622 c 128,-1,24
 140 604 140 604 113.5 604 c 128,-1,25
 87 604 87 604 69.5 622 c 128,-1,26
 52 640 52 640 52 666 c 256,17,18
EndSplineSet
EndChar

StartChar: k
Encoding: 107 107 10
Width: 485
Flags: HW
LayerCount: 2
Fore
SplineSet
174 264 m 1,0,-1
 327 423 l 1,1,-1
 278 423 l 1,2,-1
 270 486 l 1,3,-1
 429 486 l 1,4,-1
 453 440 l 1,5,-1
 298 290 l 1,6,-1
 413 68 l 1,7,-1
 466 56 l 1,8,-1
 466 0 l 1,9,-1
 341 0 l 1,10,-1
 227 221 l 1,11,-1
 174 170 l 1,12,-1
 174 66 l 1,13,-1
 233 54 l 1,14,-1
 233 0 l 1,15,-1
 34 0 l 1,16,-1
 22 54 l 1,17,-1
 84 68 l 1,18,-1
 84 656 l 1,19,-1
 27 652 l 1,20,-1
 18 712 l 1,21,-1
 143 733 l 1,22,-1
 174 699 l 1,23,-1
 174 264 l 1,0,-1
EndSplineSet
EndChar

StartChar: l
Encoding: 108 108 11
Width: 260
Flags: HW
LayerCount: 2
Fore
SplineSet
174 70 m 1,0,-1
 237 54 l 1,1,-1
 237 0 l 1,2,-1
 33 0 l 1,3,-1
 21 54 l 1,4,-1
 84 68 l 1,5,-1
 84 656 l 1,6,-1
 27 652 l 1,7,-1
 17 712 l 1,8,-1
 142 733 l 1,9,-1
 174 699 l 1,10,-1
 174 70 l 1,0,-1
EndSplineSet
EndChar

StartChar: m
Encoding: 109 109 12
Width: 797
Flags: HW
LayerCount: 2
Fore
SplineSet
448 363 m 1,0,-1
 449 334 l 1,1,-1
 449 70 l 1,2,-1
 509 54 l 1,3,-1
 509 0 l 1,4,-1
 310 0 l 1,5,-1
 298 54 l 1,6,-1
 359 68 l 1,7,-1
 359 331 l 2,8,9
 359 376 359 376 338 392.5 c 128,-1,10
 317 409 317 409 286 409 c 128,-1,11
 255 409 255 409 226 396 c 128,-1,12
 197 383 197 383 184 370 c 1,13,-1
 184 70 l 1,14,-1
 242 54 l 1,15,-1
 242 0 l 1,16,-1
 43 0 l 1,17,-1
 31 54 l 1,18,-1
 94 68 l 1,19,-1
 94 408 l 1,20,-1
 39 404 l 1,21,-1
 29 464 l 1,22,23
 42 466 42 466 59 469.5 c 128,-1,24
 76 473 76 473 93 476 c 128,-1,25
 110 479 110 479 126 481.5 c 128,-1,26
 142 484 142 484 152 486 c 1,27,-1
 181 449 l 1,28,29
 228.571428571 486 228.571428571 486 306.324175824 486 c 128,-1,30
 384.076923077 486 384.076923077 486 421 438 c 1,31,32
 485.695652174 486 485.695652174 486 567 486 c 0,33,34
 670.811320755 486 670.811320755 486 705 410.5 c 0,35,36
 717 384 717 384 717 346 c 2,37,-1
 717 70 l 1,38,-1
 776 54 l 1,39,-1
 776 0 l 1,40,-1
 576 0 l 1,41,-1
 565 54 l 1,42,-1
 627 68 l 1,43,-1
 627 331 l 2,44,45
 627 373.043478261 627 373.043478261 601.5 393 c 0,46,47
 581.055555556 409 581.055555556 409 549.027777778 409 c 128,-1,48
 517 409 517 409 489.5 397 c 128,-1,49
 462 385 462 385 448 373 c 1,50,-1
 448 363 l 1,0,-1
EndSplineSet
EndChar

StartChar: n
Encoding: 110 110 13
Width: 530
Flags: HW
LayerCount: 2
Fore
SplineSet
181 449 m 1,0,1
 228.571428571 486 228.571428571 486 301 486 c 0,2,3
 404.735849057 486 404.735849057 486 437.5 410.5 c 0,4,5
 449 384 449 384 449 346 c 2,6,-1
 449 71 l 1,7,-1
 509 54 l 1,8,-1
 509 0 l 1,9,-1
 310 0 l 1,10,-1
 298 54 l 1,11,-1
 359 68 l 1,12,-1
 359 331 l 2,13,14
 359 376 359 376 338 392.5 c 128,-1,15
 317 409 317 409 286 409 c 128,-1,16
 255 409 255 409 226 396 c 128,-1,17
 197 383 197 383 184 370 c 1,18,-1
 184 70 l 1,19,-1
 242 54 l 1,20,-1
 242 0 l 1,21,-1
 43 0 l 1,22,-1
 31 54 l 1,23,-1
 94 68 l 1,24,-1
 94 408 l 1,25,-1
 39 404 l 1,26,-1
 29 464 l 1,27,28
 42 466 42 466 59 469.5 c 128,-1,29
 76 473 76 473 93 476 c 128,-1,30
 110 479 110 479 126 481.5 c 128,-1,31
 142 484 142 484 152 486 c 1,32,-1
 181 449 l 1,0,1
EndSplineSet
EndChar

StartChar: o
Encoding: 111 111 14
Width: 495
Flags: HW
LayerCount: 2
Fore
SplineSet
163 112.5 m 128,-1,1
 195 71 195 71 247 71 c 128,-1,2
 299 71 299 71 332 111.5 c 128,-1,3
 365 152 365 152 365 235 c 128,-1,4
 365 318 365 318 333.5 364.5 c 128,-1,5
 302 411 302 411 248 411 c 0,6,7
 191.391304348 411 191.391304348 411 160.5 362 c 0,8,9
 131 315.206896552 131 315.206896552 131 234.603448276 c 128,-1,0
 131 154 131 154 163 112.5 c 128,-1,1
36 245 m 0,10,11
 36 303 36 303 53 348 c 128,-1,12
 70 393 70 393 99.5 424 c 0,13,14
 158.5 486 158.5 486 248 486 c 0,15,16
 340.238095238 486 340.238095238 486 399.5 420.5 c 0,17,18
 460 353.631578947 460 353.631578947 460 243 c 0,19,20
 460 127.305084746 460 127.305084746 396.5 59.5 c 0,21,22
 337.031746032 -4 337.031746032 -4 248 -4 c 0,23,24
 154.692307692 -4 154.692307692 -4 95.5 63.5 c 0,25,26
 36 131.350877193 36 131.350877193 36 245 c 0,10,11
EndSplineSet
EndChar

StartChar: p
Encoding: 112 112 15
Width: 505
Flags: HW
LayerCount: 2
Fore
SplineSet
171 457 m 1,0,1
 215.818181818 486 215.818181818 486 265.909090909 486 c 128,-1,2
 316 486 316 486 352 469 c 128,-1,3
 388 452 388 452 414 421 c 0,4,5
 469 355.423076923 469 355.423076923 469 247 c 0,6,7
 469 110.75 469 110.75 395 46 c 0,8,9
 337.857142857 -4 337.857142857 -4 255 -4 c 0,10,11
 209 -4 209 -4 175 11 c 1,12,-1
 175 -199 l 1,13,-1
 297 -221 l 1,14,-1
 297 -274 l 1,15,-1
 35 -274 l 1,16,-1
 23 -221 l 1,17,-1
 85 -206 l 1,18,-1
 85 409 l 1,19,-1
 28 405 l 1,20,-1
 19 465 l 1,21,-1
 144 486 l 1,22,-1
 171 457 l 1,0,1
175 378 m 1,23,-1
 175 96 l 1,24,25
 184 86 184 86 205.5 78.5 c 128,-1,26
 227 71 227 71 249 71 c 128,-1,27
 271 71 271 71 292 78.5 c 128,-1,28
 313 86 313 86 331.5 105.5 c 0,29,30
 374 150.297297297 374 150.297297297 374 241 c 0,31,32
 374 326.757575758 374 326.757575758 337.5 371 c 0,33,34
 305.325 410 305.325 410 256.1625 410 c 128,-1,35
 207 410 207 410 175 378 c 1,23,-1
EndSplineSet
EndChar

StartChar: q
Encoding: 113 113 16
Width: 489
Flags: HW
LayerCount: 2
Fore
SplineSet
330 22 m 1,0,1
 289.818181818 -4 289.818181818 -4 239.409090909 -4 c 128,-1,2
 189 -4 189 -4 153 13 c 128,-1,3
 117 30 117 30 91 61 c 0,4,5
 36 126.576923077 36 126.576923077 36 235 c 0,6,7
 36 371.25 36 371.25 110 436 c 0,8,9
 167.142857143 486 167.142857143 486 250 486 c 0,10,11
 300 486 300 486 340 466 c 1,12,-1
 397 487 l 1,13,-1
 420 468 l 1,14,-1
 420 -182 l 1,15,-1
 475 -201 l 1,16,-1
 475 -274 l 1,17,-1
 218 -274 l 1,18,-1
 207 -211 l 1,19,-1
 330 -187 l 1,20,-1
 330 22 l 1,0,1
330 104 m 1,21,-1
 330 386 l 1,22,23
 321 395 321 395 299.5 403 c 128,-1,24
 278 411 278 411 256 411 c 128,-1,25
 234 411 234 411 213 403.5 c 128,-1,26
 192 396 192 396 173.5 376.5 c 0,27,28
 131 331.702702703 131 331.702702703 131 241 c 0,29,30
 131 155.242424242 131 155.242424242 167.5 111 c 0,31,32
 199.675 72 199.675 72 249.980357143 72 c 128,-1,33
 300.285714286 72 300.285714286 72 330 104 c 1,21,-1
EndSplineSet
EndChar

StartChar: r
Encoding: 114 114 17
Width: 405
Flags: HW
LayerCount: 2
Fore
SplineSet
178 439 m 1,0,1
 218 485 218 485 282 485 c 0,2,3
 326 485 326 485 356.5 463 c 128,-1,4
 387 441 387 441 402 409 c 1,5,-1
 303 359 l 1,6,-1
 272 407 l 1,7,8
 238.444444444 407 238.444444444 407 211 378.5 c 0,9,10
 183 349.423076923 183 349.423076923 183 301 c 2,11,-1
 183 85 l 2,12,13
 183 81 183 81 200 78 c 2,14,-1
 313 54 l 1,15,-1
 313 0 l 1,16,-1
 43 0 l 1,17,-1
 31 54 l 1,18,-1
 93 68 l 1,19,-1
 93 405 l 1,20,-1
 38 405 l 1,21,-1
 29 464 l 1,22,23
 85.3333333333 472.666666667 85.3333333333 472.666666667 147 485 c 1,24,-1
 178 439 l 1,0,1
EndSplineSet
EndChar

StartChar: s
Encoding: 115 115 18
Width: 404
Flags: HW
LayerCount: 2
Fore
SplineSet
206.5 486 m 0,0,1
 238 486 238 486 265 477 c 128,-1,2
 292 468 292 468 312.5 454 c 0,3,4
 350.462962963 428.074074074 350.462962963 428.074074074 371 387 c 1,5,-1
 269 348 l 1,6,-1
 246 399 l 1,7,8
 226 409 226 409 203 409 c 128,-1,9
 180 409 180 409 161 395.5 c 128,-1,10
 142 382 142 382 142 356 c 256,11,12
 142 330 142 330 167 313.5 c 128,-1,13
 192 297 192 297 236 279 c 128,-1,14
 280 261 280 261 303.5 245 c 128,-1,15
 327 229 327 229 340.5 211 c 0,16,17
 365 178.333333333 365 178.333333333 365 137.666666667 c 128,-1,18
 365 97 365 97 350 71 c 128,-1,19
 335 45 335 45 311 28.5 c 0,20,21
 263.727272727 -4 263.727272727 -4 197 -4 c 0,22,23
 140.535714286 -4 140.535714286 -4 88.5 27 c 0,24,25
 38.796460177 56.610619469 38.796460177 56.610619469 24 101 c 1,26,-1
 127 140 l 1,27,-1
 151 82 l 1,28,29
 174.333333333 72 174.333333333 72 193.666666667 72 c 128,-1,30
 213 72 213 72 225 75 c 128,-1,31
 237 78 237 78 247 84.5 c 0,32,33
 270 99.45 270 99.45 270 128 c 0,34,35
 270 165 270 165 224.5 184.5 c 128,-1,36
 179 204 179 204 146.5 220 c 128,-1,37
 114 236 114 236 92 254.5 c 0,38,39
 47 292.340909091 47 292.340909091 47 354 c 0,40,41
 47 414.75 47 414.75 96 451.5 c 0,42,43
 142 486 142 486 206.5 486 c 0,0,1
EndSplineSet
EndChar

StartChar: t
Encoding: 116 116 19
Width: 325
Flags: HW
LayerCount: 2
Fore
SplineSet
292 101 m 1,0,1
 293.5 93.5 293.5 93.5 313 35 c 1,2,3
 299 22 299 22 272 9 c 128,-1,4
 245 -4 245 -4 202 -4 c 128,-1,5
 159 -4 159 -4 129.5 22 c 128,-1,6
 100 48 100 48 100 107 c 2,7,-1
 100 411 l 1,8,-1
 18 411 l 1,9,-1
 4 476 l 1,10,-1
 11 486 l 1,11,-1
 100 486 l 1,12,-1
 100 653 l 1,13,-1
 180 672 l 1,14,-1
 185 657 l 1,15,-1
 185 486 l 1,16,-1
 289 486 l 2,17,18
 294 486 294 486 294 480 c 2,19,-1
 294 411 l 1,20,-1
 185 411 l 1,21,-1
 185 124 l 2,22,23
 185 92 185 92 194.5 82.5 c 128,-1,24
 204 73 204 73 218.5 73 c 128,-1,25
 233 73 233 73 243 76 c 128,-1,26
 253 79 253 79 262.5 83.5 c 0,27,28
 281.193548387 92.3548387097 281.193548387 92.3548387097 292 101 c 1,0,1
EndSplineSet
EndChar

StartChar: u
Encoding: 117 117 20
Width: 510
Flags: HW
LayerCount: 2
Fore
SplineSet
349 41 m 1,0,1
 301.857142857 -4 301.857142857 -4 237 -4 c 256,2,3
 126.936507937 -4 126.936507937 -4 90 85.5 c 0,4,5
 77 117 77 117 77 161 c 2,6,-1
 77 406 l 1,7,-1
 22 406 l 1,8,-1
 12 464 l 1,9,-1
 136 486 l 1,10,-1
 167 453 l 1,11,-1
 167 182 l 2,12,13
 167 87.8064516129 167 87.8064516129 221.5 75.5 c 0,14,15
 237 72 237 72 250.5 72 c 128,-1,16
 264 72 264 72 277.5 75.5 c 128,-1,17
 291 79 291 79 303.5 86 c 0,18,19
 332.52173913 102.252173913 332.52173913 102.252173913 342 125 c 1,20,-1
 342 406 l 1,21,-1
 290 406 l 1,22,-1
 281 464 l 1,23,-1
 403 487 l 1,24,-1
 432 453 l 1,25,-1
 432 100 l 2,26,27
 432 67 432 67 450 67 c 1,28,-1
 468 69 l 1,29,-1
 482 24 l 1,30,31
 454 -4 454 -4 417 -4 c 0,32,33
 365 -4 365 -4 349 41 c 1,0,1
EndSplineSet
EndChar

StartChar: v
Encoding: 118 118 21
Width: 467
Flags: HW
LayerCount: 2
Fore
SplineSet
277 -5 m 1,0,-1
 198 -5 l 1,1,-1
 47 420 l 1,2,-1
 8 420 l 1,3,-1
 0 477 l 1,4,-1
 121 486 l 1,5,-1
 248 117 l 1,6,-1
 371 420 l 1,7,-1
 317 420 l 1,8,-1
 310 477 l 1,9,-1
 431 486 l 1,10,-1
 463 448 l 1,11,-1
 277 -5 l 1,0,-1
EndSplineSet
EndChar

StartChar: w
Encoding: 119 119 22
Width: 704
Flags: HW
LayerCount: 2
Fore
SplineSet
146 -3 m 1,0,-1
 56 416 l 1,1,-1
 12 416 l 1,2,-1
 5 478 l 1,3,-1
 138 488 l 1,4,-1
 216 105 l 1,5,-1
 310 475 l 1,6,-1
 419 475 l 1,7,-1
 521 104 l 1,8,-1
 598 416 l 1,9,-1
 553 416 l 1,10,-1
 546 478 l 1,11,-1
 657 487 l 1,12,-1
 679 452 l 1,13,-1
 570 -3 l 1,14,-1
 452 -3 l 1,15,-1
 357 354 l 1,16,-1
 265 -3 l 1,17,-1
 146 -3 l 1,0,-1
EndSplineSet
EndChar

StartChar: x
Encoding: 120 120 23
Width: 464
Flags: HW
LayerCount: 2
Fore
SplineSet
246 310 m 1,0,-1
 342 486 l 1,1,-1
 432 486 l 1,2,-1
 432 423 l 1,3,-1
 394 423 l 1,4,-1
 287 241 l 1,5,-1
 393 65 l 1,6,-1
 436 65 l 1,7,-1
 436 0 l 1,8,-1
 319 0 l 1,9,-1
 218 169 l 1,10,-1
 121 0 l 1,11,-1
 32 0 l 1,12,-1
 28 63 l 1,13,-1
 70 63 l 1,14,-1
 174 242 l 1,15,-1
 69 420 l 1,16,-1
 28 420 l 1,17,-1
 28 486 l 1,18,-1
 140 486 l 1,19,-1
 246 310 l 1,0,-1
EndSplineSet
EndChar

StartChar: y
Encoding: 121 121 24
Width: 480
Flags: HW
LayerCount: 2
Fore
SplineSet
62 -166 m 1,0,1
 89.8181818182 -200 89.8181818182 -200 121 -200 c 0,2,3
 152.666666667 -200 152.666666667 -200 176.5 -139.5 c 0,4,5
 183 -123 183 -123 189 -108 c 2,6,-1
 211 -49 l 1,7,-1
 49 416 l 1,8,-1
 9 416 l 1,9,-1
 1 478 l 1,10,-1
 125 486 l 1,11,-1
 260 81 l 1,12,-1
 386 416 l 1,13,-1
 334 416 l 1,14,-1
 327 477 l 1,15,-1
 448 486 l 1,16,-1
 474 452 l 1,17,18
 384 197 384 197 313 14.5 c 128,-1,19
 242 -168 242 -168 230.5 -191.5 c 128,-1,20
 219 -215 219 -215 203.5 -233.5 c 0,21,22
 168.72972973 -275 168.72972973 -275 114 -275 c 0,23,24
 70 -275 70 -275 25 -235 c 1,25,-1
 62 -166 l 1,0,1
EndSplineSet
EndChar

StartChar: z
Encoding: 122 122 25
Width: 423
Flags: HW
LayerCount: 2
Fore
SplineSet
272 410 m 1,0,1
 194 412 194 412 115 412 c 1,2,-1
 101 334 l 1,3,-1
 43 334 l 1,4,-1
 43 486 l 1,5,-1
 380 486 l 1,6,-1
 380 408 l 1,7,-1
 150 75 l 1,8,-1
 309 75 l 1,9,-1
 323 157 l 1,10,-1
 380 157 l 1,11,-1
 380 0 l 1,12,-1
 43 0 l 1,13,-1
 43 77 l 1,14,-1
 272 410 l 1,0,1
EndSplineSet
EndChar

StartChar: A
Encoding: 65 65 26
Width: 608
Flags: HW
LayerCount: 2
Fore
SplineSet
-1 62 m 1,0,-1
 51 80 l 1,1,-1
 253 691 l 1,2,-1
 349 691 l 1,3,-1
 562 80 l 1,4,-1
 608 62 l 1,5,-1
 597 0 l 1,6,-1
 362 0 l 1,7,-1
 362 59 l 1,8,-1
 450 80 l 1,9,-1
 402 228 l 1,10,-1
 188 228 l 1,11,-1
 142 80 l 1,12,-1
 228 60 l 1,13,-1
 228 0 l 1,14,-1
 12 0 l 1,15,-1
 -1 62 l 1,0,-1
214 314 m 1,16,-1
 374 314 l 1,17,-1
 292 565 l 1,18,-1
 214 314 l 1,16,-1
EndSplineSet
EndChar

StartChar: B
Encoding: 66 66 27
Width: 577
Flags: HW
LayerCount: 2
Fore
SplineSet
49 70 m 1,0,-1
 110 84 l 1,1,-1
 110 610 l 1,2,-1
 46 616 l 1,3,-1
 46 691 l 1,4,-1
 277 691 l 2,5,6
 385.25 691 385.25 691 449 640 c 0,7,8
 510 591.2 510 591.2 510 510 c 0,9,10
 510 453.034482759 510 453.034482759 478.5 408.5 c 0,11,12
 448.826625387 366.547987616 448.826625387 366.547987616 407 354 c 1,13,14
 460.734177215 343.253164557 460.734177215 343.253164557 497.5 304.5 c 0,15,16
 538 261.810810811 538 261.810810811 538 199.905405405 c 128,-1,17
 538 138 538 138 516.5 100 c 128,-1,18
 495 62 495 62 460.5 39.5 c 0,19,20
 399.933333333 3.5527136788e-15 399.933333333 3.5527136788e-15 298 0 c 2,21,-1
 59 0 l 1,22,-1
 49 70 l 1,0,-1
405 500 m 0,23,24
 405 605 405 605 271 605 c 2,25,-1
 210 605 l 1,26,-1
 210 390 l 1,27,-1
 254 390 l 2,28,29
 331 390 331 390 368 416.5 c 128,-1,30
 405 443 405 443 405 500 c 0,23,24
210 86 m 1,31,-1
 288 86 l 2,32,33
 385.837209302 86 385.837209302 86 420 142.5 c 0,34,35
 433 164 433 164 433 196 c 128,-1,36
 433 228 433 228 420.5 249 c 128,-1,37
 408 270 408 270 387 282 c 0,38,39
 348.5 304 348.5 304 286 304 c 2,40,-1
 210 304 l 1,41,-1
 210 86 l 1,31,-1
EndSplineSet
EndChar

StartChar: C
Encoding: 67 67 28
Width: 582
Flags: HW
LayerCount: 2
Fore
SplineSet
554 41 m 1,0,1
 491 -4 491 -4 377 -4 c 0,2,3
 238.655172414 -4 238.655172414 -4 141 84.5 c 0,4,5
 34 181.46875 34 181.46875 34 338 c 0,6,7
 34 504.365591398 34 504.365591398 135.5 601.5 c 0,8,9
 229.02247191 691 229.02247191 691 372 691 c 0,10,11
 436.4 691 436.4 691 520 672 c 1,12,-1
 539 490 l 1,13,-1
 471 490 l 1,14,-1
 432 598 l 1,15,16
 413 605 413 605 366 605 c 128,-1,17
 319 605 319 605 275.5 584 c 128,-1,18
 232 563 232 563 202 528 c 0,19,20
 139 454.5 139 454.5 139 348 c 0,21,22
 139 233.272727273 139 233.272727273 208 158 c 0,23,24
 277.666666667 82 277.666666667 82 394 82 c 0,25,26
 437 82 437 82 473 95 c 128,-1,27
 509 108 509 108 525 120 c 1,28,-1
 554 41 l 1,0,1
EndSplineSet
EndChar

StartChar: D
Encoding: 68 68 29
Width: 633
Flags: HW
LayerCount: 2
Fore
SplineSet
217 85 m 1,0,1
 492 85 492 85 492 351 c 0,2,3
 492 470.676470588 492 470.676470588 420 539.5 c 0,4,5
 350.430769231 606 350.430769231 606 233 606 c 1,6,-1
 209 605 l 1,7,-1
 209 86 l 1,8,-1
 217 85 l 1,0,1
110 85 m 1,9,-1
 110 611 l 1,10,-1
 50 617 l 1,11,-1
 50 691 l 1,12,-1
 239 691 l 2,13,14
 402.341176471 691 402.341176471 691 498 604.5 c 0,15,16
 597 514.978723404 597 514.978723404 597 350 c 128,-1,17
 597 184.934782609 597 184.934782609 502 92 c 0,18,19
 407.955555556 -3.5527136788e-14 407.955555556 -3.5527136788e-14 243 0 c 2,20,-1
 59 0 l 1,21,-1
 49 71 l 1,22,-1
 110 85 l 1,9,-1
EndSplineSet
EndChar

StartChar: E
Encoding: 69 69 30
Width: 539
Flags: HW
LayerCount: 2
Fore
SplineSet
49 691 m 1,0,-1
 475 691 l 1,1,-1
 495 503 l 1,2,-1
 432 503 l 1,3,-1
 394 605 l 1,4,-1
 208 605 l 1,5,-1
 208 395 l 1,6,-1
 366 395 l 1,7,-1
 366 309 l 1,8,-1
 208 309 l 1,9,-1
 208 86 l 1,10,-1
 404 86 l 1,11,-1
 439 187 l 1,12,-1
 502 187 l 1,13,-1
 482 0 l 1,14,-1
 58 0 l 1,15,-1
 48 71 l 1,16,-1
 109 84 l 1,17,-1
 109 611 l 1,18,-1
 49 616 l 1,19,-1
 49 691 l 1,0,-1
EndSplineSet
EndChar

StartChar: F
Encoding: 70 70 31
Width: 511
Flags: HW
LayerCount: 2
Fore
SplineSet
58 0 m 1,0,-1
 48 71 l 1,1,-1
 109 84 l 1,2,-1
 109 611 l 1,3,-1
 49 616 l 1,4,-1
 49 691 l 1,5,-1
 475 691 l 1,6,-1
 496 503 l 1,7,-1
 434 503 l 1,8,-1
 394 605 l 1,9,-1
 208 605 l 1,10,-1
 208 395 l 1,11,-1
 366 395 l 1,12,-1
 366 309 l 1,13,-1
 208 309 l 1,14,-1
 208 88 l 1,15,-1
 370 65 l 1,16,-1
 364 0 l 1,17,-1
 58 0 l 1,0,-1
EndSplineSet
EndChar

StartChar: G
Encoding: 71 71 32
Width: 615
Flags: HW
LayerCount: 2
Fore
SplineSet
459 86 m 1,0,-1
 460 233 l 1,1,-1
 346 247 l 1,2,-1
 364 318 l 1,3,-1
 559 318 l 1,4,-1
 559 14 l 1,5,6
 487 -4 487 -4 402 -4 c 128,-1,7
 317 -4 317 -4 251.5 19 c 128,-1,8
 186 42 186 42 137 86 c 0,9,10
 33 179.387755102 33 179.387755102 33 337 c 256,11,12
 33 497 33 497 130.5 594.5 c 0,13,14
 227 691 227 691 381 691 c 0,15,16
 456.5 691 456.5 691 537 670 c 1,17,-1
 552 489 l 1,18,-1
 479 489 l 1,19,-1
 443 600 l 1,20,21
 413 605 413 605 369 605 c 128,-1,22
 325 605 325 605 281 585 c 128,-1,23
 237 565 237 565 205.5 529.5 c 0,24,25
 138 453.428571429 138 453.428571429 138 340 c 0,26,27
 138 222.942857143 138 222.942857143 210 153 c 0,28,29
 283.088235294 82 283.088235294 82 405 82 c 0,30,31
 439 82 439 82 459 86 c 1,0,-1
EndSplineSet
EndChar

StartChar: H
Encoding: 72 72 33
Width: 672
Flags: HW
LayerCount: 2
Fore
SplineSet
109 610 m 1,0,-1
 49 615 l 1,1,-1
 49 691 l 1,2,-1
 259 691 l 1,3,-1
 269 616 l 1,4,-1
 209 606 l 1,5,-1
 209 399 l 1,6,-1
 463 399 l 1,7,-1
 463 610 l 1,8,-1
 406 615 l 1,9,-1
 406 691 l 1,10,-1
 613 691 l 1,11,-1
 623 616 l 1,12,-1
 563 606 l 1,13,-1
 563 81 l 1,14,-1
 623 73 l 1,15,-1
 623 0 l 1,16,-1
 416 0 l 1,17,-1
 406 72 l 1,18,-1
 463 83 l 1,19,-1
 463 313 l 1,20,-1
 209 313 l 1,21,-1
 209 81 l 1,22,-1
 270 73 l 1,23,-1
 270 0 l 1,24,-1
 59 0 l 1,25,-1
 49 72 l 1,26,-1
 109 83 l 1,27,-1
 109 610 l 1,0,-1
EndSplineSet
EndChar

StartChar: I
Encoding: 73 73 34
Width: 319
Flags: HW
LayerCount: 2
Fore
SplineSet
109 610 m 1,0,-1
 46 615 l 1,1,-1
 46 691 l 1,2,-1
 264 691 l 1,3,-1
 274 616 l 1,4,-1
 209 606 l 1,5,-1
 209 81 l 1,6,-1
 274 73 l 1,7,-1
 274 0 l 1,8,-1
 55 0 l 1,9,-1
 46 72 l 1,10,-1
 109 83 l 1,11,-1
 109 610 l 1,0,-1
EndSplineSet
EndChar

StartChar: J
Encoding: 74 74 35
Width: 367
Flags: HW
LayerCount: 2
Fore
SplineSet
61 126 m 1,0,1
 105.416666667 85 105.416666667 85 134 85 c 0,2,3
 171 85 171 85 171 140 c 2,4,-1
 171 606 l 1,5,-1
 94 616 l 1,6,-1
 104 691 l 1,7,-1
 333 691 l 1,8,-1
 333 615 l 1,9,-1
 271 610 l 1,10,-1
 271 149 l 2,11,12
 271 59.5454545455 271 59.5454545455 218 21 c 0,13,14
 183.625 -4 183.625 -4 138.8125 -4 c 0,15,16
 61.3181818182 -4 61.3181818182 -4 8 47 c 1,17,-1
 61 126 l 1,0,1
EndSplineSet
EndChar

StartChar: K
Encoding: 75 75 36
Width: 613
Flags: HW
LayerCount: 2
Fore
SplineSet
595 71 m 1,0,-1
 595 0 l 1,1,-1
 456 0 l 1,2,-1
 298 297 l 1,3,-1
 209 190 l 1,4,-1
 209 81 l 1,5,-1
 270 73 l 1,6,-1
 270 0 l 1,7,-1
 55 0 l 1,8,-1
 46 72 l 1,9,-1
 109 83 l 1,10,-1
 109 610 l 1,11,-1
 46 614 l 1,12,-1
 46 691 l 1,13,-1
 260 691 l 1,14,-1
 269 617 l 1,15,-1
 209 606 l 1,16,-1
 209 324 l 1,17,-1
 442 608 l 1,18,-1
 371 619 l 1,19,-1
 371 691 l 1,20,-1
 592 691 l 1,21,-1
 592 618 l 1,22,-1
 559 611 l 1,23,-1
 367 380 l 1,24,-1
 540 81 l 1,25,-1
 595 71 l 1,0,-1
EndSplineSet
EndChar

StartChar: L
Encoding: 76 76 37
Width: 511
Flags: HW
LayerCount: 2
Fore
SplineSet
49 691 m 1,0,-1
 264 691 l 1,1,-1
 273 617 l 1,2,-1
 208 606 l 1,3,-1
 208 86 l 1,4,-1
 404 86 l 1,5,-1
 439 187 l 1,6,-1
 502 187 l 1,7,-1
 482 0 l 1,8,-1
 58 0 l 1,9,-1
 48 71 l 1,10,-1
 109 82 l 1,11,-1
 109 611 l 1,12,-1
 49 616 l 1,13,-1
 49 691 l 1,0,-1
EndSplineSet
EndChar

StartChar: M
Encoding: 77 77 38
Width: 854
Flags: HW
LayerCount: 2
Fore
SplineSet
747 81 m 1,0,-1
 802 70 l 1,1,-1
 798 0 l 1,2,-1
 604 0 l 1,3,-1
 596 72 l 1,4,-1
 654 85 l 1,5,-1
 654 599 l 1,6,-1
 477 15 l 1,7,-1
 362 15 l 1,8,-1
 191 604 l 1,9,-1
 191 82 l 1,10,-1
 250 71 l 1,11,-1
 250 0 l 1,12,-1
 57 0 l 1,13,-1
 45 71 l 1,14,-1
 108 84 l 1,15,-1
 108 609 l 1,16,-1
 58 614 l 1,17,-1
 58 691 l 1,18,-1
 264 691 l 1,19,-1
 426 131 l 1,20,-1
 594 691 l 1,21,-1
 789 691 l 1,22,-1
 799 614 l 1,23,-1
 747 606 l 1,24,-1
 747 81 l 1,0,-1
EndSplineSet
EndChar

StartChar: N
Encoding: 78 78 39
Width: 696
Flags: HW
LayerCount: 2
Fore
SplineSet
194 161 m 1,0,-1
 195 89.5 l 2,1,2
 195 84 195 84 196 81 c 1,3,-1
 253 71 l 1,4,-1
 253 0 l 1,5,-1
 59 0 l 1,6,-1
 47 71 l 1,7,-1
 110 84 l 1,8,-1
 110 609 l 1,9,-1
 50 615 l 1,10,-1
 50 691 l 1,11,-1
 259 691 l 1,12,-1
 511 96 l 1,13,-1
 511 609 l 1,14,-1
 449 617 l 1,15,-1
 449 691 l 1,16,-1
 646 691 l 1,17,-1
 659 616 l 1,18,-1
 595 604 l 1,19,-1
 595 0 l 1,20,-1
 447 0 l 1,21,-1
 194 596 l 1,22,-1
 194 161 l 1,0,-1
EndSplineSet
EndChar

StartChar: O
Encoding: 79 79 40
Width: 651
Flags: HW
LayerCount: 2
Fore
SplineSet
148 342 m 256,0,1
 148 233.837209302 148 233.837209302 191.5 161 c 0,2,3
 238.680555556 82 238.680555556 82 325 82 c 256,4,5
 411.722222222 82 411.722222222 82 460 161 c 0,6,7
 504 233 504 233 504 342 c 256,8,9
 504 452.5 504 452.5 460 525.5 c 0,10,11
 411.479452055 606 411.479452055 606 325 606 c 256,12,13
 238.917808219 606 238.917808219 606 191.5 525.5 c 0,14,15
 148 451.651162791 148 451.651162791 148 342 c 256,0,1
325 -4 m 256,16,17
 188.833333333 -4 188.833333333 -4 113 100 c 0,18,19
 43 196 43 196 43 344 c 256,20,21
 43 492 43 492 113 588 c 0,22,23
 188.833333333 692 188.833333333 692 325 692 c 256,24,25
 460.583333333 692 460.583333333 692 537.5 588 c 0,26,27
 609 491.323943662 609 491.323943662 609 344 c 256,28,29
 609 196.676056338 609 196.676056338 537.5 100 c 0,30,31
 460.583333333 -4 460.583333333 -4 325 -4 c 256,16,17
EndSplineSet
EndChar

StartChar: P
Encoding: 80 80 41
Width: 553
Flags: HW
LayerCount: 2
Fore
SplineSet
210 87 m 1,0,1
 235 82 235 82 355 67 c 1,2,-1
 352 0 l 1,3,-1
 56 0 l 1,4,-1
 46 70 l 1,5,-1
 110 84 l 1,6,-1
 110 610 l 1,7,-1
 47 615 l 1,8,-1
 47 691 l 1,9,-1
 258 691 l 2,10,11
 396.966101695 691 396.966101695 691 468 627.5 c 0,12,13
 532 570.287878788 532 570.287878788 532 470 c 0,14,15
 532 352.648648649 532 352.648648649 453 295 c 0,16,17
 383.111111111 244 383.111111111 244 256 244 c 2,18,-1
 210 244 l 1,19,-1
 210 87 l 1,0,1
427 471 m 0,20,21
 427 605 427 605 245 605 c 2,22,-1
 210 605 l 1,23,-1
 210 330 l 1,24,-1
 252 330 l 2,25,26
 343.820512821 330 343.820512821 330 388.5 372.5 c 0,27,28
 427 409.12195122 427 409.12195122 427 471 c 0,20,21
EndSplineSet
EndChar

StartChar: Q
Encoding: 81 81 42
Width: 651
Flags: HW
LayerCount: 2
Fore
SplineSet
148 342 m 256,0,1
 148 233.837209302 148 233.837209302 191.5 161 c 0,2,3
 238.680555556 82 238.680555556 82 325 82 c 256,4,5
 411.722222222 82 411.722222222 82 460 161 c 0,6,7
 504 233 504 233 504 342 c 256,8,9
 504 452.5 504 452.5 460 525.5 c 0,10,11
 411.479452055 606 411.479452055 606 325 606 c 256,12,13
 238.917808219 606 238.917808219 606 191.5 525.5 c 0,14,15
 148 451.651162791 148 451.651162791 148 342 c 256,0,1
325 -4 m 256,16,17
 188.833333333 -4 188.833333333 -4 113 100 c 0,18,19
 43 196 43 196 43 344 c 256,20,21
 43 492 43 492 113 588 c 0,22,23
 188.833333333 692 188.833333333 692 325 692 c 256,24,25
 460.583333333 692 460.583333333 692 537.5 588 c 0,26,27
 609 491.323943662 609 491.323943662 609 344 c 256,28,29
 609 196.676056338 609 196.676056338 537.5 100 c 0,30,31
 460.583333333 -4 460.583333333 -4 325 -4 c 256,16,17
508 -97 m 1,32,-1
 514 -130 l 1,33,-1
 425 -209 l 1,34,35
 382 -174 382 -174 341.5 -137.5 c 128,-1,36
 301 -101 301 -101 259 -64 c 1,37,-1
 298 -22 l 1,38,-1
 508 -97 l 1,32,-1
EndSplineSet
EndChar

StartChar: R
Encoding: 82 82 43
Width: 584
Flags: HW
LayerCount: 2
Fore
SplineSet
110 84 m 1,0,-1
 110 610 l 1,1,-1
 47 615 l 1,2,-1
 47 691 l 1,3,-1
 258 691 l 2,4,5
 396.966101695 691 396.966101695 691 468 627.5 c 0,6,7
 532 570.287878788 532 570.287878788 532 470 c 0,8,9
 532 401 532 401 497 353 c 128,-1,10
 462 305 462 305 402 280 c 1,11,-1
 499 81 l 1,12,-1
 556 69 l 1,13,-1
 556 0 l 1,14,-1
 417 0 l 1,15,-1
 305 256 l 1,16,17
 281 253 281 253 256 253 c 2,18,-1
 210 253 l 1,19,-1
 210 83 l 1,20,-1
 289 69 l 1,21,-1
 289 0 l 1,22,-1
 56 0 l 1,23,-1
 46 70 l 1,24,-1
 110 84 l 1,0,-1
427 471 m 0,25,26
 427 605 427 605 245 605 c 2,27,-1
 210 605 l 1,28,-1
 210 339 l 1,29,-1
 252 339 l 2,30,31
 341.405405405 339 341.405405405 339 388.5 381.5 c 0,32,33
 427 416.243902439 427 416.243902439 427 471 c 0,25,26
EndSplineSet
EndChar

StartChar: S
Encoding: 83 83 44
Width: 507
Flags: HW
LayerCount: 2
Fore
SplineSet
52 34 m 1,0,-1
 59 203 l 1,1,-1
 129 203 l 1,2,-1
 147 96 l 1,3,4
 189.666666667 80 189.666666667 80 233 80 c 256,5,6
 318.578947368 80 318.578947368 80 351 136 c 0,7,8
 362 155 362 155 362 185.5 c 128,-1,9
 362 216 362 216 343.5 240.5 c 128,-1,10
 325 265 325 265 282.5 286 c 128,-1,11
 240 307 240 307 198.5 324 c 128,-1,12
 157 341 157 341 123.5 364.5 c 128,-1,13
 90 388 90 388 68.5 422.5 c 128,-1,14
 47 457 47 457 47 505.5 c 128,-1,15
 47 554 47 554 64.5 587 c 128,-1,16
 82 620 82 620 112 643 c 0,17,18
 174.608695652 691 174.608695652 691 266 691 c 0,19,20
 353.571428571 691 353.571428571 691 435 661 c 1,21,-1
 449 489 l 1,22,-1
 380 489 l 1,23,-1
 336 597 l 1,24,25
 306 607 306 607 260.5 607 c 128,-1,26
 215 607 215 607 183.5 586 c 128,-1,27
 152 565 152 565 152 522 c 0,28,29
 152 472.454545455 152 472.454545455 202 439.5 c 0,30,31
 224 425 224 425 251 413.5 c 128,-1,32
 278 402 278 402 313.5 386 c 128,-1,33
 349 370 349 370 380 348 c 128,-1,34
 411 326 411 326 430 302 c 0,35,36
 466 256.526315789 466 256.526315789 466 198.763157895 c 128,-1,37
 466 141 466 141 446.5 103.5 c 128,-1,38
 427 66 427 66 394.5 42 c 0,39,40
 332.208333333 -4 332.208333333 -4 230.104166667 -4 c 128,-1,41
 128 -4 128 -4 52 34 c 1,0,-1
EndSplineSet
EndChar

StartChar: T
Encoding: 84 84 45
Width: 580
Flags: HW
LayerCount: 2
Fore
SplineSet
125 66 m 1,0,-1
 239 86 l 1,1,-1
 239 605 l 1,2,-1
 116 605 l 1,3,-1
 75 506 l 1,4,-1
 14 506 l 1,5,-1
 35 691 l 1,6,-1
 545 691 l 1,7,-1
 567 506 l 1,8,-1
 506 506 l 1,9,-1
 464 605 l 1,10,-1
 339 605 l 1,11,-1
 339 86 l 1,12,-1
 455 66 l 1,13,-1
 446 0 l 1,14,-1
 138 0 l 1,15,-1
 125 66 l 1,0,-1
EndSplineSet
EndChar

StartChar: U
Encoding: 85 85 46
Width: 647
Flags: HW
LayerCount: 2
Fore
SplineSet
411 691 m 1,0,-1
 613 691 l 1,1,-1
 613 617 l 1,2,-1
 556 607 l 1,3,-1
 556 230 l 2,4,5
 556 114.380952381 556 114.380952381 486.5 51.5 c 0,6,7
 425.157894737 -4 425.157894737 -4 331 -4 c 0,8,9
 216 -4 216 -4 154 57.5 c 128,-1,10
 92 119 92 119 92 230 c 2,11,-1
 92 610 l 1,12,-1
 30 616 l 1,13,-1
 30 691 l 1,14,-1
 261 691 l 1,15,-1
 261 617 l 1,16,-1
 192 608 l 1,17,-1
 192 233 l 2,18,19
 192 162 192 162 227 122 c 128,-1,20
 262 82 262 82 334 82 c 0,21,22
 426.896551724 82 426.896551724 82 460 162 c 0,23,24
 472 191 472 191 472 234 c 2,25,-1
 472 609 l 1,26,-1
 411 618 l 1,27,-1
 411 691 l 1,0,-1
EndSplineSet
EndChar

StartChar: V
Encoding: 86 86 47
Width: 579
Flags: HW
LayerCount: 2
Fore
SplineSet
575 623 m 1,0,-1
 537 610 l 1,1,-1
 335 0 l 1,2,-1
 243 0 l 1,3,-1
 43 610 l 1,4,-1
 7 623 l 1,5,-1
 7 691 l 1,6,-1
 233 691 l 1,7,-1
 241 629 l 1,8,-1
 150 610 l 1,9,-1
 297 156 l 1,10,-1
 446 612 l 1,11,-1
 356 629 l 1,12,-1
 356 691 l 1,13,-1
 575 691 l 1,14,-1
 575 623 l 1,0,-1
EndSplineSet
EndChar

StartChar: W
Encoding: 87 87 48
Width: 894
Flags: HW
LayerCount: 2
Fore
SplineSet
239 629 m 1,0,-1
 166 613 l 1,1,-1
 257 113 l 1,2,-1
 406 673 l 1,3,-1
 506 673 l 1,4,-1
 656 109 l 1,5,-1
 750 615 l 1,6,-1
 668 630 l 1,7,-1
 674 691 l 1,8,-1
 889 691 l 1,9,-1
 889 623 l 1,10,-1
 830 604 l 1,11,-1
 712 0 l 1,12,-1
 580 0 l 1,13,-1
 446 511 l 1,14,-1
 311 0 l 1,15,-1
 178 0 l 1,16,-1
 65 607 l 1,17,-1
 15 622 l 1,18,-1
 15 691 l 1,19,-1
 230 691 l 1,20,-1
 239 629 l 1,0,-1
EndSplineSet
EndChar

StartChar: X
Encoding: 88 88 49
Width: 574
Flags: HW
LayerCount: 2
Fore
SplineSet
20 62 m 1,0,-1
 64 69 l 1,1,-1
 227 335 l 1,2,-1
 62 609 l 1,3,-1
 20 621 l 1,4,-1
 20 691 l 1,5,-1
 243 691 l 1,6,-1
 251 630 l 1,7,-1
 180 615 l 1,8,-1
 297 424 l 1,9,-1
 409 614 l 1,10,-1
 350 628 l 1,11,-1
 350 691 l 1,12,-1
 553 691 l 1,13,-1
 553 618 l 1,14,-1
 510 611 l 1,15,-1
 347 343 l 1,16,-1
 509 78 l 1,17,-1
 553 66 l 1,18,-1
 553 0 l 1,19,-1
 327 0 l 1,20,-1
 327 62 l 1,21,-1
 390 67 l 1,22,-1
 277 254 l 1,23,-1
 167 66 l 1,24,-1
 223 59 l 1,25,-1
 223 0 l 1,26,-1
 20 0 l 1,27,-1
 20 62 l 1,0,-1
EndSplineSet
EndChar

StartChar: Y
Encoding: 89 89 50
Width: 563
Flags: HW
LayerCount: 2
Fore
SplineSet
556 616 m 1,0,-1
 513 606 l 1,1,-1
 333 246 l 1,2,-1
 333 83 l 1,3,-1
 449 63 l 1,4,-1
 439 0 l 1,5,-1
 129 0 l 1,6,-1
 119 63 l 1,7,-1
 234 83 l 1,8,-1
 234 252 l 1,9,-1
 44 607 l 1,10,-1
 4 616 l 1,11,-1
 4 691 l 1,12,-1
 217 691 l 1,13,-1
 224 625 l 1,14,-1
 160 613 l 1,15,-1
 296 363 l 1,16,-1
 418 614 l 1,17,-1
 361 625 l 1,18,-1
 361 691 l 1,19,-1
 556 691 l 1,20,-1
 556 616 l 1,0,-1
EndSplineSet
EndChar

StartChar: Z
Encoding: 90 90 51
Width: 553
Flags: HW
LayerCount: 2
Fore
SplineSet
504 598 m 1,0,1
 472 549 472 549 430 484 c 128,-1,2
 388 419 388 419 342.5 349.5 c 128,-1,3
 297 280 297 280 251.5 211.5 c 128,-1,4
 206 143 206 143 169 86 c 1,5,-1
 424 86 l 1,6,-1
 443 192 l 1,7,-1
 507 192 l 1,8,-1
 507 0 l 1,9,-1
 53 0 l 1,10,-1
 37 77 l 1,11,-1
 392 605 l 1,12,-1
 133 605 l 1,13,-1
 113 498 l 1,14,-1
 50 498 l 1,15,-1
 50 691 l 1,16,-1
 492 691 l 1,17,-1
 504 598 l 1,0,1
EndSplineSet
EndChar

StartChar: colon
Encoding: 58 58 52
Width: 235
Flags: HW
LayerCount: 2
Fore
SplineSet
75 389.5 m 128,-1,1
 58 407 58 407 58 431.5 c 128,-1,2
 58 456 58 456 75.5 473.5 c 128,-1,3
 93 491 93 491 117.5 491 c 128,-1,4
 142 491 142 491 159.5 473 c 128,-1,5
 177 455 177 455 177 430.5 c 128,-1,6
 177 406 177 406 159.5 389 c 128,-1,7
 142 372 142 372 117 372 c 128,-1,0
 92 372 92 372 75 389.5 c 128,-1,1
75.5 153 m 128,-1,9
 58 170 58 170 58 195 c 128,-1,10
 58 220 58 220 75.5 237 c 128,-1,11
 93 254 93 254 117.5 254 c 128,-1,12
 142 254 142 254 159.5 236.5 c 128,-1,13
 177 219 177 219 177 195 c 128,-1,14
 177 171 177 171 159.5 153.5 c 128,-1,15
 142 136 142 136 117.5 136 c 128,-1,8
 93 136 93 136 75.5 153 c 128,-1,9
EndSplineSet
EndChar

StartChar: semicolon
Encoding: 59 59 53
Width: 244
Flags: HW
LayerCount: 2
Fore
SplineSet
74 289.5 m 128,-1,1
 57 307 57 307 57 331.5 c 128,-1,2
 57 356 57 356 74.5 373.5 c 128,-1,3
 92 391 92 391 116.5 391 c 128,-1,4
 141 391 141 391 158.5 373 c 128,-1,5
 176 355 176 355 176 330.5 c 128,-1,6
 176 306 176 306 158.5 289 c 128,-1,7
 141 272 141 272 116 272 c 128,-1,0
 91 272 91 272 74 289.5 c 128,-1,1
173 133 m 1,8,9
 184 89 184 89 184 56.5 c 128,-1,10
 184 24 184 24 175.5 -7 c 128,-1,11
 167 -38 167 -38 154 -64.5 c 0,12,13
 130.407407407 -112.592592593 130.407407407 -112.592592593 96 -147 c 1,14,-1
 44 -117 l 1,15,-1
 44 -103 l 1,16,-1
 94 -1 l 1,17,-1
 68 114 l 1,18,-1
 173 133 l 1,8,9
EndSplineSet
EndChar

StartChar: period
Encoding: 46 46 54
Width: 208
Flags: HW
LayerCount: 2
Fore
SplineSet
62 13 m 128,-1,1
 45 30 45 30 45 55 c 128,-1,2
 45 80 45 80 62 97 c 128,-1,3
 79 114 79 114 103.5 114 c 128,-1,4
 128 114 128 114 146 96.5 c 128,-1,5
 164 79 164 79 164 55 c 128,-1,6
 164 31 164 31 146.5 13.5 c 128,-1,7
 129 -4 129 -4 104 -4 c 128,-1,0
 79 -4 79 -4 62 13 c 128,-1,1
EndSplineSet
EndChar

StartChar: comma
Encoding: 44 44 55
Width: 214
Flags: HW
LayerCount: 2
Fore
SplineSet
151 133 m 1,0,1
 162 89 162 89 162 56.5 c 128,-1,2
 162 24 162 24 153.5 -7 c 128,-1,3
 145 -38 145 -38 132 -64.5 c 0,4,5
 108.407407407 -112.592592593 108.407407407 -112.592592593 74 -147 c 1,6,-1
 22 -117 l 1,7,-1
 22 -103 l 1,8,-1
 72 -1 l 1,9,-1
 46 114 l 1,10,-1
 151 133 l 1,0,1
EndSplineSet
EndChar

StartChar: hyphen
Encoding: 45 45 56
Width: 399
Flags: HW
LayerCount: 2
Fore
SplineSet
58 305 m 1,0,-1
 70 319 l 1,1,-1
 335 319 l 2,2,3
 341 319 341 319 341 311 c 2,4,-1
 341 244 l 1,5,-1
 58 244 l 1,6,-1
 58 305 l 1,0,-1
EndSplineSet
EndChar

StartChar: equal
Encoding: 61 61 57
Width: 451
Flags: HW
LayerCount: 2
Fore
SplineSet
390 308 m 1,0,-1
 390 232 l 1,1,-1
 61 232 l 1,2,-1
 61 308 l 1,3,-1
 390 308 l 1,0,-1
390 434 m 1,4,-1
 390 358 l 1,5,-1
 61 358 l 1,6,-1
 61 434 l 1,7,-1
 390 434 l 1,4,-1
EndSplineSet
EndChar

StartChar: d
Encoding: 100 100 58
Width: 502
Flags: HW
LayerCount: 2
Fore
SplineSet
341 29 m 1,0,1
 294.25 -4 294.25 -4 241.625 -4 c 128,-1,2
 189 -4 189 -4 153 13 c 128,-1,3
 117 30 117 30 91 61 c 0,4,5
 36 126.576923077 36 126.576923077 36 235 c 0,6,7
 36 371.25 36 371.25 110 436 c 0,8,9
 167.142857143 486 167.142857143 486 250 486 c 0,10,11
 292 486 292 486 330 470 c 1,12,-1
 330 656 l 1,13,-1
 273 652 l 1,14,-1
 264 712 l 1,15,-1
 389 733 l 1,16,-1
 420 699 l 1,17,-1
 420 89 l 2,18,19
 420 68 420 68 434 68 c 0,20,21
 441 68 441 68 455 75 c 1,22,-1
 477 22 l 1,23,24
 445.8 -4 445.8 -4 401.9 -4 c 128,-1,25
 358 -4 358 -4 341 29 c 1,0,1
330 104 m 1,26,-1
 330 386 l 1,27,28
 321 395 321 395 299.5 403 c 128,-1,29
 278 411 278 411 256 411 c 128,-1,30
 234 411 234 411 213 403.5 c 128,-1,31
 192 396 192 396 173.5 376.5 c 0,32,33
 131 331.702702703 131 331.702702703 131 241 c 0,34,35
 131 155.242424242 131 155.242424242 167.5 111 c 0,36,37
 199.675 72 199.675 72 249.980357143 72 c 128,-1,38
 300.285714286 72 300.285714286 72 330 104 c 1,26,-1
EndSplineSet
EndChar

StartChar: exclam
Encoding: 33 33 59
Width: 268
Flags: HW
LayerCount: 2
Fore
SplineSet
91 13 m 128,-1,1
 74 30 74 30 74 55 c 128,-1,2
 74 80 74 80 91 97 c 128,-1,3
 108 114 108 114 132.5 114 c 128,-1,4
 157 114 157 114 175 96.5 c 128,-1,5
 193 79 193 79 193 55 c 128,-1,6
 193 31 193 31 175 13.5 c 128,-1,7
 157 -4 157 -4 132.5 -4 c 128,-1,0
 108 -4 108 -4 91 13 c 128,-1,1
66 677 m 1,8,-1
 183 690 l 1,9,-1
 204 652 l 1,10,-1
 167 237 l 1,11,-1
 98 237 l 1,12,-1
 66 677 l 1,8,-1
EndSplineSet
EndChar

StartChar: question
Encoding: 63 63 60
Width: 408
Flags: HW
LayerCount: 2
Fore
SplineSet
111 13.5 m 128,-1,1
 94 31 94 31 94 55.5 c 128,-1,2
 94 80 94 80 111 97 c 128,-1,3
 128 114 128 114 152.5 114 c 128,-1,4
 177 114 177 114 195 96.5 c 128,-1,5
 213 79 213 79 213 55 c 128,-1,6
 213 31 213 31 195 13.5 c 128,-1,7
 177 -4 177 -4 152.5 -4 c 128,-1,0
 128 -4 128 -4 111 13.5 c 128,-1,1
190 237 m 1,8,-1
 111 236 l 1,9,-1
 109 246 l 1,10,11
 105 260 105 260 105 289.5 c 128,-1,12
 105 319 105 319 117.5 341 c 128,-1,13
 130 363 130 363 149 380 c 128,-1,14
 168 397 168 397 190 412 c 128,-1,15
 212 427 212 427 231 443.5 c 0,16,17
 275 481.710526316 275 481.710526316 275 532 c 256,18,19
 275 562 275 562 253.5 584.5 c 128,-1,20
 232 607 232 607 190 607 c 0,21,22
 147.25 607 147.25 607 127 598 c 1,23,-1
 100 502 l 1,24,-1
 39 502 l 1,25,-1
 56 661 l 1,26,27
 140.545454545 691 140.545454545 691 193.772727273 691 c 128,-1,28
 247 691 247 691 280.5 678.5 c 128,-1,29
 314 666 314 666 336 645 c 0,30,31
 379 603.954545455 379 603.954545455 379 540 c 0,32,33
 379 455.351351351 379 455.351351351 315.5 397 c 0,34,35
 297 380 297 380 278 366 c 2,36,-1
 241 340 l 2,37,38
 194.853773585 306.672169811 194.853773585 306.672169811 191 258.5 c 0,39,40
 190 246 190 246 190 237 c 1,8,-1
EndSplineSet
EndChar

StartChar: bar
Encoding: 124 124 61
Width: 247
Flags: HW
LayerCount: 2
Fore
SplineSet
78 -214 m 1,0,-1
 78 694 l 1,1,-1
 169 694 l 1,2,-1
 169 -214 l 1,3,-1
 78 -214 l 1,0,-1
EndSplineSet
EndChar

StartChar: zero
Encoding: 48 48 62
Width: 583
Flags: HW
LayerCount: 2
Fore
SplineSet
46 343 m 256,0,1
 46 578.936170213 46 578.936170213 173 660 c 0,2,3
 220 690 220 690 291 690 c 256,4,5
 420.742268041 690 420.742268041 690 484.5 581.5 c 0,6,7
 537 492.157894737 537 492.157894737 537 343 c 256,8,9
 537 107.70212766 537 107.70212766 409 26 c 0,10,11
 362 -4 362 -4 291 -4 c 256,12,13
 160.897959184 -4 160.897959184 -4 97.5 105 c 0,14,15
 46 193.543859649 46 193.543859649 46 343 c 256,0,1
151 343 m 256,16,17
 151 161.679245283 151 161.679245283 227.5 102.5 c 0,18,19
 254 82 254 82 291 82 c 256,20,21
 362.085714286 82 362.085714286 82 399 158 c 0,22,23
 432 225.941176471 432 225.941176471 432 343 c 256,24,25
 432 525.037037037 432 525.037037037 355 583.5 c 0,26,27
 328 604 328 604 290.5 604 c 128,-1,28
 253 604 253 604 226.5 583.5 c 128,-1,29
 200 563 200 563 183.5 528 c 0,30,31
 151 459.060606061 151 459.060606061 151 343 c 256,16,17
EndSplineSet
EndChar

StartChar: one
Encoding: 49 49 63
Width: 362
Flags: HW
LayerCount: 2
Fore
SplineSet
154 83 m 1,0,-1
 154 579 l 1,1,-1
 40 556 l 1,2,-1
 25 628 l 1,3,-1
 234 693 l 1,4,-1
 254 684 l 1,5,-1
 254 79 l 1,6,-1
 347 67 l 1,7,-1
 347 0 l 1,8,-1
 52 0 l 1,9,-1
 41 66 l 1,10,-1
 154 83 l 1,0,-1
EndSplineSet
EndChar

StartChar: two
Encoding: 50 50 64
Width: 518
Flags: HW
LayerCount: 2
Fore
SplineSet
40 69 m 1,0,1
 60 91 60 91 90 122.5 c 128,-1,2
 120 154 120 154 153.5 191.5 c 128,-1,3
 187 229 187 229 221 270 c 128,-1,4
 255 311 255 311 282.5 351.5 c 0,5,6
 343.316645807 441.066332916 343.316645807 441.066332916 347 500 c 1,7,-1
 347 507 l 2,8,9
 347 554.931034483 347 554.931034483 313.5 581.5 c 0,10,11
 285.130434783 604 285.130434783 604 249.565217391 604 c 0,12,13
 200 604 200 604 161 578 c 1,14,-1
 134 494 l 1,15,-1
 22 554 l 1,16,17
 57 618 57 618 114.5 654 c 128,-1,18
 172 690 172 690 244 690 c 0,19,20
 332.023255814 690 332.023255814 690 388 648.5 c 0,21,22
 452 601.051724138 452 601.051724138 452 510 c 0,23,24
 452 417.016393443 452 417.016393443 342.5 277 c 0,25,26
 283.984651712 202.177095632 283.984651712 202.177095632 238.492325856 155.088547816 c 128,-1,27
 193 108 193 108 174 86 c 1,28,-1
 375 86 l 1,29,-1
 414 193 l 1,30,-1
 480 193 l 1,31,-1
 459 0 l 1,32,-1
 52 0 l 1,33,-1
 40 69 l 1,0,1
EndSplineSet
EndChar

StartChar: three
Encoding: 51 51 65
Width: 523
Flags: HW
LayerCount: 2
Fore
SplineSet
85 144 m 1,0,1
 158.071428571 82 158.071428571 82 241 82 c 0,2,3
 307 82 307 82 338.5 113 c 128,-1,4
 370 144 370 144 370 181.5 c 128,-1,5
 370 219 370 219 356.5 241 c 128,-1,6
 343 263 343 263 320.5 277.5 c 0,7,8
 277.827586207 305 277.827586207 305 205 305 c 2,9,-1
 154 305 l 1,10,-1
 154 391 l 1,11,12
 257.666666667 391 257.666666667 391 303.5 411 c 0,13,14
 362 436.527272727 362 436.527272727 362 507 c 0,15,16
 362 555.6 362 555.6 329 582 c 0,17,18
 300.25 605 300.25 605 261.125 605 c 128,-1,19
 222 605 222 605 200.5 596.5 c 128,-1,20
 179 588 179 588 165 580 c 1,21,-1
 128 498 l 1,22,-1
 27 556 l 1,23,24
 62 620 62 620 122.5 655 c 128,-1,25
 183 690 183 690 267 690 c 0,26,27
 346.5 690 346.5 690 403.5 646 c 0,28,29
 467 596.98245614 467 596.98245614 467 513 c 0,30,31
 467 456 467 456 436.5 414.5 c 128,-1,32
 406 373 406 373 355 355 c 1,33,34
 399.571428571 340.142857143 399.571428571 340.142857143 433 303 c 0,35,36
 475 256.333333333 475 256.333333333 475 199.666666667 c 128,-1,37
 475 143 475 143 454.5 105.5 c 128,-1,38
 434 68 434 68 401.5 43.5 c 0,39,40
 338.489795918 -4 338.489795918 -4 255.244897959 -4 c 0,41,42
 114.571428571 -4 114.571428571 -4 32 64 c 1,43,-1
 85 144 l 1,0,1
EndSplineSet
EndChar

StartChar: four
Encoding: 52 52 66
Width: 518
Flags: HW
LayerCount: 2
Fore
SplineSet
398 197 m 1,0,-1
 398 82 l 1,1,-1
 479 69 l 1,2,-1
 479 1 l 1,3,-1
 161 1 l 1,4,-1
 161 69 l 1,5,-1
 299 85 l 1,6,-1
 299 197 l 1,7,-1
 35 197 l 1,8,-1
 2 272 l 1,9,-1
 290 691 l 1,10,-1
 398 691 l 1,11,-1
 398 283 l 1,12,-1
 480 283 l 1,13,-1
 480 197 l 1,14,-1
 398 197 l 1,0,-1
299 283 m 1,15,-1
 299 568 l 1,16,-1
 100 283 l 1,17,-1
 299 283 l 1,15,-1
EndSplineSet
EndChar

StartChar: five
Encoding: 53 53 67
Width: 502
Flags: HW
LayerCount: 2
Fore
SplineSet
167 375 m 0,0,1
 121 375 121 375 79 369 c 1,2,-1
 79 658 l 1,3,-1
 111 690 l 1,4,-1
 430 690 l 1,5,-1
 430 604 l 1,6,-1
 174 604 l 1,7,-1
 174 460 l 1,8,-1
 198 460 l 2,9,10
 215 460 215 460 246.5 458.5 c 128,-1,11
 278 457 278 457 320 443 c 128,-1,12
 362 429 362 429 395 401.5 c 0,13,14
 469 339.833333333 469 339.833333333 469 235 c 0,15,16
 469 130.75 469 130.75 391 62.5 c 0,17,18
 315 -4 315 -4 209 -4 c 0,19,20
 148 -4 148 -4 99.5 16 c 128,-1,21
 51 36 51 36 19 65 c 1,22,-1
 68 142 l 1,23,24
 132.615384615 82 132.615384615 82 215 82 c 0,25,26
 279.435897436 82 279.435897436 82 322 123.5 c 0,27,28
 364 164.45 364 164.45 364 228 c 0,29,30
 364 307.730769231 364 307.730769231 307 345 c 0,31,32
 261.117647059 375 261.117647059 375 167 375 c 0,0,1
EndSplineSet
EndChar

StartChar: six
Encoding: 54 54 68
Width: 557
Flags: HW
LayerCount: 2
Fore
SplineSet
200.5 667.5 m 128,-1,1
 251 696 251 696 303.5 696 c 128,-1,2
 356 696 356 696 388.5 685.5 c 128,-1,3
 421 675 421 675 445 660 c 0,4,5
 482.152542373 636.779661017 482.152542373 636.779661017 509 598 c 1,6,-1
 414 531 l 1,7,-1
 364 602 l 1,8,9
 340 610 340 610 311.5 610 c 128,-1,10
 283 610 283 610 253.5 591.5 c 128,-1,11
 224 573 224 573 202 540.5 c 0,12,13
 155.071902091 471.174400816 155.071902091 471.174400816 149 372 c 1,14,15
 172 398 172 398 210.5 417.5 c 128,-1,16
 249 437 249 437 298 437 c 128,-1,17
 347 437 347 437 387 422.5 c 128,-1,18
 427 408 427 408 456 380 c 0,19,20
 518 320.137931034 518 320.137931034 518 220 c 0,21,22
 518 126.603448276 518 126.603448276 458 63.5 c 0,23,24
 393.819672131 -4 393.819672131 -4 299 -4 c 0,25,26
 169.591836735 -4 169.591836735 -4 100.5 107 c 0,27,28
 43 199.37704918 43 199.37704918 43 339 c 0,29,30
 43 490.728571429 43 490.728571429 115 590.5 c 0,31,0
 150 639 150 639 200.5 667.5 c 128,-1,1
164 210 m 1,32,33
 198.461538462 82 198.461538462 82 294 82 c 0,34,35
 353.210526316 82 353.210526316 82 384.5 123 c 0,36,37
 413 160.344827586 413 160.344827586 413 217 c 0,38,39
 413 275.75 413 275.75 379 314 c 0,40,41
 345.222222222 352 345.222222222 352 294 352 c 0,42,43
 238.684210526 352 238.684210526 352 202 311 c 0,44,45
 166.026476578 270.794297352 166.026476578 270.794297352 164 210 c 1,32,33
EndSplineSet
EndChar

StartChar: seven
Encoding: 55 55 69
Width: 444
Flags: HW
LayerCount: 2
Fore
SplineSet
90 483 m 1,0,-1
 27 483 l 1,1,-1
 27 690 l 1,2,-1
 421 690 l 1,3,-1
 439 664 l 1,4,-1
 230 0 l 1,5,-1
 127 0 l 1,6,-1
 122 27 l 1,7,-1
 341 604 l 1,8,-1
 115 604 l 1,9,-1
 90 483 l 1,0,-1
EndSplineSet
EndChar

StartChar: eight
Encoding: 56 56 70
Width: 532
Flags: HW
LayerCount: 2
Fore
SplineSet
41 184 m 0,0,1
 41 301.68 41 301.68 163 370 c 1,2,3
 125 395 125 395 98.5 431.5 c 128,-1,4
 72 468 72 468 72 515.5 c 128,-1,5
 72 563 72 563 89.5 594.5 c 128,-1,6
 107 626 107 626 135 648.5 c 0,7,8
 194.111111111 696 194.111111111 696 268 696 c 0,9,10
 344.581395349 696 344.581395349 696 401.5 651.5 c 0,11,12
 463 603.418181818 463 603.418181818 463 528 c 0,13,14
 463 457.628571429 463 457.628571429 402.5 407.5 c 0,15,16
 385 393 385 393 366 380 c 1,17,18
 427.779661017 342.93220339 427.779661017 342.93220339 449.389830508 314.966101695 c 0,19,20
 491 261.117647059 491 261.117647059 491 194 c 0,21,22
 491 108.483870968 491 108.483870968 422 49.5 c 0,23,24
 358.245283019 -5 358.245283019 -5 267 -5 c 256,25,26
 174.170212766 -5 174.170212766 -5 110.5 42.5 c 0,27,28
 41 94.3492063492 41 94.3492063492 41 184 c 0,0,1
243 327 m 1,29,30
 146 273.880952381 146 273.880952381 146 187 c 0,31,32
 146 136.333333333 146 136.333333333 188 106 c 0,33,34
 222.615384615 81 222.615384615 81 257.807692308 81 c 128,-1,35
 293 81 293 81 315 89.5 c 128,-1,36
 337 98 337 98 352.5 112.5 c 0,37,38
 386 143.838709677 386 143.838709677 386 186 c 0,39,40
 386 254.37254902 386 254.37254902 296.5 300 c 0,41,42
 271 313 271 313 243 327 c 1,29,30
337 466.5 m 128,-1,44
 358 491 358 491 358 526.5 c 128,-1,45
 358 562 358 562 333 586 c 128,-1,46
 308 610 308 610 268 610 c 128,-1,47
 228 610 228 610 202.5 587.5 c 128,-1,48
 177 565 177 565 177 537.5 c 128,-1,49
 177 510 177 510 186.5 493 c 128,-1,50
 196 476 196 476 211 463.5 c 0,51,52
 233.565217391 444.695652174 233.565217391 444.695652174 284 422 c 1,53,43
 316 442 316 442 337 466.5 c 128,-1,44
EndSplineSet
EndChar

StartChar: nine
Encoding: 57 57 71
Width: 543
Flags: HW
LayerCount: 2
Fore
SplineSet
98 143 m 1,0,1
 168.242424242 82 168.242424242 82 243 82 c 0,2,3
 377.375 82 377.375 82 391 300 c 1,4,5
 361 271 361 271 322.5 258 c 128,-1,6
 284 245 284 245 247 245 c 128,-1,7
 210 245 210 245 171 259 c 128,-1,8
 132 273 132 273 103.5 300 c 0,9,10
 43 357.315789474 43 357.315789474 43 458 c 0,11,12
 43 557.339285714 43 557.339285714 100 623.5 c 0,13,14
 160.738461538 694 160.738461538 694 268 694 c 0,15,16
 388.647058824 694 388.647058824 694 449 580 c 0,17,18
 498 487.444444444 498 487.444444444 498 338 c 0,19,20
 498 194.770491803 498 194.770491803 436.5 100 c 0,21,22
 406 53 406 53 359 24.5 c 128,-1,23
 312 -4 312 -4 260 -4 c 128,-1,24
 208 -4 208 -4 175 3.5 c 128,-1,25
 142 11 142 11 116.5 21.5 c 0,26,27
 79.9130434783 36.5652173913 79.9130434783 36.5652173913 42 65 c 1,28,-1
 98 143 l 1,0,1
261.5 331 m 0,29,30
 283 331 283 331 304 338.5 c 128,-1,31
 325 346 325 346 342 361 c 0,32,33
 381.33632287 395.708520179 381.33632287 395.708520179 385 447 c 1,34,35
 368.017515924 559.084394904 368.017515924 559.084394904 310 595 c 0,36,37
 289 608 289 608 261 608 c 0,38,39
 212 608 212 608 180 572 c 128,-1,40
 148 536 148 536 148 467 c 0,41,42
 148 400.225806452 148 400.225806452 182.5 363.5 c 0,43,44
 213.03030303 331 213.03030303 331 261.5 331 c 0,29,30
EndSplineSet
EndChar

StartChar: quotedbl
Encoding: 34 34 72
Width: 323
Flags: HW
LayerCount: 2
Fore
SplineSet
36 689 m 1,0,-1
 129 699 l 1,1,-1
 146 669 l 1,2,-1
 117 467 l 1,3,-1
 62 467 l 1,4,-1
 36 689 l 1,0,-1
177 689 m 1,5,-1
 270 699 l 1,6,-1
 287 669 l 1,7,-1
 258 467 l 1,8,-1
 203 467 l 1,9,-1
 177 689 l 1,5,-1
EndSplineSet
EndChar

StartChar: bracketleft
Encoding: 91 91 73
Width: 321
Flags: HW
LayerCount: 2
Fore
SplineSet
318 702 m 2,0,1
 324 702 324 702 324 695 c 2,2,-1
 324 628 l 1,3,-1
 173 628 l 1,4,-1
 173 -105 l 1,5,-1
 324 -105 l 1,6,-1
 324 -171 l 2,7,8
 324 -179 324 -179 318 -179 c 2,9,-1
 89 -179 l 1,10,-1
 78 -165 l 1,11,-1
 78 690 l 1,12,-1
 86 702 l 1,13,-1
 318 702 l 2,0,1
EndSplineSet
EndChar

StartChar: bracketright
Encoding: 93 93 74
Width: 321
Flags: HW
LayerCount: 2
Fore
SplineSet
243 -165 m 1,0,-1
 232 -179 l 1,1,-1
 3 -179 l 2,2,3
 -3 -179 -3 -179 -3 -171 c 2,4,-1
 -3 -105 l 1,5,-1
 148 -105 l 1,6,-1
 148 628 l 1,7,-1
 -3 628 l 1,8,-1
 -3 695 l 2,9,10
 -3 702 -3 702 3 702 c 2,11,-1
 235 702 l 1,12,-1
 243 690 l 1,13,-1
 243 -165 l 1,0,-1
EndSplineSet
EndChar

StartChar: plus
Encoding: 43 43 75
Width: 401
Flags: HW
LayerCount: 2
Fore
SplineSet
240 518 m 1,0,-1
 240 390 l 1,1,-1
 365 390 l 1,2,-1
 365 315 l 1,3,-1
 240 315 l 1,4,-1
 240 165 l 1,5,-1
 178 165 l 1,6,-1
 165 177 l 1,7,-1
 165 315 l 1,8,-1
 34 315 l 1,9,-1
 34 376 l 1,10,-1
 47 390 l 1,11,-1
 165 390 l 1,12,-1
 165 518 l 1,13,-1
 240 518 l 1,0,-1
EndSplineSet
EndChar

StartChar: asterisk
Encoding: 42 42 76
Width: 362
Flags: HW
LayerCount: 2
Fore
SplineSet
196 597 m 1,0,-1
 287 680 l 1,1,-1
 327 637 l 1,2,-1
 321 614 l 1,3,-1
 208 572 l 1,4,-1
 327 534 l 1,5,-1
 311 478 l 1,6,-1
 287 472 l 1,7,-1
 195 547 l 1,8,-1
 218 426 l 1,9,-1
 162 414 l 1,10,-1
 146 431 l 1,11,-1
 166 547 l 1,12,-1
 75 464 l 1,13,-1
 35 507 l 1,14,-1
 41 530 l 1,15,-1
 154 572 l 1,16,-1
 35 610 l 1,17,-1
 51 666 l 1,18,-1
 75 672 l 1,19,-1
 167 597 l 1,20,-1
 144 718 l 1,21,-1
 200 730 l 1,22,-1
 216 713 l 1,23,-1
 196 597 l 1,0,-1
173 558 m 1,24,-1
 190 558 l 1,25,-1
 197 572 l 1,26,-1
 189 586 l 1,27,-1
 171 586 l 1,28,-1
 164 571 l 1,29,-1
 173 558 l 1,24,-1
EndSplineSet
EndChar

StartChar: quotesingle
Encoding: 39 39 77
Width: 182
Flags: HW
LayerCount: 2
Fore
SplineSet
36 679 m 1,0,-1
 129 689 l 1,1,-1
 146 659 l 1,2,-1
 117 457 l 1,3,-1
 62 457 l 1,4,-1
 36 679 l 1,0,-1
EndSplineSet
EndChar

StartChar: plusminus
Encoding: 177 177 78
Width: 455
Flags: HW
LayerCount: 2
Fore
SplineSet
189 487 m 1,0,-1
 189 604 l 1,1,-1
 265 604 l 1,2,-1
 265 487 l 1,3,-1
 392 487 l 1,4,-1
 392 411 l 1,5,-1
 265 411 l 1,6,-1
 265 282 l 1,7,-1
 189 282 l 1,8,-1
 189 411 l 1,9,-1
 63 411 l 1,10,-1
 63 487 l 1,11,-1
 189 487 l 1,0,-1
392 245 m 1,12,-1
 392 169 l 1,13,-1
 63 169 l 1,14,-1
 63 245 l 1,15,-1
 392 245 l 1,12,-1
EndSplineSet
EndChar

StartChar: dieresis
Encoding: 168 168 79
Width: 386
Flags: HW
LayerCount: 2
Fore
SplineSet
216 609 m 256,0,1
 216 632 216 632 233.5 650 c 128,-1,2
 251 668 251 668 275.5 668 c 128,-1,3
 300 668 300 668 317 650 c 128,-1,4
 334 632 334 632 334 608.5 c 128,-1,5
 334 585 334 585 316.5 567.5 c 128,-1,6
 299 550 299 550 275.5 550 c 128,-1,7
 252 550 252 550 234 568 c 128,-1,8
 216 586 216 586 216 609 c 256,0,1
69 567.5 m 128,-1,10
 52 585 52 585 52 608.5 c 128,-1,11
 52 632 52 632 68.5 650 c 128,-1,12
 85 668 85 668 109.5 668 c 128,-1,13
 134 668 134 668 151.5 650 c 128,-1,14
 169 632 169 632 169 608 c 128,-1,15
 169 584 169 584 151 567 c 128,-1,16
 133 550 133 550 109.5 550 c 128,-1,9
 86 550 86 550 69 567.5 c 128,-1,10
EndSplineSet
EndChar

StartChar: brokenbar
Encoding: 166 166 80
Width: 258
Flags: HW
LayerCount: 2
Fore
SplineSet
177 194 m 1,0,-1
 177 -186 l 1,1,-1
 81 -186 l 1,2,-1
 81 194 l 1,3,-1
 177 194 l 1,0,-1
177 690 m 1,4,-1
 177 310 l 1,5,-1
 81 310 l 1,6,-1
 81 690 l 1,7,-1
 177 690 l 1,4,-1
EndSplineSet
EndChar

StartChar: grave
Encoding: 96 96 81
Width: 302
Flags: HW
LayerCount: 2
Fore
SplineSet
52 632 m 1,0,-1
 112 703 l 1,1,-1
 143 695 l 1,2,-1
 250 537 l 1,3,-1
 213 500 l 1,4,-1
 52 632 l 1,0,-1
EndSplineSet
EndChar

StartChar: acute
Encoding: 180 180 82
Width: 313
Flags: HW
LayerCount: 2
Fore
SplineSet
168 700 m 1,0,-1
 200 708 l 1,1,-1
 261 627 l 1,2,-1
 93 505 l 1,3,-1
 52 549 l 1,4,-1
 168 700 l 1,0,-1
EndSplineSet
EndChar

StartChar: underscore
Encoding: 95 95 83
Width: 563
Flags: HW
LayerCount: 2
Fore
SplineSet
5 -13 m 1,0,-1
 19 0 l 1,1,-1
 552 0 l 2,2,3
 558 0 558 0 558 -7 c 2,4,-1
 558 -75 l 1,5,-1
 5 -75 l 1,6,-1
 5 -13 l 1,0,-1
EndSplineSet
EndChar

StartChar: exclamdown
Encoding: 161 161 84
Width: 254
Flags: HW
LayerCount: 2
Fore
SplineSet
84 391 m 128,-1,1
 67 408 67 408 67 433 c 128,-1,2
 67 458 67 458 84 475 c 128,-1,3
 101 492 101 492 125.5 492 c 128,-1,4
 150 492 150 492 168 474.5 c 128,-1,5
 186 457 186 457 186 433 c 128,-1,6
 186 409 186 409 168 391.5 c 128,-1,7
 150 374 150 374 125.5 374 c 128,-1,0
 101 374 101 374 84 391 c 128,-1,1
91 251 m 1,8,-1
 160 251 l 1,9,-1
 197 -164 l 1,10,-1
 176 -202 l 1,11,-1
 59 -189 l 1,12,-1
 91 251 l 1,8,-1
EndSplineSet
EndChar

StartChar: questiondown
Encoding: 191 191 85
Width: 391
Flags: HW
LayerCount: 2
Fore
SplineSet
289.5 469.5 m 128,-1,1
 307 452 307 452 307 427.5 c 128,-1,2
 307 403 307 403 289 386 c 128,-1,3
 271 369 271 369 246 369 c 128,-1,4
 221 369 221 369 204.5 386 c 128,-1,5
 188 403 188 403 188 428 c 128,-1,6
 188 453 188 453 205 470 c 128,-1,7
 222 487 222 487 247 487 c 256,8,0
 272 487 272 487 289.5 469.5 c 128,-1,1
211 247 m 1,9,-1
 290 248 l 1,10,-1
 292 238 l 2,11,12
 295 223 295 223 295 195 c 128,-1,13
 295 167 295 167 282.5 143 c 128,-1,14
 270 119 270 119 251.5 100.5 c 128,-1,15
 233 82 233 82 211.5 67.5 c 128,-1,16
 190 53 190 53 171.5 36.5 c 0,17,18
 128 -2.2972972973 128 -2.2972972973 128 -48 c 0,19,20
 128 -96.4 128 -96.4 170 -116 c 0,21,22
 185 -123 185 -123 204.5 -123 c 0,23,24
 245.25 -123 245.25 -123 270 -114 c 1,25,-1
 296 -19 l 1,26,-1
 357 -19 l 1,27,-1
 340 -177 l 1,28,29
 308 -188 308 -188 273.5 -197 c 128,-1,30
 239 -206 239 -206 195 -206 c 0,31,32
 112 -206 112 -206 67.5 -165 c 128,-1,33
 23 -124 23 -124 23 -61.5 c 128,-1,34
 23 1 23 1 51 42 c 128,-1,35
 79 83 79 83 121.5 114.5 c 128,-1,36
 164 146 164 146 187.5 171.5 c 128,-1,37
 211 197 211 197 211 235 c 2,38,-1
 211 247 l 1,9,-1
EndSplineSet
EndChar

StartChar: Acircumflex
Encoding: 194 194 86
Width: 608
Flags: HW
LayerCount: 2
Fore
SplineSet
-1 62 m 1,0,-1
 51 80 l 1,1,-1
 253 691 l 1,2,-1
 349 691 l 1,3,-1
 562 80 l 1,4,-1
 608 62 l 1,5,-1
 597 0 l 1,6,-1
 362 0 l 1,7,-1
 362 59 l 1,8,-1
 450 80 l 1,9,-1
 402 228 l 1,10,-1
 188 228 l 1,11,-1
 142 80 l 1,12,-1
 228 60 l 1,13,-1
 228 0 l 1,14,-1
 12 0 l 1,15,-1
 -1 62 l 1,0,-1
317 894 m 1,16,-1
 473 731 l 1,17,-1
 471 726 l 1,18,-1
 390 726 l 1,19,-1
 303 785 l 1,20,-1
 217 726 l 1,21,-1
 137 726 l 1,22,-1
 134 732 l 1,23,-1
 291 894 l 1,24,-1
 317 894 l 1,16,-1
214 314 m 1,25,-1
 374 314 l 1,26,-1
 292 565 l 1,27,-1
 214 314 l 1,25,-1
EndSplineSet
EndChar

StartChar: at
Encoding: 64 64 87
Width: 831
Flags: HW
LayerCount: 2
Fore
SplineSet
437.75 -47 m 0,0,1
 507.5 -47 507.5 -47 555 -28 c 1,2,-1
 573 -32 l 1,3,-1
 545 -118 l 1,4,5
 496.25 -133 496.25 -133 417.625 -133 c 128,-1,6
 339 -133 339 -133 267.5 -105.5 c 128,-1,7
 196 -78 196 -78 143.5 -26.5 c 0,8,9
 31 83.8571428571 31 83.8571428571 31 270 c 0,10,11
 31 360 31 360 63.5 431 c 128,-1,12
 96 502 96 502 150.5 551.5 c 0,13,14
 262.252525253 653 262.252525253 653 427 653 c 256,15,16
 585.768421053 653 585.768421053 653 690.5 552.5 c 0,17,18
 740 505 740 505 768.5 440 c 128,-1,19
 797 375 797 375 797 312.5 c 128,-1,20
 797 250 797 250 783.5 204.5 c 128,-1,21
 770 159 770 159 745 124.5 c 0,22,23
 689.565217391 48 689.565217391 48 604 48 c 0,24,25
 545.571428571 48 545.571428571 48 519 79 c 1,26,27
 471.090909091 48 471.090909091 48 411 48 c 0,28,29
 330.470588235 48 330.470588235 48 277 98.5 c 0,30,31
 218 154.222222222 218 154.222222222 218 254 c 0,32,33
 218 367.238095238 218 367.238095238 292.5 424 c 0,34,35
 348.9375 467 348.9375 467 425 467 c 0,36,37
 477.8 467 477.8 467 524 445 c 1,38,-1
 560 459 l 1,39,-1
 587 450 l 1,40,-1
 587 164 l 2,41,42
 587 143 587 143 595 137 c 128,-1,43
 603 131 603 131 616 131 c 128,-1,44
 629 131 629 131 645 143 c 128,-1,45
 661 155 661 155 674 177.5 c 0,46,47
 703 227.692307692 703 227.692307692 703 292.846153846 c 128,-1,48
 703 358 703 358 684 407.5 c 128,-1,49
 665 457 665 457 629.5 492.5 c 0,50,51
 554 568 554 568 428 568 c 0,52,53
 298.139240506 568 298.139240506 568 211.5 483.5 c 0,54,55
 126 400.111111111 126 400.111111111 126 268 c 0,56,57
 126 115.108433735 126 115.108433735 215.5 31 c 0,58,59
 298.5 -47 298.5 -47 437.75 -47 c 0,0,1
436.2 122 m 0,60,61
 466.4 122 466.4 122 494 145 c 1,62,63
 493 155 493 155 493 164 c 2,64,-1
 493 379 l 1,65,66
 463 394 463 394 435 394 c 128,-1,67
 407 394 407 394 386 386 c 128,-1,68
 365 378 365 378 349 361.5 c 0,69,70
 314 325.40625 314 325.40625 314 258 c 0,71,72
 314 188.64516129 314 188.64516129 349.5 152 c 0,73,74
 378.5625 122 378.5625 122 436.2 122 c 0,60,61
EndSplineSet
EndChar

StartChar: slash
Encoding: 47 47 88
Width: 461
Flags: HW
LayerCount: 2
Fore
SplineSet
440 690 m 1,0,-1
 439 676 l 1,1,-1
 111 0 l 1,2,-1
 25 0 l 1,3,-1
 22 13 l 1,4,-1
 350 690 l 1,5,-1
 440 690 l 1,0,-1
EndSplineSet
EndChar

StartChar: backslash
Encoding: 92 92 89
Width: 460
Flags: HW
LayerCount: 2
Fore
SplineSet
21 691 m 1,0,-1
 110 691 l 1,1,-1
 439 13 l 1,2,-1
 431 0 l 1,3,-1
 350 0 l 1,4,-1
 21 679 l 1,5,-1
 21 691 l 1,0,-1
EndSplineSet
EndChar

StartChar: numbersign
Encoding: 35 35 90
Width: 646
Flags: HW
LayerCount: 2
Fore
SplineSet
70 483 m 1,0,-1
 83 506 l 1,1,-1
 248 506 l 1,2,-1
 317 691 l 1,3,-1
 383 691 l 1,4,-1
 394 677 l 1,5,-1
 330 506 l 1,6,-1
 431 506 l 1,7,-1
 498 691 l 1,8,-1
 564 691 l 1,9,-1
 575 677 l 1,10,-1
 513 506 l 1,11,-1
 607 506 l 2,12,13
 613 506 613 506 613 498 c 2,14,-1
 613 431 l 1,15,-1
 485 431 l 1,16,-1
 444 317 l 1,17,-1
 566 317 l 2,18,19
 572 317 572 317 572 309 c 2,20,-1
 572 242 l 1,21,-1
 416 242 l 1,22,-1
 346 48 l 1,23,-1
 280 48 l 1,24,-1
 269 61 l 1,25,-1
 335 242 l 1,26,-1
 233 242 l 1,27,-1
 162 48 l 1,28,-1
 96 48 l 1,29,-1
 85 61 l 1,30,-1
 151 242 l 1,31,-1
 42 242 l 1,32,-1
 29 294 l 1,33,-1
 42 317 l 1,34,-1
 179 317 l 1,35,-1
 221 431 l 1,36,-1
 83 431 l 1,37,-1
 70 483 l 1,0,-1
261 317 m 1,38,-1
 362 317 l 1,39,-1
 403 431 l 1,40,-1
 303 431 l 1,41,-1
 261 317 l 1,38,-1
EndSplineSet
EndChar

StartChar: ampersand
Encoding: 38 38 91
Width: 672
Flags: HW
LayerCount: 2
Fore
SplineSet
675 29 m 1,0,1
 637.181818182 -3 637.181818182 -3 573.174242424 -3 c 128,-1,2
 509.166666667 -3 509.166666667 -3 431 64 c 1,3,4
 358.310344828 -4 358.310344828 -4 253 -4 c 0,5,6
 156.714285714 -4 156.714285714 -4 93.5 56 c 0,7,8
 32 114.372881356 32 114.372881356 32 201 c 0,9,10
 32 307.25 32 307.25 158 407 c 1,11,12
 104 499.25 104 499.25 104 563 c 0,13,14
 104 636 104 636 150.5 682.5 c 0,15,16
 199 731 199 731 269.5 731 c 128,-1,17
 340 731 340 731 380 691.5 c 128,-1,18
 420 652 420 652 420 591 c 0,19,20
 420 499.52 420 499.52 292 392 c 1,21,22
 335.377358491 332.641509434 335.377358491 332.641509434 381 280 c 1,23,-1
 433 218 l 1,24,25
 459 272 459 272 471 328 c 1,26,-1
 426 328 l 1,27,-1
 410 398 l 1,28,-1
 566 398 l 1,29,-1
 577 384 l 1,30,31
 555.19047619 253.142857143 555.19047619 253.142857143 504 161 c 1,32,-1
 496 148 l 1,33,34
 555.952606635 85.6492890995 555.952606635 85.6492890995 573 81 c 1,35,36
 577.2 82.4 577.2 82.4 585.6 88.7 c 128,-1,37
 594 95 594 95 604 102 c 2,38,-1
 633 121 l 1,39,-1
 675 29 l 1,0,1
367 128 m 1,40,41
 284.058823529 224.764705882 284.058823529 224.764705882 203 337 c 1,42,43
 172 307 172 307 154 275.5 c 128,-1,44
 136 244 136 244 136 196.5 c 128,-1,45
 136 149 136 149 169.5 115.5 c 128,-1,46
 203 82 203 82 260.954545455 82 c 128,-1,47
 318.909090909 82 318.909090909 82 367 128 c 1,40,41
247 457 m 1,48,49
 325 528.314285714 325 528.314285714 325 591 c 256,50,51
 325 623 325 623 307.5 639.5 c 128,-1,52
 290 656 290 656 260.5 656 c 128,-1,53
 231 656 231 656 215 633.5 c 128,-1,54
 199 611 199 611 199 583 c 0,55,56
 199 535 199 535 247 457 c 1,48,49
EndSplineSet
EndChar

StartChar: parenleft
Encoding: 40 40 92
Width: 276
Flags: HW
LayerCount: 2
Fore
SplineSet
153 -147 m 1,0,1
 89.6222222222 -20.2444444444 89.6222222222 -20.2444444444 62 148 c 0,2,3
 51 215 51 215 51 293 c 128,-1,4
 51 371 51 371 62 440.5 c 128,-1,5
 73 510 73 510 89 567 c 0,6,7
 116.648261759 665.496932515 116.648261759 665.496932515 160 742 c 1,8,-1
 244 742 l 1,9,10
 179.06122449 612.12244898 179.06122449 612.12244898 155 433 c 0,11,12
 146 366 146 366 146 290 c 128,-1,13
 146 214 146 214 156.5 145.5 c 128,-1,14
 167 77 167 77 182 19.5 c 0,15,16
 203.056074766 -61.214953271 203.056074766 -61.214953271 244 -162 c 1,17,-1
 160 -162 l 1,18,-1
 153 -147 l 1,0,1
EndSplineSet
EndChar

StartChar: parenright
Encoding: 41 41 93
Width: 276
Flags: HW
LayerCount: 2
Fore
SplineSet
116 742 m 1,0,1
 225 537.625 225 537.625 225 290 c 0,2,3
 225 160.483870968 225 160.483870968 187.5 25 c 0,4,5
 164.829931973 -56.9047619048 164.829931973 -56.9047619048 123 -147 c 2,6,-1
 116 -162 l 1,7,-1
 32 -162 l 1,8,9
 72.9439252336 -61.214953271 72.9439252336 -61.214953271 90.9719626168 7.89252336449 c 0,10,11
 130 157.5 130 157.5 130 291 c 0,12,13
 130 546 130 546 32 742 c 1,14,-1
 116 742 l 1,0,1
EndSplineSet
EndChar

StartChar: less
Encoding: 60 60 94
Width: 423
Flags: HW
LayerCount: 2
Fore
SplineSet
125 339 m 1,0,-1
 356 201 l 1,1,-1
 356 104 l 1,2,-1
 29 306 l 1,3,-1
 29 374 l 1,4,-1
 356 572 l 1,5,-1
 356 478 l 1,6,-1
 125 339 l 1,0,-1
EndSplineSet
EndChar

StartChar: greater
Encoding: 62 62 95
Width: 423
Flags: HW
LayerCount: 2
Fore
SplineSet
394 374 m 1,0,-1
 394 306 l 1,1,-1
 67 104 l 1,2,-1
 67 201 l 1,3,-1
 298 339 l 1,4,-1
 67 478 l 1,5,-1
 67 572 l 1,6,-1
 394 374 l 1,0,-1
EndSplineSet
EndChar

StartChar: asciicircum
Encoding: 94 94 96
Width: 443
Flags: HW
LayerCount: 2
Fore
SplineSet
235 724 m 1,0,-1
 391 561 l 1,1,-1
 389 556 l 1,2,-1
 308 556 l 1,3,-1
 221 615 l 1,4,-1
 135 556 l 1,5,-1
 55 556 l 1,6,-1
 52 562 l 1,7,-1
 209 724 l 1,8,-1
 235 724 l 1,0,-1
EndSplineSet
EndChar

StartChar: braceleft
Encoding: 123 123 97
Width: 337
Flags: HW
LayerCount: 2
Fore
SplineSet
116 38 m 1,0,-1
 118 135 l 1,1,2
 118 204.075 118 204.075 49 226.5 c 0,3,4
 29 233 29 233 7 233 c 1,5,-1
 7 316 l 1,6,7
 55 316 55 316 86.5 344 c 128,-1,8
 118 372 118 372 118 426 c 1,9,-1
 117 464 l 1,10,-1
 116 509 l 1,11,12
 116 609.225806452 116 609.225806452 141.5 652 c 0,13,14
 173.692307692 706 173.692307692 706 265 706 c 0,15,16
 291 706 291 706 314.5 701.5 c 128,-1,17
 338 697 338 697 339 696.5 c 128,-1,18
 340 696 340 696 342 696 c 1,19,-1
 312 600 l 1,20,-1
 241 624 l 1,21,22
 210 606.777777778 210 606.777777778 210 526 c 2,23,-1
 211 426 l 1,24,25
 211 280.777777778 211 280.777777778 106 273 c 1,26,27
 211 269.111111111 211 269.111111111 211 121 c 1,28,-1
 210 33 l 2,29,30
 210 -37.3333333333 210 -37.3333333333 224 -63 c 0,31,32
 230 -74 230 -74 241 -79 c 1,33,-1
 312 -55 l 1,34,-1
 342 -151 l 1,35,36
 283.333333333 -162 283.333333333 -162 265 -162 c 0,37,38
 176.428571429 -162 176.428571429 -162 141 -100 c 0,39,40
 116 -56.25 116 -56.25 116 38 c 1,0,-1
EndSplineSet
EndChar

StartChar: braceright
Encoding: 125 125 98
Width: 337
Flags: HW
LayerCount: 2
Fore
SplineSet
-5 696 m 1,0,1
 55 706 55 706 88 706 c 128,-1,2
 121 706 121 706 150 692 c 128,-1,3
 179 678 179 678 195 652 c 0,4,5
 221 609.75 221 609.75 221 509 c 1,6,-1
 220 464 l 1,7,-1
 219 426 l 1,8,9
 219 372 219 372 250.5 344 c 128,-1,10
 282 316 282 316 330 316 c 1,11,-1
 330 233 l 1,12,13
 284.791666667 233 284.791666667 233 252.5 208 c 0,14,15
 219 182.064516129 219 182.064516129 219 135 c 2,16,-1
 221 38 l 1,17,18
 221 -56.25 221 -56.25 196 -100 c 0,19,20
 160.571428571 -162 160.571428571 -162 72 -162 c 0,21,22
 51 -162 51 -162 31 -158 c 128,-1,23
 11 -154 11 -154 -5 -151 c 1,24,-1
 25 -55 l 1,25,-1
 96 -79 l 1,26,27
 127 -64.9090909091 127 -64.9090909091 127 33 c 1,28,-1
 126 121 l 1,29,30
 126 270.218181818 126 270.218181818 232 276 c 1,31,32
 126 276 126 276 126 426 c 1,33,-1
 127 526 l 2,34,35
 127 606.777777778 127 606.777777778 96 624 c 1,36,-1
 25 600 l 1,37,-1
 -5 696 l 1,0,1
EndSplineSet
EndChar

StartChar: asciitilde
Encoding: 126 126 99
Width: 410
Flags: HW
LayerCount: 2
Fore
SplineSet
391 611 m 1,0,1
 337.619047619 552 337.619047619 552 287 552 c 0,2,3
 259.733333333 552 259.733333333 552 229.866666667 566 c 128,-1,4
 200 580 200 580 183 586.5 c 128,-1,5
 166 593 166 593 144 593 c 128,-1,6
 122 593 122 593 106.5 577.5 c 128,-1,7
 91 562 91 562 84 544 c 1,8,-1
 25 579 l 1,9,-1
 26 592 l 1,10,11
 42.8868613139 628.186131387 42.8868613139 628.186131387 62.9434306569 644.093065693 c 0,12,13
 101.913043478 675 101.913043478 675 143 675 c 0,14,15
 176.555555556 675 176.555555556 675 220 652 c 1,16,-1
 251 637 l 2,17,18
 265 630 265 630 277 630 c 1,19,-1
 332 679 l 1,20,-1
 391 611 l 1,0,1
EndSplineSet
EndChar

StartChar: dollar
Encoding: 36 36 100
Width: 482
Flags: HW
LayerCount: 2
Fore
SplineSet
198 -3 m 1,0,1
 108.9 1.05 108.9 1.05 43 34 c 1,2,-1
 43 203 l 1,3,-1
 115 203 l 1,4,-1
 133 96 l 1,5,6
 175.666666667 80 175.666666667 80 219 80 c 256,7,8
 304.578947368 80 304.578947368 80 337 136 c 0,9,10
 348 155 348 155 348 185.5 c 128,-1,11
 348 216 348 216 329.5 240.5 c 128,-1,12
 311 265 311 265 268.5 286 c 128,-1,13
 226 307 226 307 184.5 324 c 128,-1,14
 143 341 143 341 109.5 364.5 c 128,-1,15
 76 388 76 388 54.5 422.5 c 128,-1,16
 33 457 33 457 33 502 c 128,-1,17
 33 547 33 547 45.5 576 c 128,-1,18
 58 605 58 605 80 627 c 0,19,20
 124.25 671.25 124.25 671.25 198 686 c 1,21,-1
 198 874 l 1,22,-1
 288 874 l 1,23,-1
 288 690 l 1,24,25
 355.00990099 684.415841584 355.00990099 684.415841584 421 661 c 1,26,-1
 435 489 l 1,27,-1
 366 489 l 1,28,-1
 322 597 l 1,29,30
 292 607 292 607 246.5 607 c 128,-1,31
 201 607 201 607 169.5 586 c 128,-1,32
 138 565 138 565 138 522 c 0,33,34
 138 472.454545455 138 472.454545455 188 439.5 c 0,35,36
 210 425 210 425 237 413.5 c 128,-1,37
 264 402 264 402 299.5 386 c 128,-1,38
 335 370 335 370 366 348 c 128,-1,39
 397 326 397 326 416 302 c 0,40,41
 452 256.526315789 452 256.526315789 452 203.763157895 c 128,-1,42
 452 151 452 151 439 118.5 c 128,-1,43
 426 86 426 86 403.5 62.5 c 0,44,45
 360.247572816 17.3252427184 360.247572816 17.3252427184 288 2 c 1,46,-1
 288 -192 l 1,47,-1
 198 -192 l 1,48,-1
 198 -3 l 1,0,1
EndSplineSet
EndChar

StartChar: divide
Encoding: 247 247 101
Width: 419
Flags: HW
LayerCount: 2
Fore
SplineSet
175.5 99.5 m 128,-1,1
 160 116 160 116 160 138.5 c 128,-1,2
 160 161 160 161 175.5 177 c 128,-1,3
 191 193 191 193 214.5 193 c 128,-1,4
 238 193 238 193 254 176.5 c 128,-1,5
 270 160 270 160 270 137.5 c 128,-1,6
 270 115 270 115 253.5 99 c 128,-1,7
 237 83 237 83 214 83 c 128,-1,0
 191 83 191 83 175.5 99.5 c 128,-1,1
175.5 408 m 128,-1,9
 160 424 160 424 160 447 c 128,-1,10
 160 470 160 470 175.5 486 c 128,-1,11
 191 502 191 502 214.5 502 c 128,-1,12
 238 502 238 502 254 485.5 c 128,-1,13
 270 469 270 469 270 446.5 c 128,-1,14
 270 424 270 424 253.5 408 c 128,-1,15
 237 392 237 392 214 392 c 128,-1,8
 191 392 191 392 175.5 408 c 128,-1,9
374 330 m 1,16,-1
 374 254 l 1,17,-1
 45 254 l 1,18,-1
 45 330 l 1,19,-1
 374 330 l 1,16,-1
EndSplineSet
EndChar

StartChar: multiply
Encoding: 215 215 102
Width: 478
Flags: HW
LayerCount: 2
Fore
SplineSet
293 353 m 1,0,-1
 426 221 l 1,1,-1
 373 168 l 1,2,-1
 240 300 l 1,3,-1
 105 165 l 1,4,-1
 52 219 l 1,5,-1
 187 354 l 1,6,-1
 49 492 l 1,7,-1
 102 545 l 1,8,-1
 240 407 l 1,9,-1
 374 541 l 1,10,-1
 428 488 l 1,11,-1
 293 353 l 1,0,-1
EndSplineSet
EndChar

StartChar: cent
Encoding: 162 162 103
Width: 437
Flags: HW
LayerCount: 2
Fore
SplineSet
391 42 m 1,0,1
 346.842105263 8.88157894737 346.842105263 8.88157894737 290 0 c 1,2,-1
 290 -210 l 1,3,-1
 200 -210 l 1,4,-1
 200 0 l 1,5,6
 126.826536823 15.0651247718 126.826536823 15.0651247718 81.5 71 c 0,7,8
 31 133.319148936 31 133.319148936 31 233 c 0,9,10
 31 346.85106383 31 346.85106383 82.5 411.5 c 0,11,12
 127.340540541 467.789189189 127.340540541 467.789189189 200 481 c 1,13,-1
 200 686 l 1,14,-1
 290 686 l 1,15,-1
 290 481 l 1,16,17
 336.54 472.05 336.54 472.05 372 442.5 c 0,18,19
 395.482758621 422.931034483 395.482758621 422.931034483 411 395 c 1,20,-1
 312 348 l 1,21,-1
 280 406 l 1,22,23
 260 411 260 411 247 411 c 0,24,25
 126 411 126 411 126 235 c 0,26,27
 126 160 126 160 162.5 115.5 c 128,-1,28
 199 71 199 71 259 71 c 0,29,30
 287 71 287 71 318 81.5 c 128,-1,31
 349 92 349 92 369 112 c 1,32,-1
 391 42 l 1,0,1
EndSplineSet
EndChar

StartChar: oslash
Encoding: 248 248 104
Width: 494
Flags: HW
LayerCount: 2
Fore
SplineSet
114 45 m 1,0,1
 36 112.459459459 36 112.459459459 36 243 c 0,2,3
 36 355.586206897 36 355.586206897 100 424 c 0,4,5
 158 486 158 486 248 486 c 0,6,7
 277.5 486 277.5 486 309 477 c 1,8,-1
 362 593 l 1,9,-1
 447 593 l 1,10,11
 446 580 l 1,12,-1
 382 438 l 1,13,14
 459 369.555555556 459 369.555555556 459 243 c 0,15,16
 459 127.305084746 459 127.305084746 395.5 59.5 c 0,17,18
 336.031746032 -4 336.031746032 -4 248 -4 c 0,19,20
 217.5 -4 217.5 -4 186 5 c 1,21,-1
 140 -98 l 1,22,-1
 58 -98 l 1,23,-1
 55 -85 l 1,24,-1
 114 45 l 1,0,1
331.5 111.5 m 128,-1,26
 364 152 364 152 364 228.5 c 128,-1,27
 364 305 364 305 341 348 c 1,28,-1
 218 75 l 1,29,30
 230 71 230 71 248 71 c 0,31,25
 299 71 299 71 331.5 111.5 c 128,-1,26
277 405 m 1,32,33
 263 409 263 409 248 409 c 0,34,35
 190 409 190 409 160.5 361 c 128,-1,36
 131 313 131 313 131 241 c 128,-1,37
 131 169 131 169 152 130 c 1,38,-1
 277 405 l 1,32,33
EndSplineSet
EndChar

StartChar: percent
Encoding: 37 37 105
Width: 719
Flags: HW
LayerCount: 2
Fore
SplineSet
31 517 m 0,0,1
 31 547 31 547 39.5 577.5 c 128,-1,2
 48 608 48 608 65 633 c 0,3,4
 103.76 690 103.76 690 172 690 c 0,5,6
 239.583333333 690 239.583333333 690 277.5 638 c 0,7,8
 313 589.314285714 313 589.314285714 313 518 c 0,9,10
 313 442.945945946 313 442.945945946 274.5 393 c 0,11,12
 235.1875 342 235.1875 342 172 342 c 0,13,14
 102.333333333 342 102.333333333 342 64 399.5 c 0,15,16
 31 449 31 449 31 517 c 0,0,1
122.5 593.5 m 128,-1,18
 105 562 105 562 105 516.5 c 128,-1,19
 105 471 105 471 123.5 439.5 c 128,-1,20
 142 408 142 408 172 408 c 256,21,22
 202 408 202 408 220 440 c 128,-1,23
 238 472 238 472 238 517.5 c 128,-1,24
 238 563 238 563 220.5 594 c 128,-1,25
 203 625 203 625 171.5 625 c 128,-1,17
 140 625 140 625 122.5 593.5 c 128,-1,18
408 170 m 256,26,27
 408 237.5 408 237.5 442 286.5 c 0,28,29
 481.204081633 343 481.204081633 343 548 343 c 256,30,31
 615.854166667 343 615.854166667 343 654.5 290 c 0,32,33
 689 242.685714286 689 242.685714286 689 170 c 0,34,35
 689 96.1111111111 689 96.1111111111 651 46.5 c 0,36,37
 612.319148936 -4 612.319148936 -4 548 -4 c 0,38,39
 479.76 -4 479.76 -4 441 53 c 0,40,41
 408 101.529411765 408 101.529411765 408 170 c 256,26,27
499.5 246.5 m 128,-1,43
 483 215 483 215 483 169 c 128,-1,44
 483 123 483 123 501 92 c 128,-1,45
 519 61 519 61 549 61 c 128,-1,46
 579 61 579 61 596.5 92.5 c 128,-1,47
 614 124 614 124 614 170 c 256,48,49
 614 216 614 216 596.5 247 c 128,-1,50
 579 278 579 278 547.5 278 c 128,-1,42
 516 278 516 278 499.5 246.5 c 128,-1,43
615 691 m 1,51,-1
 619 677 l 1,52,-1
 181 0 l 1,53,-1
 94 0 l 1,54,-1
 88 13 l 1,55,-1
 531 691 l 1,56,-1
 615 691 l 1,51,-1
EndSplineSet
EndChar

StartChar: sterling
Encoding: 163 163 106
Width: 527
Flags: HW
LayerCount: 2
Fore
SplineSet
150 413 m 1,0,-1
 148 507 l 1,1,2
 148 648.457627119 148 648.457627119 247.5 680.5 c 0,3,4
 277 690 277 690 308.5 690 c 128,-1,5
 340 690 340 690 364.5 684 c 128,-1,6
 389 678 389 678 409 669.5 c 0,7,8
 441.307692308 655.769230769 441.307692308 655.769230769 465 638 c 1,9,-1
 394 547 l 1,10,-1
 314 615 l 1,11,12
 267.071868583 613.195071869 267.071868583 613.195071869 253 575 c 0,13,14
 244 550.571428571 244 550.571428571 244 465 c 2,15,-1
 244 413 l 1,16,-1
 384 413 l 2,17,18
 391 413 391 413 391 405 c 2,19,-1
 391 338 l 1,20,-1
 241 338 l 1,21,22
 233.630501535 202.892528147 233.630501535 202.892528147 201 136 c 1,23,24
 256.465116279 132.302325581 256.465116279 132.302325581 355 96 c 0,25,26
 374 89 374 89 385 89 c 1,27,-1
 461 140 l 1,28,-1
 500 34 l 1,29,30
 465.454545455 -4 465.454545455 -4 387 -4 c 0,31,32
 337.823529412 -4 337.823529412 -4 290.411764706 11.5 c 128,-1,33
 243 27 243 27 220 34 c 128,-1,34
 197 41 197 41 170 41 c 128,-1,35
 143 41 143 41 126.5 27 c 128,-1,36
 110 13 110 13 105 -3 c 1,37,-1
 32 -3 l 1,38,39
 31 -1 31 -1 31 2 c 0,40,41
 30 5 30 5 30 20.5 c 128,-1,42
 30 36 30 36 40.5 58.5 c 128,-1,43
 51 81 51 81 72 99 c 1,44,45
 112 139 112 139 127.5 203 c 128,-1,46
 143 267 143 267 147 338 c 1,47,-1
 58 338 l 1,48,-1
 58 404 l 1,49,-1
 66 413 l 1,50,-1
 150 413 l 1,0,-1
EndSplineSet
EndChar

StartChar: Agrave
Encoding: 192 192 107
Width: 608
Flags: HW
LayerCount: 2
Fore
SplineSet
362 59 m 1,0,-1
 450 80 l 1,1,-1
 402 230 l 1,2,-1
 188 230 l 1,3,-1
 142 80 l 1,4,-1
 228 60 l 1,5,-1
 228 0 l 1,6,-1
 12 0 l 1,7,-1
 -1 62 l 1,8,-1
 51 80 l 1,9,-1
 253 691 l 1,10,-1
 349 691 l 1,11,-1
 562 80 l 1,12,-1
 608 62 l 1,13,-1
 597 0 l 1,14,-1
 362 0 l 1,15,-1
 362 59 l 1,0,-1
189 843 m 1,16,-1
 245 925 l 1,17,-1
 279 919 l 1,18,-1
 419 764 l 1,19,-1
 382 720 l 1,20,-1
 189 843 l 1,16,-1
214 314 m 1,21,-1
 374 314 l 1,22,-1
 292 565 l 1,23,-1
 214 314 l 1,21,-1
EndSplineSet
EndChar

StartChar: Egrave
Encoding: 200 200 108
Width: 539
Flags: HW
LayerCount: 2
Fore
SplineSet
147 843 m 1,0,-1
 204 925 l 1,1,-1
 238 919 l 1,2,-1
 377 764 l 1,3,-1
 341 720 l 1,4,-1
 147 843 l 1,0,-1
49 691 m 1,5,-1
 475 691 l 1,6,-1
 495 503 l 1,7,-1
 432 503 l 1,8,-1
 394 605 l 1,9,-1
 208 605 l 1,10,-1
 208 395 l 1,11,-1
 366 395 l 1,12,-1
 366 309 l 1,13,-1
 208 309 l 1,14,-1
 208 86 l 1,15,-1
 404 86 l 1,16,-1
 439 187 l 1,17,-1
 502 187 l 1,18,-1
 482 0 l 1,19,-1
 58 0 l 1,20,-1
 48 71 l 1,21,-1
 109 84 l 1,22,-1
 109 611 l 1,23,-1
 49 616 l 1,24,-1
 49 691 l 1,5,-1
EndSplineSet
EndChar

StartChar: Igrave
Encoding: 204 204 109
Width: 320
Flags: HW
LayerCount: 2
Fore
SplineSet
38 843 m 1,0,-1
 95 925 l 1,1,-1
 127 919 l 1,2,-1
 267 764 l 1,3,-1
 231 720 l 1,4,-1
 38 843 l 1,0,-1
110 610 m 1,5,-1
 47 615 l 1,6,-1
 47 691 l 1,7,-1
 265 691 l 1,8,-1
 275 616 l 1,9,-1
 210 606 l 1,10,-1
 210 81 l 1,11,-1
 275 73 l 1,12,-1
 275 0 l 1,13,-1
 56 0 l 1,14,-1
 38 72 l 1,15,-1
 110 83 l 1,16,-1
 110 610 l 1,5,-1
EndSplineSet
EndChar

StartChar: Ograve
Encoding: 210 210 110
Width: 651
Flags: HW
LayerCount: 2
Fore
SplineSet
148 342 m 256,0,1
 148 233.837209302 148 233.837209302 191.5 161 c 0,2,3
 238.680555556 82 238.680555556 82 325 82 c 256,4,5
 411.722222222 82 411.722222222 82 460 161 c 0,6,7
 504 233 504 233 504 342 c 256,8,9
 504 452.5 504 452.5 460 525.5 c 0,10,11
 411.479452055 606 411.479452055 606 325 606 c 256,12,13
 238.917808219 606 238.917808219 606 191.5 525.5 c 0,14,15
 148 451.651162791 148 451.651162791 148 342 c 256,0,1
325 -4 m 256,16,17
 188.833333333 -4 188.833333333 -4 113 100 c 0,18,19
 43 196 43 196 43 344 c 256,20,21
 43 492 43 492 113 588 c 0,22,23
 188.833333333 692 188.833333333 692 325 692 c 256,24,25
 460.583333333 692 460.583333333 692 537.5 588 c 0,26,27
 609 491.323943662 609 491.323943662 609 344 c 256,28,29
 609 196.676056338 609 196.676056338 537.5 100 c 0,30,31
 460.583333333 -4 460.583333333 -4 325 -4 c 256,16,17
209 843 m 1,32,-1
 265 925 l 1,33,-1
 298 919 l 1,34,-1
 438 764 l 1,35,-1
 402 720 l 1,36,-1
 209 843 l 1,32,-1
EndSplineSet
EndChar

StartChar: Ugrave
Encoding: 217 217 111
Width: 638
Flags: HW
LayerCount: 2
Fore
SplineSet
205 843 m 1,0,-1
 261 925 l 1,1,-1
 295 919 l 1,2,-1
 435 764 l 1,3,-1
 398 720 l 1,4,-1
 205 843 l 1,0,-1
192 233 m 2,5,6
 192 82 192 82 330 82 c 0,7,8
 421.655172414 82 421.655172414 82 452 162 c 0,9,10
 463 191 463 191 463 234 c 2,11,-1
 463 609 l 1,12,-1
 402 618 l 1,13,-1
 402 691 l 1,14,-1
 604 691 l 1,15,-1
 604 617 l 1,16,-1
 547 607 l 1,17,-1
 547 230 l 2,18,19
 547 113.639344262 547 113.639344262 480.5 51.5 c 0,20,21
 421.105263158 -4 421.105263158 -4 327 -4 c 0,22,23
 212 -4 212 -4 152 57.5 c 128,-1,24
 92 119 92 119 92 230 c 2,25,-1
 92 610 l 1,26,-1
 30 616 l 1,27,-1
 30 691 l 1,28,-1
 261 691 l 1,29,-1
 261 617 l 1,30,-1
 192 608 l 1,31,-1
 192 233 l 2,5,6
EndSplineSet
EndChar

StartChar: Aacute
Encoding: 193 193 112
Width: 608
Flags: HW
LayerCount: 2
Fore
SplineSet
-1 62 m 1,0,-1
 51 80 l 1,1,-1
 253 691 l 1,2,-1
 349 691 l 1,3,-1
 562 80 l 1,4,-1
 608 62 l 1,5,-1
 597 0 l 1,6,-1
 362 0 l 1,7,-1
 362 59 l 1,8,-1
 450 80 l 1,9,-1
 402 228 l 1,10,-1
 188 228 l 1,11,-1
 142 80 l 1,12,-1
 228 60 l 1,13,-1
 228 0 l 1,14,-1
 12 0 l 1,15,-1
 -1 62 l 1,0,-1
332 928 m 1,16,-1
 365 932 l 1,17,-1
 423 841 l 1,18,-1
 228 729 l 1,19,-1
 189 780 l 1,20,-1
 332 928 l 1,16,-1
214 314 m 1,21,-1
 374 314 l 1,22,-1
 292 565 l 1,23,-1
 214 314 l 1,21,-1
EndSplineSet
EndChar

StartChar: Eacute
Encoding: 201 201 113
Width: 539
Flags: HW
LayerCount: 2
Fore
SplineSet
333 928 m 1,0,-1
 367 932 l 1,1,-1
 424 841 l 1,2,-1
 229 729 l 1,3,-1
 189 780 l 1,4,-1
 333 928 l 1,0,-1
49 691 m 1,5,-1
 475 691 l 1,6,-1
 495 503 l 1,7,-1
 432 503 l 1,8,-1
 394 605 l 1,9,-1
 208 605 l 1,10,-1
 208 395 l 1,11,-1
 366 395 l 1,12,-1
 366 309 l 1,13,-1
 208 309 l 1,14,-1
 208 86 l 1,15,-1
 404 86 l 1,16,-1
 439 187 l 1,17,-1
 502 187 l 1,18,-1
 482 0 l 1,19,-1
 58 0 l 1,20,-1
 48 71 l 1,21,-1
 109 84 l 1,22,-1
 109 611 l 1,23,-1
 49 616 l 1,24,-1
 49 691 l 1,5,-1
EndSplineSet
EndChar

StartChar: Iacute
Encoding: 205 205 114
Width: 319
Flags: HW
LayerCount: 2
Fore
SplineSet
190 928 m 1,0,-1
 224 932 l 1,1,-1
 281 841 l 1,2,-1
 86 729 l 1,3,-1
 47 780 l 1,4,-1
 190 928 l 1,0,-1
109 610 m 1,5,-1
 46 615 l 1,6,-1
 46 691 l 1,7,-1
 264 691 l 1,8,-1
 274 616 l 1,9,-1
 209 606 l 1,10,-1
 209 81 l 1,11,-1
 274 73 l 1,12,-1
 274 0 l 1,13,-1
 55 0 l 1,14,-1
 46 72 l 1,15,-1
 109 83 l 1,16,-1
 109 610 l 1,5,-1
EndSplineSet
EndChar

StartChar: Oacute
Encoding: 211 211 115
Width: 651
Flags: HW
LayerCount: 2
Fore
SplineSet
148 342 m 256,0,1
 148 233.837209302 148 233.837209302 191.5 161 c 0,2,3
 238.680555556 82 238.680555556 82 325 82 c 256,4,5
 411.722222222 82 411.722222222 82 460 161 c 0,6,7
 504 233 504 233 504 342 c 256,8,9
 504 452.5 504 452.5 460 525.5 c 0,10,11
 411.479452055 606 411.479452055 606 325 606 c 256,12,13
 238.917808219 606 238.917808219 606 191.5 525.5 c 0,14,15
 148 451.651162791 148 451.651162791 148 342 c 256,0,1
325 -4 m 256,16,17
 188.833333333 -4 188.833333333 -4 113 100 c 0,18,19
 43 196 43 196 43 344 c 256,20,21
 43 492 43 492 113 588 c 0,22,23
 188.833333333 692 188.833333333 692 325 692 c 256,24,25
 460.583333333 692 460.583333333 692 537.5 588 c 0,26,27
 609 491.323943662 609 491.323943662 609 344 c 256,28,29
 609 196.676056338 609 196.676056338 537.5 100 c 0,30,31
 460.583333333 -4 460.583333333 -4 325 -4 c 256,16,17
362 928 m 1,32,-1
 396 932 l 1,33,-1
 453 841 l 1,34,-1
 258 729 l 1,35,-1
 219 780 l 1,36,-1
 362 928 l 1,32,-1
EndSplineSet
EndChar

StartChar: Uacute
Encoding: 218 218 116
Width: 638
Flags: HW
LayerCount: 2
Fore
SplineSet
381 928 m 1,0,-1
 415 932 l 1,1,-1
 471 841 l 1,2,-1
 277 729 l 1,3,-1
 237 780 l 1,4,-1
 381 928 l 1,0,-1
192 233 m 2,5,6
 192 82 192 82 330 82 c 0,7,8
 421.655172414 82 421.655172414 82 452 162 c 0,9,10
 463 191 463 191 463 234 c 2,11,-1
 463 609 l 1,12,-1
 402 618 l 1,13,-1
 402 691 l 1,14,-1
 604 691 l 1,15,-1
 604 617 l 1,16,-1
 547 607 l 1,17,-1
 547 230 l 2,18,19
 547 113.639344262 547 113.639344262 480.5 51.5 c 0,20,21
 421.105263158 -4 421.105263158 -4 327 -4 c 0,22,23
 212 -4 212 -4 152 57.5 c 128,-1,24
 92 119 92 119 92 230 c 2,25,-1
 92 610 l 1,26,-1
 30 616 l 1,27,-1
 30 691 l 1,28,-1
 261 691 l 1,29,-1
 261 617 l 1,30,-1
 192 608 l 1,31,-1
 192 233 l 2,5,6
EndSplineSet
EndChar

StartChar: Yacute
Encoding: 221 221 117
Width: 563
Flags: HW
LayerCount: 2
Fore
SplineSet
556 616 m 1,0,-1
 513 606 l 1,1,-1
 333 246 l 1,2,-1
 333 83 l 1,3,-1
 449 63 l 1,4,-1
 439 0 l 1,5,-1
 129 0 l 1,6,-1
 119 63 l 1,7,-1
 234 83 l 1,8,-1
 234 252 l 1,9,-1
 44 607 l 1,10,-1
 4 616 l 1,11,-1
 4 691 l 1,12,-1
 217 691 l 1,13,-1
 224 625 l 1,14,-1
 157 613 l 1,15,-1
 296 357 l 1,16,-1
 422 614 l 1,17,-1
 361 625 l 1,18,-1
 361 691 l 1,19,-1
 556 691 l 1,20,-1
 556 616 l 1,0,-1
345 928 m 1,21,-1
 379 932 l 1,22,-1
 435 841 l 1,23,-1
 241 729 l 1,24,-1
 201 780 l 1,25,-1
 345 928 l 1,21,-1
EndSplineSet
EndChar

StartChar: egrave
Encoding: 232 232 118
Width: 453
Flags: HW
LayerCount: 2
Fore
SplineSet
360 596 m 1,0,-1
 319 553 l 1,1,-1
 155 673 l 1,2,-1
 214 752 l 1,3,-1
 246 744 l 1,4,-1
 360 596 l 1,0,-1
408 353.5 m 0,5,6
 408 384 408 384 395.5 409 c 128,-1,7
 383 434 383 434 361.5 451 c 0,8,9
 317.235294118 486 317.235294118 486 251 486 c 0,10,11
 161.476190476 486 161.476190476 486 101 422.5 c 0,12,13
 35 353.2 35 353.2 35 237 c 0,14,15
 35 119.442622951 35 119.442622951 99.5 56 c 0,16,17
 160.5 -4 160.5 -4 263 -4 c 0,18,19
 332.428571429 -4 332.428571429 -4 389 29 c 0,20,21
 401 36 401 36 405 40 c 1,22,-1
 383 110 l 1,23,24
 359.827586207 86.8275862069 359.827586207 86.8275862069 312 75.5 c 0,25,26
 293 71 293 71 266 71 c 128,-1,27
 239 71 239 71 216 80 c 128,-1,28
 193 89 193 89 176.5 104 c 0,29,30
 145.864485981 131.85046729 145.864485981 131.85046729 135 184 c 1,31,32
 289.268656716 185.814925373 289.268656716 185.814925373 357 240 c 0,33,34
 408 280.8 408 280.8 408 353.5 c 0,5,6
254.5 410 m 0,35,36
 283 410 283 410 298 392 c 128,-1,37
 313 374 313 374 313 346 c 128,-1,38
 313 318 313 318 294 299.5 c 128,-1,39
 275 281 275 281 247 272 c 0,40,41
 203.444444444 258 203.444444444 258 130 258 c 1,42,43
 135.591958939 332.559452524 135.591958939 332.559452524 171 373.5 c 0,44,45
 202.567567568 410 202.567567568 410 254.5 410 c 0,35,36
EndSplineSet
EndChar

StartChar: igrave
Encoding: 236 236 119
Width: 268
Flags: HW
LayerCount: 2
Fore
SplineSet
195 531 m 1,0,-1
 29 651 l 1,1,-1
 89 731 l 1,2,-1
 121 723 l 1,3,-1
 235 574 l 1,4,-1
 195 531 l 1,0,-1
184 454 m 1,5,-1
 152 486 l 1,6,-1
 29 464 l 1,7,-1
 39 404 l 1,8,-1
 94 408 l 1,9,-1
 94 68 l 1,10,-1
 32 54 l 1,11,-1
 43 0 l 1,12,-1
 243 0 l 1,13,-1
 243 54 l 1,14,-1
 184 70 l 1,15,-1
 184 454 l 1,5,-1
EndSplineSet
EndChar

StartChar: ograve
Encoding: 242 242 120
Width: 495
Flags: HW
LayerCount: 2
Fore
SplineSet
322 530 m 1,0,-1
 156 651 l 1,1,-1
 216 731 l 1,2,-1
 248 723 l 1,3,-1
 362 573 l 1,4,-1
 322 530 l 1,0,-1
131 237 m 0,5,6
 131 359 131 359 197 398 c 0,7,8
 219 411 219 411 248 411 c 0,9,10
 302 411 302 411 333.5 364.5 c 128,-1,11
 365 318 365 318 365 235 c 128,-1,12
 365 152 365 152 332 111.5 c 128,-1,13
 299 71 299 71 247 71 c 128,-1,14
 195 71 195 71 163 112.5 c 128,-1,15
 131 154 131 154 131 237 c 0,5,6
36 245 m 0,16,17
 36 187 36 187 51.5 141.5 c 128,-1,18
 67 96 67 96 95.5 63.5 c 0,19,20
 154.692307692 -4 154.692307692 -4 248 -4 c 0,21,22
 337.031746032 -4 337.031746032 -4 396.5 59.5 c 0,23,24
 460 127.305084746 460 127.305084746 460 243 c 0,25,26
 460 353.631578947 460 353.631578947 399.5 420.5 c 0,27,28
 340.238095238 486 340.238095238 486 248 486 c 0,29,30
 158.5 486 158.5 486 99.5 424 c 0,31,32
 36 357.271186441 36 357.271186441 36 245 c 0,16,17
EndSplineSet
EndChar

StartChar: ugrave
Encoding: 249 249 121
Width: 510
Flags: HW
LayerCount: 2
Fore
SplineSet
450 67 m 1,0,1
 432 67 432 67 432 100 c 2,2,-1
 432 453 l 1,3,-1
 403 487 l 1,4,-1
 281 464 l 1,5,-1
 290 406 l 1,6,-1
 342 406 l 1,7,-1
 342 125 l 1,8,9
 332.52173913 102.252173913 332.52173913 102.252173913 303.5 86 c 0,10,11
 278.5 72 278.5 72 257.75 72 c 128,-1,12
 237 72 237 72 221.5 75.5 c 128,-1,13
 206 79 206 79 194 90.5 c 0,14,15
 167 116.375 167 116.375 167 182 c 2,16,-1
 167 453 l 1,17,-1
 136 486 l 1,18,-1
 12 464 l 1,19,-1
 22 406 l 1,20,-1
 77 406 l 1,21,-1
 77 161 l 2,22,23
 77 77.6363636364 77 77.6363636364 125 34 c 0,24,25
 166.8 -4 166.8 -4 237 -4 c 256,26,27
 301.857142857 -4 301.857142857 -4 349 41 c 1,28,29
 365 -4 365 -4 417 -4 c 0,30,31
 454 -4 454 -4 482 24 c 1,32,-1
 468 69 l 1,33,-1
 450 67 l 1,0,1
280 530 m 1,34,-1
 115 651 l 1,35,-1
 174 731 l 1,36,-1
 206 723 l 1,37,-1
 321 573 l 1,38,-1
 280 530 l 1,34,-1
EndSplineSet
EndChar

StartChar: aacute
Encoding: 225 225 122
Width: 460
Flags: HW
LayerCount: 2
Fore
SplineSet
299 41 m 1,0,1
 255.3 -5 255.3 -5 187.15 -5 c 128,-1,2
 119 -5 119 -5 77.5 33 c 128,-1,3
 36 71 36 71 36 124 c 128,-1,4
 36 177 36 177 57.5 208 c 128,-1,5
 79 239 79 239 114.5 257 c 0,6,7
 174.925968768 287.638519375 174.925968768 287.638519375 293 290 c 1,8,-1
 293 361 l 2,9,10
 293 381 293 381 274.5 397.5 c 128,-1,11
 256 414 256 414 217 414 c 0,12,13
 179.777777778 414 179.777777778 414 162 398 c 1,14,-1
 142 333 l 1,15,-1
 37 364 l 1,16,17
 60.3463414634 447.379790941 60.3463414634 447.379790941 150.5 476 c 0,18,19
 182 486 182 486 222 486 c 0,20,21
 300 486 300 486 341.5 447 c 128,-1,22
 383 408 383 408 383 345 c 2,23,-1
 383 89 l 2,24,25
 383 68 383 68 397 68 c 0,26,27
 404 68 404 68 418 75 c 1,28,-1
 440 22 l 1,29,30
 408.8 -4 408.8 -4 371 -4 c 0,31,32
 314 -4 314 -4 299 41 c 1,0,1
180 71.5 m 128,-1,34
 192 69 192 69 207 69 c 128,-1,35
 222 69 222 69 237.5 75.5 c 128,-1,36
 253 82 253 82 264.5 91 c 0,37,38
 285.019607843 107.058823529 285.019607843 107.058823529 293 131 c 1,39,-1
 293 217 l 1,40,41
 226.764705882 217 226.764705882 217 195.882352941 206.5 c 128,-1,42
 165 196 165 196 148 179.5 c 128,-1,43
 131 163 131 163 131 138.5 c 128,-1,44
 131 114 131 114 138.5 101.5 c 128,-1,45
 146 89 146 89 157 81.5 c 128,-1,33
 168 74 168 74 180 71.5 c 128,-1,34
247 722 m 1,46,-1
 279 730 l 1,47,-1
 339 650 l 1,48,-1
 173 529 l 1,49,-1
 132 573 l 1,50,-1
 247 722 l 1,46,-1
EndSplineSet
EndChar

StartChar: eacute
Encoding: 233 233 123
Width: 444
Flags: HW
LayerCount: 2
Fore
SplineSet
408 353.5 m 0,0,1
 408 323 408 323 397.5 293.5 c 128,-1,2
 387 264 387 264 357 240 c 0,3,4
 289.268656716 185.814925373 289.268656716 185.814925373 135 184 c 1,5,6
 151.400394477 105.278106509 151.400394477 105.278106509 216 80 c 0,7,8
 239 71 239 71 266 71 c 128,-1,9
 293 71 293 71 312 75.5 c 128,-1,10
 331 80 331 80 345 86.5 c 0,11,12
 372.066666667 99.0666666667 372.066666667 99.0666666667 383 110 c 1,13,-1
 405 40 l 1,14,15
 394.142857143 29.1428571429 394.142857143 29.1428571429 367.571428571 18.0714285714 c 0,16,17
 268.169230769 -23.3461538462 268.169230769 -23.3461538462 172 11 c 0,18,19
 85.4764492754 41.9012681159 85.4764492754 41.9012681159 52 131.5 c 0,20,21
 35 177 35 177 35 237.5 c 128,-1,22
 35 298 35 298 53 344.5 c 128,-1,23
 71 391 71 391 101 422.5 c 0,24,25
 161.476190476 486 161.476190476 486 251 486 c 0,26,27
 317.235294118 486 317.235294118 486 361.5 451 c 0,28,29
 408 414.23255814 408 414.23255814 408 353.5 c 0,0,1
298 392 m 128,-1,31
 283 410 283 410 254.5 410 c 128,-1,32
 226 410 226 410 206.5 401 c 128,-1,33
 187 392 187 392 171 373.5 c 0,34,35
 135.591958939 332.559452524 135.591958939 332.559452524 130 258 c 1,36,37
 203.444444444 258 203.444444444 258 239.222222222 269.5 c 128,-1,38
 275 281 275 281 294 299.5 c 128,-1,39
 313 318 313 318 313 346 c 128,-1,30
 313 374 313 374 298 392 c 128,-1,31
271 722 m 1,40,-1
 303 730 l 1,41,-1
 363 650 l 1,42,-1
 197 529 l 1,43,-1
 156 573 l 1,44,-1
 271 722 l 1,40,-1
EndSplineSet
EndChar

StartChar: iacute
Encoding: 237 237 124
Width: 268
Flags: HW
LayerCount: 2
Fore
SplineSet
147 722 m 1,0,-1
 179 730 l 1,1,-1
 238 650 l 1,2,-1
 73 530 l 1,3,-1
 32 573 l 1,4,-1
 147 722 l 1,0,-1
184 70 m 1,5,-1
 243 54 l 1,6,-1
 243 0 l 1,7,-1
 43 0 l 1,8,-1
 32 54 l 1,9,-1
 94 68 l 1,10,-1
 94 408 l 1,11,-1
 39 404 l 1,12,-1
 29 464 l 1,13,-1
 152 486 l 1,14,-1
 184 454 l 1,15,-1
 184 70 l 1,5,-1
EndSplineSet
EndChar

StartChar: oacute
Encoding: 243 243 125
Width: 495
Flags: HW
LayerCount: 2
Fore
SplineSet
274 722 m 1,0,-1
 306 730 l 1,1,-1
 366 650 l 1,2,-1
 200 529 l 1,3,-1
 159 573 l 1,4,-1
 274 722 l 1,0,-1
163 112.5 m 128,-1,6
 195 71 195 71 247 71 c 128,-1,7
 299 71 299 71 332 111.5 c 128,-1,8
 365 152 365 152 365 235 c 128,-1,9
 365 318 365 318 333.5 364.5 c 128,-1,10
 302 411 302 411 248 411 c 0,11,12
 191.391304348 411 191.391304348 411 160.5 362 c 0,13,14
 131 315.206896552 131 315.206896552 131 234.603448276 c 128,-1,5
 131 154 131 154 163 112.5 c 128,-1,6
36 245 m 0,15,16
 36 303 36 303 53 348 c 128,-1,17
 70 393 70 393 99.5 424 c 0,18,19
 158.5 486 158.5 486 248 486 c 0,20,21
 340.238095238 486 340.238095238 486 399.5 420.5 c 0,22,23
 460 353.631578947 460 353.631578947 460 243 c 0,24,25
 460 127.305084746 460 127.305084746 396.5 59.5 c 0,26,27
 337.031746032 -4 337.031746032 -4 248 -4 c 0,28,29
 154.692307692 -4 154.692307692 -4 95.5 63.5 c 0,30,31
 36 131.350877193 36 131.350877193 36 245 c 0,15,16
EndSplineSet
EndChar

StartChar: uacute
Encoding: 250 250 126
Width: 510
Flags: HW
LayerCount: 2
Fore
SplineSet
349 41 m 1,0,1
 301.857142857 -4 301.857142857 -4 237 -4 c 256,2,3
 126.936507937 -4 126.936507937 -4 90 85.5 c 0,4,5
 77 117 77 117 77 161 c 2,6,-1
 77 406 l 1,7,-1
 22 406 l 1,8,-1
 12 464 l 1,9,-1
 136 486 l 1,10,-1
 167 453 l 1,11,-1
 167 182 l 2,12,13
 167 87.8064516129 167 87.8064516129 221.5 75.5 c 0,14,15
 237 72 237 72 250.5 72 c 128,-1,16
 264 72 264 72 277.5 75.5 c 128,-1,17
 291 79 291 79 303.5 86 c 0,18,19
 332.52173913 102.252173913 332.52173913 102.252173913 342 125 c 1,20,-1
 342 406 l 1,21,-1
 290 406 l 1,22,-1
 281 464 l 1,23,-1
 403 487 l 1,24,-1
 432 453 l 1,25,-1
 432 100 l 2,26,27
 432 67 432 67 450 67 c 1,28,-1
 468 69 l 1,29,-1
 482 24 l 1,30,31
 454 -4 454 -4 417 -4 c 0,32,33
 365 -4 365 -4 349 41 c 1,0,1
264 722 m 1,34,-1
 296 730 l 1,35,-1
 356 650 l 1,36,-1
 190 529 l 1,37,-1
 149 573 l 1,38,-1
 264 722 l 1,34,-1
EndSplineSet
EndChar

StartChar: yacute
Encoding: 253 253 127
Width: 480
Flags: HW
LayerCount: 2
Fore
SplineSet
62 -166 m 1,0,1
 89.8181818182 -200 89.8181818182 -200 121 -200 c 0,2,3
 152.666666667 -200 152.666666667 -200 176.5 -139.5 c 0,4,5
 183 -123 183 -123 189 -108 c 2,6,-1
 211 -49 l 1,7,-1
 49 416 l 1,8,-1
 9 416 l 1,9,-1
 1 478 l 1,10,-1
 125 486 l 1,11,-1
 260 81 l 1,12,-1
 386 416 l 1,13,-1
 334 416 l 1,14,-1
 327 477 l 1,15,-1
 448 486 l 1,16,-1
 474 452 l 1,17,18
 384 197 384 197 313 14.5 c 128,-1,19
 242 -168 242 -168 230.5 -191.5 c 128,-1,20
 219 -215 219 -215 203.5 -233.5 c 0,21,22
 168.72972973 -275 168.72972973 -275 114 -275 c 0,23,24
 70 -275 70 -275 25 -235 c 1,25,-1
 62 -166 l 1,0,1
253 722 m 1,26,-1
 285 730 l 1,27,-1
 345 650 l 1,28,-1
 179 529 l 1,29,-1
 138 573 l 1,30,-1
 253 722 l 1,26,-1
EndSplineSet
EndChar

StartChar: Ecircumflex
Encoding: 202 202 128
Width: 539
Flags: HW
LayerCount: 2
Fore
SplineSet
284 894 m 1,0,-1
 440 731 l 1,1,-1
 438 726 l 1,2,-1
 357 726 l 1,3,-1
 270 785 l 1,4,-1
 184 726 l 1,5,-1
 104 726 l 1,6,-1
 101 732 l 1,7,-1
 258 894 l 1,8,-1
 284 894 l 1,0,-1
49 691 m 1,9,-1
 475 691 l 1,10,-1
 495 503 l 1,11,-1
 432 503 l 1,12,-1
 394 605 l 1,13,-1
 208 605 l 1,14,-1
 208 395 l 1,15,-1
 366 395 l 1,16,-1
 366 309 l 1,17,-1
 208 309 l 1,18,-1
 208 86 l 1,19,-1
 404 86 l 1,20,-1
 439 187 l 1,21,-1
 502 187 l 1,22,-1
 482 0 l 1,23,-1
 58 0 l 1,24,-1
 48 71 l 1,25,-1
 109 84 l 1,26,-1
 109 611 l 1,27,-1
 49 616 l 1,28,-1
 49 691 l 1,9,-1
EndSplineSet
EndChar

StartChar: Icircumflex
Encoding: 206 206 129
Width: 319
Flags: HW
LayerCount: 2
Fore
SplineSet
109 610 m 1,0,-1
 46 615 l 1,1,-1
 46 691 l 1,2,-1
 264 691 l 1,3,-1
 274 616 l 1,4,-1
 209 606 l 1,5,-1
 209 81 l 1,6,-1
 274 73 l 1,7,-1
 274 0 l 1,8,-1
 55 0 l 1,9,-1
 46 72 l 1,10,-1
 109 83 l 1,11,-1
 109 610 l 1,0,-1
173 894 m 1,12,-1
 329 731 l 1,13,-1
 327 726 l 1,14,-1
 246 726 l 1,15,-1
 159 785 l 1,16,-1
 73 726 l 1,17,-1
 -7 726 l 1,18,-1
 -10 732 l 1,19,-1
 147 894 l 1,20,-1
 173 894 l 1,12,-1
EndSplineSet
EndChar

StartChar: Ocircumflex
Encoding: 212 212 130
Width: 651
Flags: HW
LayerCount: 2
Fore
SplineSet
148 342 m 256,0,1
 148 233.837209302 148 233.837209302 191.5 161 c 0,2,3
 238.680555556 82 238.680555556 82 325 82 c 256,4,5
 411.722222222 82 411.722222222 82 460 161 c 0,6,7
 504 233 504 233 504 342 c 256,8,9
 504 452.5 504 452.5 460 525.5 c 0,10,11
 411.479452055 606 411.479452055 606 325 606 c 256,12,13
 238.917808219 606 238.917808219 606 191.5 525.5 c 0,14,15
 148 451.651162791 148 451.651162791 148 342 c 256,0,1
325 -4 m 256,16,17
 188.833333333 -4 188.833333333 -4 113 100 c 0,18,19
 43 196 43 196 43 344 c 256,20,21
 43 492 43 492 113 588 c 0,22,23
 188.833333333 692 188.833333333 692 325 692 c 256,24,25
 460.583333333 692 460.583333333 692 537.5 588 c 0,26,27
 609 491.323943662 609 491.323943662 609 344 c 256,28,29
 609 196.676056338 609 196.676056338 537.5 100 c 0,30,31
 460.583333333 -4 460.583333333 -4 325 -4 c 256,16,17
339 894 m 1,32,-1
 495 731 l 1,33,-1
 494 726 l 1,34,-1
 412 726 l 1,35,-1
 325 785 l 1,36,-1
 239 726 l 1,37,-1
 157 726 l 1,38,-1
 156 732 l 1,39,-1
 313 894 l 1,40,-1
 339 894 l 1,32,-1
EndSplineSet
EndChar

StartChar: Ucircumflex
Encoding: 219 219 131
Width: 638
Flags: HW
LayerCount: 2
Fore
SplineSet
192 233 m 2,0,1
 192 82 192 82 330 82 c 0,2,3
 421.655172414 82 421.655172414 82 452 162 c 0,4,5
 463 191 463 191 463 234 c 2,6,-1
 463 609 l 1,7,-1
 402 618 l 1,8,-1
 402 691 l 1,9,-1
 604 691 l 1,10,-1
 604 617 l 1,11,-1
 547 607 l 1,12,-1
 547 230 l 2,13,14
 547 113.639344262 547 113.639344262 480.5 51.5 c 0,15,16
 421.105263158 -4 421.105263158 -4 327 -4 c 0,17,18
 212 -4 212 -4 152 57.5 c 128,-1,19
 92 119 92 119 92 230 c 2,20,-1
 92 610 l 1,21,-1
 30 616 l 1,22,-1
 30 691 l 1,23,-1
 261 691 l 1,24,-1
 261 617 l 1,25,-1
 192 608 l 1,26,-1
 192 233 l 2,0,1
342 894 m 1,27,-1
 498 731 l 1,28,-1
 497 726 l 1,29,-1
 415 726 l 1,30,-1
 328 785 l 1,31,-1
 242 726 l 1,32,-1
 160 726 l 1,33,-1
 159 732 l 1,34,-1
 316 894 l 1,35,-1
 342 894 l 1,27,-1
EndSplineSet
EndChar

StartChar: Adieresis
Encoding: 196 196 132
Width: 608
Flags: HW
LayerCount: 2
Fore
SplineSet
-1 62 m 1,0,-1
 51 80 l 1,1,-1
 253 691 l 1,2,-1
 349 691 l 1,3,-1
 562 80 l 1,4,-1
 608 62 l 1,5,-1
 597 0 l 1,6,-1
 362 0 l 1,7,-1
 362 59 l 1,8,-1
 450 80 l 1,9,-1
 402 228 l 1,10,-1
 188 228 l 1,11,-1
 142 80 l 1,12,-1
 228 60 l 1,13,-1
 228 0 l 1,14,-1
 12 0 l 1,15,-1
 -1 62 l 1,0,-1
214 314 m 1,16,-1
 374 314 l 1,17,-1
 292 565 l 1,18,-1
 214 314 l 1,16,-1
348.5 828.5 m 128,-1,20
 329 848 329 848 329 873.5 c 128,-1,21
 329 899 329 899 348 918 c 128,-1,22
 367 937 367 937 393.5 937 c 128,-1,23
 420 937 420 937 438.5 918 c 128,-1,24
 457 899 457 899 457 873 c 256,25,26
 457 847 457 847 438 828 c 128,-1,27
 419 809 419 809 393.5 809 c 128,-1,19
 368 809 368 809 348.5 828.5 c 128,-1,20
152 873 m 256,28,29
 152 899 152 899 170 918 c 128,-1,30
 188 937 188 937 214.5 937 c 128,-1,31
 241 937 241 937 259.5 918 c 128,-1,32
 278 899 278 899 278 872.5 c 128,-1,33
 278 846 278 846 258.5 827.5 c 128,-1,34
 239 809 239 809 214 809 c 128,-1,35
 189 809 189 809 170.5 828 c 128,-1,36
 152 847 152 847 152 873 c 256,28,29
EndSplineSet
EndChar

StartChar: Edieresis
Encoding: 203 203 133
Width: 539
Flags: HW
LayerCount: 2
Fore
SplineSet
49 691 m 1,0,-1
 475 691 l 1,1,-1
 495 503 l 1,2,-1
 432 503 l 1,3,-1
 394 605 l 1,4,-1
 208 605 l 1,5,-1
 208 395 l 1,6,-1
 366 395 l 1,7,-1
 366 309 l 1,8,-1
 208 309 l 1,9,-1
 208 86 l 1,10,-1
 404 86 l 1,11,-1
 439 187 l 1,12,-1
 502 187 l 1,13,-1
 482 0 l 1,14,-1
 58 0 l 1,15,-1
 48 71 l 1,16,-1
 109 84 l 1,17,-1
 109 611 l 1,18,-1
 49 616 l 1,19,-1
 49 691 l 1,0,-1
322.5 839.5 m 128,-1,21
 303 859 303 859 303 884.5 c 128,-1,22
 303 910 303 910 322 929 c 128,-1,23
 341 948 341 948 367.5 948 c 128,-1,24
 394 948 394 948 412.5 929 c 128,-1,25
 431 910 431 910 431 884 c 256,26,27
 431 858 431 858 412 839 c 128,-1,28
 393 820 393 820 367.5 820 c 128,-1,20
 342 820 342 820 322.5 839.5 c 128,-1,21
126 884 m 256,29,30
 126 910 126 910 144 929 c 128,-1,31
 162 948 162 948 188.5 948 c 128,-1,32
 215 948 215 948 233.5 929 c 128,-1,33
 252 910 252 910 252 883.5 c 128,-1,34
 252 857 252 857 232.5 838.5 c 128,-1,35
 213 820 213 820 188 820 c 128,-1,36
 163 820 163 820 144.5 839 c 128,-1,37
 126 858 126 858 126 884 c 256,29,30
EndSplineSet
EndChar

StartChar: Odieresis
Encoding: 214 214 134
Width: 651
Flags: HW
LayerCount: 2
Fore
SplineSet
148 342 m 256,0,1
 148 233.837209302 148 233.837209302 191.5 161 c 0,2,3
 238.680555556 82 238.680555556 82 325 82 c 256,4,5
 411.722222222 82 411.722222222 82 460 161 c 0,6,7
 504 233 504 233 504 342 c 256,8,9
 504 452.5 504 452.5 460 525.5 c 0,10,11
 411.479452055 606 411.479452055 606 325 606 c 256,12,13
 238.917808219 606 238.917808219 606 191.5 525.5 c 0,14,15
 148 451.651162791 148 451.651162791 148 342 c 256,0,1
325 -4 m 256,16,17
 188.833333333 -4 188.833333333 -4 113 100 c 0,18,19
 43 196 43 196 43 344 c 256,20,21
 43 492 43 492 113 588 c 0,22,23
 188.833333333 692 188.833333333 692 325 692 c 256,24,25
 460.583333333 692 460.583333333 692 537.5 588 c 0,26,27
 609 491.323943662 609 491.323943662 609 344 c 256,28,29
 609 196.676056338 609 196.676056338 537.5 100 c 0,30,31
 460.583333333 -4 460.583333333 -4 325 -4 c 256,16,17
377.5 839.5 m 128,-1,33
 358 859 358 859 358 884.5 c 128,-1,34
 358 910 358 910 377 929 c 128,-1,35
 396 948 396 948 422.5 948 c 128,-1,36
 449 948 449 948 467.5 929 c 128,-1,37
 486 910 486 910 486 884 c 256,38,39
 486 858 486 858 467 839 c 128,-1,40
 448 820 448 820 422.5 820 c 128,-1,32
 397 820 397 820 377.5 839.5 c 128,-1,33
181 884 m 256,41,42
 181 910 181 910 199 929 c 128,-1,43
 217 948 217 948 243.5 948 c 128,-1,44
 270 948 270 948 288.5 929 c 128,-1,45
 307 910 307 910 307 883.5 c 128,-1,46
 307 857 307 857 287.5 838.5 c 128,-1,47
 268 820 268 820 243 820 c 128,-1,48
 218 820 218 820 199.5 839 c 128,-1,49
 181 858 181 858 181 884 c 256,41,42
EndSplineSet
EndChar

StartChar: Udieresis
Encoding: 220 220 135
Width: 647
Flags: HW
LayerCount: 2
Fore
SplineSet
411 691 m 1,0,-1
 613 691 l 1,1,-1
 613 617 l 1,2,-1
 556 607 l 1,3,-1
 556 230 l 2,4,5
 556 114.380952381 556 114.380952381 486.5 51.5 c 0,6,7
 425.157894737 -4 425.157894737 -4 331 -4 c 0,8,9
 216 -4 216 -4 154 57.5 c 128,-1,10
 92 119 92 119 92 230 c 2,11,-1
 92 610 l 1,12,-1
 30 616 l 1,13,-1
 30 691 l 1,14,-1
 261 691 l 1,15,-1
 261 617 l 1,16,-1
 192 608 l 1,17,-1
 192 233 l 2,18,19
 192 162 192 162 227 122 c 128,-1,20
 262 82 262 82 334 82 c 0,21,22
 426.896551724 82 426.896551724 82 460 162 c 0,23,24
 472 191 472 191 472 234 c 2,25,-1
 472 609 l 1,26,-1
 411 618 l 1,27,-1
 411 691 l 1,0,-1
389.5 839.5 m 128,-1,29
 370 859 370 859 370 884.5 c 128,-1,30
 370 910 370 910 389 929 c 128,-1,31
 408 948 408 948 434.5 948 c 128,-1,32
 461 948 461 948 479.5 929 c 128,-1,33
 498 910 498 910 498 884 c 256,34,35
 498 858 498 858 479 839 c 128,-1,36
 460 820 460 820 434.5 820 c 128,-1,28
 409 820 409 820 389.5 839.5 c 128,-1,29
193 884 m 256,37,38
 193 910 193 910 211 929 c 128,-1,39
 229 948 229 948 255.5 948 c 128,-1,40
 282 948 282 948 300.5 929 c 128,-1,41
 319 910 319 910 319 883.5 c 128,-1,42
 319 857 319 857 299.5 838.5 c 128,-1,43
 280 820 280 820 255 820 c 128,-1,44
 230 820 230 820 211.5 839 c 128,-1,45
 193 858 193 858 193 884 c 256,37,38
EndSplineSet
EndChar

StartChar: edieresis
Encoding: 235 235 136
Width: 453
Flags: HW
LayerCount: 2
Fore
SplineSet
121.5 587 m 128,-1,1
 106 603 106 603 106 626 c 128,-1,2
 106 649 106 649 121.5 665 c 128,-1,3
 137 681 137 681 160.5 681 c 128,-1,4
 184 681 184 681 200 664.5 c 128,-1,5
 216 648 216 648 216 625.5 c 128,-1,6
 216 603 216 603 199.5 587 c 128,-1,7
 183 571 183 571 160 571 c 128,-1,0
 137 571 137 571 121.5 587 c 128,-1,1
271.5 587.5 m 128,-1,9
 256 604 256 604 256 626.5 c 128,-1,10
 256 649 256 649 271.5 665 c 128,-1,11
 287 681 287 681 310.5 681 c 128,-1,12
 334 681 334 681 350 664.5 c 128,-1,13
 366 648 366 648 366 625.5 c 128,-1,14
 366 603 366 603 349.5 587 c 128,-1,15
 333 571 333 571 310 571 c 128,-1,8
 287 571 287 571 271.5 587.5 c 128,-1,9
408 353.5 m 0,16,17
 408 323 408 323 397.5 293.5 c 128,-1,18
 387 264 387 264 357 240 c 0,19,20
 289.268656716 185.814925373 289.268656716 185.814925373 135 184 c 1,21,22
 151.400394477 105.278106509 151.400394477 105.278106509 216 80 c 0,23,24
 239 71 239 71 266 71 c 128,-1,25
 293 71 293 71 312 75.5 c 128,-1,26
 331 80 331 80 345 86.5 c 0,27,28
 372.066666667 99.0666666667 372.066666667 99.0666666667 383 110 c 1,29,-1
 405 40 l 1,30,31
 394.142857143 29.1428571429 394.142857143 29.1428571429 367.571428571 18.0714285714 c 0,32,33
 268.169230769 -23.3461538462 268.169230769 -23.3461538462 172 11 c 0,34,35
 85.4764492754 41.9012681159 85.4764492754 41.9012681159 52 131.5 c 0,36,37
 35 177 35 177 35 237.5 c 128,-1,38
 35 298 35 298 53 344.5 c 128,-1,39
 71 391 71 391 101 422.5 c 0,40,41
 161.476190476 486 161.476190476 486 251 486 c 0,42,43
 317.235294118 486 317.235294118 486 361.5 451 c 0,44,45
 408 414.23255814 408 414.23255814 408 353.5 c 0,16,17
298 392 m 128,-1,47
 283 410 283 410 254.5 410 c 128,-1,48
 226 410 226 410 206.5 401 c 128,-1,49
 187 392 187 392 171 373.5 c 0,50,51
 135.591958939 332.559452524 135.591958939 332.559452524 130 258 c 1,52,53
 203.444444444 258 203.444444444 258 239.222222222 269.5 c 128,-1,54
 275 281 275 281 294 299.5 c 128,-1,55
 313 318 313 318 313 346 c 128,-1,46
 313 374 313 374 298 392 c 128,-1,47
EndSplineSet
EndChar

StartChar: odieresis
Encoding: 246 246 137
Width: 494
Flags: HW
LayerCount: 2
Fore
SplineSet
285.5 587.5 m 128,-1,1
 270 604 270 604 270 626.5 c 128,-1,2
 270 649 270 649 285.5 665 c 128,-1,3
 301 681 301 681 324.5 681 c 128,-1,4
 348 681 348 681 364 664.5 c 128,-1,5
 380 648 380 648 380 625.5 c 128,-1,6
 380 603 380 603 363.5 587 c 128,-1,7
 347 571 347 571 324 571 c 128,-1,0
 301 571 301 571 285.5 587.5 c 128,-1,1
135.5 587 m 128,-1,9
 120 603 120 603 120 626 c 128,-1,10
 120 649 120 649 135.5 665 c 128,-1,11
 151 681 151 681 174.5 681 c 128,-1,12
 198 681 198 681 214 664.5 c 128,-1,13
 230 648 230 648 230 625.5 c 128,-1,14
 230 603 230 603 213.5 587 c 128,-1,15
 197 571 197 571 174 571 c 128,-1,8
 151 571 151 571 135.5 587 c 128,-1,9
163 112.5 m 128,-1,17
 195 71 195 71 247 71 c 128,-1,18
 299 71 299 71 332 111.5 c 128,-1,19
 365 152 365 152 365 235 c 128,-1,20
 365 318 365 318 333.5 364.5 c 128,-1,21
 302 411 302 411 248 411 c 0,22,23
 191.391304348 411 191.391304348 411 160.5 362 c 0,24,25
 131 315.206896552 131 315.206896552 131 234.603448276 c 128,-1,16
 131 154 131 154 163 112.5 c 128,-1,17
36 245 m 0,26,27
 36 303 36 303 53 348 c 128,-1,28
 70 393 70 393 99.5 424 c 0,29,30
 158.5 486 158.5 486 248 486 c 0,31,32
 340.238095238 486 340.238095238 486 399.5 420.5 c 0,33,34
 460 353.631578947 460 353.631578947 460 243 c 0,35,36
 460 127.305084746 460 127.305084746 396.5 59.5 c 0,37,38
 337.031746032 -4 337.031746032 -4 248 -4 c 0,39,40
 154.692307692 -4 154.692307692 -4 95.5 63.5 c 0,41,42
 36 131.350877193 36 131.350877193 36 245 c 0,26,27
EndSplineSet
EndChar

StartChar: udieresis
Encoding: 252 252 138
Width: 510
Flags: HW
LayerCount: 2
Fore
SplineSet
140.5 587 m 128,-1,1
 125 603 125 603 125 626 c 128,-1,2
 125 649 125 649 140.5 665 c 128,-1,3
 156 681 156 681 179.5 681 c 128,-1,4
 203 681 203 681 219 664.5 c 128,-1,5
 235 648 235 648 235 625.5 c 128,-1,6
 235 603 235 603 218.5 587 c 128,-1,7
 202 571 202 571 179 571 c 128,-1,0
 156 571 156 571 140.5 587 c 128,-1,1
290.5 587.5 m 128,-1,9
 275 604 275 604 275 626.5 c 128,-1,10
 275 649 275 649 290.5 665 c 128,-1,11
 306 681 306 681 329.5 681 c 128,-1,12
 353 681 353 681 369 664.5 c 128,-1,13
 385 648 385 648 385 625.5 c 128,-1,14
 385 603 385 603 368.5 587 c 128,-1,15
 352 571 352 571 329 571 c 128,-1,8
 306 571 306 571 290.5 587.5 c 128,-1,9
349 41 m 1,16,17
 301.857142857 -4 301.857142857 -4 237 -4 c 256,18,19
 126.936507937 -4 126.936507937 -4 90 85.5 c 0,20,21
 77 117 77 117 77 161 c 2,22,-1
 77 406 l 1,23,-1
 22 406 l 1,24,-1
 12 464 l 1,25,-1
 136 486 l 1,26,-1
 167 453 l 1,27,-1
 167 182 l 2,28,29
 167 87.8064516129 167 87.8064516129 221.5 75.5 c 0,30,31
 237 72 237 72 250.5 72 c 128,-1,32
 264 72 264 72 277.5 75.5 c 128,-1,33
 291 79 291 79 303.5 86 c 0,34,35
 332.52173913 102.252173913 332.52173913 102.252173913 342 125 c 1,36,-1
 342 406 l 1,37,-1
 290 406 l 1,38,-1
 281 464 l 1,39,-1
 403 487 l 1,40,-1
 432 453 l 1,41,-1
 432 100 l 2,42,43
 432 67 432 67 450 67 c 1,44,-1
 468 69 l 1,45,-1
 482 24 l 1,46,47
 454 -4 454 -4 417 -4 c 0,48,49
 365 -4 365 -4 349 41 c 1,16,17
EndSplineSet
EndChar

StartChar: ydieresis
Encoding: 255 255 139
Width: 478
Flags: HW
LayerCount: 2
Fore
SplineSet
58 -166 m 1,0,1
 85.8181818182 -200 85.8181818182 -200 117 -200 c 0,2,3
 148.666666667 -200 148.666666667 -200 172.5 -139.5 c 0,4,5
 179 -123 179 -123 185 -108 c 2,6,-1
 207 -49 l 1,7,-1
 45 420 l 1,8,-1
 8 420 l 1,9,-1
 0 478 l 1,10,-1
 121 486 l 1,11,-1
 256 81 l 1,12,-1
 385 420 l 1,13,-1
 332 420 l 1,14,-1
 325 477 l 1,15,-1
 447 486 l 1,16,-1
 472 452 l 1,17,18
 392.058823529 225.5 392.058823529 225.5 333.529411765 76.25 c 128,-1,19
 275 -73 275 -73 256.5 -120.5 c 128,-1,20
 238 -168 238 -168 226.5 -191.5 c 128,-1,21
 215 -215 215 -215 199.5 -233.5 c 0,22,23
 164.72972973 -275 164.72972973 -275 110 -275 c 0,24,25
 66 -275 66 -275 21 -235 c 1,26,-1
 58 -166 l 1,0,1
120.5 587 m 128,-1,28
 105 603 105 603 105 626 c 128,-1,29
 105 649 105 649 120.5 665 c 128,-1,30
 136 681 136 681 159.5 681 c 128,-1,31
 183 681 183 681 199 664.5 c 128,-1,32
 215 648 215 648 215 625.5 c 128,-1,33
 215 603 215 603 198.5 587 c 128,-1,34
 182 571 182 571 159 571 c 128,-1,27
 136 571 136 571 120.5 587 c 128,-1,28
270.5 587.5 m 128,-1,36
 255 604 255 604 255 626.5 c 128,-1,37
 255 649 255 649 270.5 665 c 128,-1,38
 286 681 286 681 309.5 681 c 128,-1,39
 333 681 333 681 349 664.5 c 128,-1,40
 365 648 365 648 365 625.5 c 128,-1,41
 365 603 365 603 348.5 587 c 128,-1,42
 332 571 332 571 309 571 c 128,-1,35
 286 571 286 571 270.5 587.5 c 128,-1,36
EndSplineSet
EndChar

StartChar: Idieresis
Encoding: 207 207 140
Width: 319
Flags: HW
LayerCount: 2
Fore
SplineSet
109 610 m 1,0,-1
 46 615 l 1,1,-1
 46 691 l 1,2,-1
 264 691 l 1,3,-1
 274 616 l 1,4,-1
 209 606 l 1,5,-1
 209 81 l 1,6,-1
 274 73 l 1,7,-1
 274 0 l 1,8,-1
 55 0 l 1,9,-1
 46 72 l 1,10,-1
 109 83 l 1,11,-1
 109 610 l 1,0,-1
200 753 m 128,-1,13
 181 771 181 771 181 797.5 c 128,-1,14
 181 824 181 824 200 842.5 c 128,-1,15
 219 861 219 861 245 861 c 256,16,17
 271 861 271 861 288.5 842 c 128,-1,18
 306 823 306 823 306 797.5 c 128,-1,19
 306 772 306 772 288 753.5 c 128,-1,20
 270 735 270 735 244.5 735 c 128,-1,12
 219 735 219 735 200 753 c 128,-1,13
21 798 m 256,21,22
 21 824 21 824 39 842.5 c 128,-1,23
 57 861 57 861 82 861 c 128,-1,24
 107 861 107 861 126.5 842.5 c 128,-1,25
 146 824 146 824 146 798 c 256,26,27
 146 772 146 772 126.5 753.5 c 128,-1,28
 107 735 107 735 82 735 c 128,-1,29
 57 735 57 735 39 753.5 c 128,-1,30
 21 772 21 772 21 798 c 256,21,22
EndSplineSet
EndChar

StartChar: idieresis
Encoding: 239 239 141
Width: 268
Flags: HW
LayerCount: 2
Fore
SplineSet
154 587.5 m 128,-1,1
 138 604 138 604 138 626.5 c 128,-1,2
 138 649 138 649 154 665 c 128,-1,3
 170 681 170 681 193 681 c 128,-1,4
 216 681 216 681 232.5 664.5 c 128,-1,5
 249 648 249 648 249 625.5 c 128,-1,6
 249 603 249 603 232 587 c 128,-1,7
 215 571 215 571 192.5 571 c 128,-1,0
 170 571 170 571 154 587.5 c 128,-1,1
14.5 587 m 128,-1,9
 -1 603 -1 603 -1 626 c 128,-1,10
 -1 649 -1 649 14.5 665 c 128,-1,11
 30 681 30 681 53.5 681 c 128,-1,12
 77 681 77 681 93 664.5 c 128,-1,13
 109 648 109 648 109 625.5 c 128,-1,14
 109 603 109 603 92.5 587 c 128,-1,15
 76 571 76 571 53 571 c 128,-1,8
 30 571 30 571 14.5 587 c 128,-1,9
184 70 m 1,16,-1
 243 54 l 1,17,-1
 243 0 l 1,18,-1
 43 0 l 1,19,-1
 32 54 l 1,20,-1
 94 68 l 1,21,-1
 94 408 l 1,22,-1
 39 404 l 1,23,-1
 29 464 l 1,24,-1
 152 486 l 1,25,-1
 184 454 l 1,26,-1
 184 70 l 1,16,-1
EndSplineSet
EndChar

StartChar: ecircumflex
Encoding: 234 234 142
Width: 453
Flags: HW
LayerCount: 2
Fore
SplineSet
97 541 m 1,0,-1
 230 700 l 1,1,-1
 263 700 l 1,2,-1
 397 540 l 1,3,-1
 391 529 l 1,4,-1
 313 529 l 1,5,-1
 246 581 l 1,6,-1
 179 529 l 1,7,-1
 102 529 l 1,8,-1
 97 541 l 1,0,-1
408 353.5 m 0,9,10
 408 323 408 323 397.5 293.5 c 128,-1,11
 387 264 387 264 357 240 c 0,12,13
 289.268656716 185.814925373 289.268656716 185.814925373 135 184 c 1,14,15
 151.400394477 105.278106509 151.400394477 105.278106509 216 80 c 0,16,17
 239 71 239 71 266 71 c 128,-1,18
 293 71 293 71 312 75.5 c 128,-1,19
 331 80 331 80 345 86.5 c 0,20,21
 372.066666667 99.0666666667 372.066666667 99.0666666667 383 110 c 1,22,-1
 405 40 l 1,23,24
 394.142857143 29.1428571429 394.142857143 29.1428571429 367.571428571 18.0714285714 c 0,25,26
 268.169230769 -23.3461538462 268.169230769 -23.3461538462 172 11 c 0,27,28
 85.4764492754 41.9012681159 85.4764492754 41.9012681159 52 131.5 c 0,29,30
 35 177 35 177 35 237.5 c 128,-1,31
 35 298 35 298 53 344.5 c 128,-1,32
 71 391 71 391 101 422.5 c 0,33,34
 161.476190476 486 161.476190476 486 251 486 c 0,35,36
 317.235294118 486 317.235294118 486 361.5 451 c 0,37,38
 408 414.23255814 408 414.23255814 408 353.5 c 0,9,10
298 392 m 128,-1,40
 283 410 283 410 254.5 410 c 128,-1,41
 226 410 226 410 206.5 401 c 128,-1,42
 187 392 187 392 171 373.5 c 0,43,44
 135.591958939 332.559452524 135.591958939 332.559452524 130 258 c 1,45,46
 203.444444444 258 203.444444444 258 239.222222222 269.5 c 128,-1,47
 275 281 275 281 294 299.5 c 128,-1,48
 313 318 313 318 313 346 c 128,-1,39
 313 374 313 374 298 392 c 128,-1,40
EndSplineSet
EndChar

StartChar: icircumflex
Encoding: 238 238 143
Width: 268
Flags: HW
LayerCount: 2
Fore
SplineSet
114 695 m 1,0,-1
 138 695 l 1,1,-1
 263 545 l 1,2,-1
 258 537 l 1,3,-1
 191 537 l 1,4,-1
 125 591 l 1,5,-1
 58 537 l 1,6,-1
 -7 537 l 1,7,-1
 -11 544 l 1,8,-1
 114 695 l 1,0,-1
184 70 m 1,9,-1
 243 54 l 1,10,-1
 243 0 l 1,11,-1
 43 0 l 1,12,-1
 32 54 l 1,13,-1
 94 68 l 1,14,-1
 94 408 l 1,15,-1
 39 404 l 1,16,-1
 29 464 l 1,17,-1
 152 486 l 1,18,-1
 184 454 l 1,19,-1
 184 70 l 1,9,-1
EndSplineSet
EndChar

StartChar: ucircumflex
Encoding: 251 251 144
Width: 510
Flags: HW
LayerCount: 2
Fore
SplineSet
349 41 m 1,0,1
 301.857142857 -4 301.857142857 -4 237 -4 c 256,2,3
 126.936507937 -4 126.936507937 -4 90 85.5 c 0,4,5
 77 117 77 117 77 161 c 2,6,-1
 77 406 l 1,7,-1
 22 406 l 1,8,-1
 12 464 l 1,9,-1
 136 486 l 1,10,-1
 167 453 l 1,11,-1
 167 182 l 2,12,13
 167 87.8064516129 167 87.8064516129 221.5 75.5 c 0,14,15
 237 72 237 72 250.5 72 c 128,-1,16
 264 72 264 72 277.5 75.5 c 128,-1,17
 291 79 291 79 303.5 86 c 0,18,19
 332.52173913 102.252173913 332.52173913 102.252173913 342 125 c 1,20,-1
 342 406 l 1,21,-1
 290 406 l 1,22,-1
 281 464 l 1,23,-1
 403 487 l 1,24,-1
 432 453 l 1,25,-1
 432 100 l 2,26,27
 432 67 432 67 450 67 c 1,28,-1
 468 69 l 1,29,-1
 482 24 l 1,30,31
 454 -4 454 -4 417 -4 c 0,32,33
 365 -4 365 -4 349 41 c 1,0,1
223 695 m 1,34,-1
 247 695 l 1,35,-1
 372 545 l 1,36,-1
 367 537 l 1,37,-1
 300 537 l 1,38,-1
 234 591 l 1,39,-1
 167 537 l 1,40,-1
 102 537 l 1,41,-1
 98 544 l 1,42,-1
 223 695 l 1,34,-1
EndSplineSet
EndChar

StartChar: Oslash
Encoding: 216 216 145
Width: 651
Flags: HW
LayerCount: 2
Fore
SplineSet
552 751 m 1,0,-1
 551 732 l 1,1,-1
 502 626 l 1,2,3
 556 578 556 578 582.5 503.5 c 128,-1,4
 609 429 609 429 609 351.5 c 128,-1,5
 609 274 609 274 591 211 c 128,-1,6
 573 148 573 148 537.5 100 c 0,7,8
 460.583333333 -4 460.583333333 -4 325 -4 c 0,9,10
 265 -4 265 -4 220 15 c 1,11,-1
 189 -53 l 1,12,-1
 95 -53 l 1,13,-1
 92 -35 l 1,14,-1
 140 69 l 1,15,16
 91 117 91 117 67 189 c 128,-1,17
 43 261 43 261 43 337.5 c 128,-1,18
 43 414 43 414 60.5 477 c 128,-1,19
 78 540 78 540 113 588 c 0,20,21
 188.833333333 692 188.833333333 692 325 692 c 0,22,23
 376 692 376 692 420 676 c 1,24,-1
 454 751 l 1,25,-1
 552 751 l 1,0,-1
457 529 m 1,26,-1
 258 97 l 1,27,28
 288 82 288 82 329 82 c 128,-1,29
 370 82 370 82 404 103.5 c 128,-1,30
 438 125 438 125 460 161 c 0,31,32
 504 233 504 233 504 343.195652174 c 128,-1,33
 504 453.391304348 504 453.391304348 457 529 c 1,26,-1
148 343.5 m 128,-1,35
 148 235.5 148 235.5 186 169 c 1,36,-1
 382 595 l 1,37,38
 355 606 355 606 317.5 606 c 128,-1,39
 280 606 280 606 246.5 584 c 128,-1,40
 213 562 213 562 191.5 525.5 c 0,41,34
 148 451.651162791 148 451.651162791 148 343.5 c 128,-1,35
EndSplineSet
EndChar

StartChar: yen
Encoding: 165 165 146
Width: 610
Flags: HW
LayerCount: 2
Fore
SplineSet
258 211 m 1,0,-1
 258 232 l 1,1,-1
 139 232 l 1,2,-1
 139 309 l 1,3,-1
 251 309 l 1,4,-1
 65 609 l 1,5,-1
 25 618 l 1,6,-1
 25 691 l 1,7,-1
 232 691 l 1,8,-1
 239 628 l 1,9,-1
 178 615 l 1,10,-1
 317 395 l 1,11,-1
 454 616 l 1,12,-1
 395 627 l 1,13,-1
 395 691 l 1,14,-1
 585 691 l 1,15,-1
 585 618 l 1,16,-1
 547 608 l 1,17,-1
 359 309 l 1,18,-1
 468 309 l 1,19,-1
 468 232 l 1,20,-1
 358 232 l 1,21,-1
 358 211 l 1,22,-1
 468 211 l 1,23,-1
 468 134 l 1,24,-1
 358 134 l 1,25,-1
 358 83 l 1,26,-1
 472 63 l 1,27,-1
 464 0 l 1,28,-1
 156 0 l 1,29,-1
 147 63 l 1,30,-1
 258 83 l 1,31,-1
 258 134 l 1,32,-1
 139 134 l 1,33,-1
 139 211 l 1,34,-1
 258 211 l 1,0,-1
EndSplineSet
EndChar

StartChar: germandbls
Encoding: 223 223 147
Width: 527
Flags: HW
LayerCount: 2
Fore
SplineSet
261 656 m 0,0,1
 175 656 175 656 175 550 c 2,2,-1
 175 0 l 1,3,-1
 32 0 l 1,4,-1
 32 58 l 1,5,-1
 83 68 l 1,6,-1
 83 531 l 2,7,8
 83 630.416666667 83 630.416666667 135 683.5 c 0,9,10
 181.530612245 731 181.530612245 731 263 731 c 0,11,12
 332.871794872 731 332.871794872 731 382.5 691.5 c 0,13,14
 436 648.918367347 436 648.918367347 436 578 c 0,15,16
 436 532 436 532 419.5 502.5 c 128,-1,17
 403 473 403 473 383 452 c 128,-1,18
 363 431 363 431 346.5 415 c 128,-1,19
 330 399 330 399 330 381 c 1,20,21
 333.727272727 358.636363636 333.727272727 358.636363636 375 338 c 0,22,23
 506 269.567164179 506 269.567164179 506 163 c 0,24,25
 506 85.28 506 85.28 450 36 c 0,26,27
 400 -8 400 -8 331 -8 c 0,28,29
 272.538461538 -8 272.538461538 -8 219 16 c 1,30,-1
 273 110 l 1,31,32
 286 99 286 99 299 86.5 c 128,-1,33
 312 74 312 74 323 67 c 1,34,35
 358 67 358 67 384.5 93 c 128,-1,36
 411 119 411 119 411 165 c 0,37,38
 411 207.605263158 411 207.605263158 367 243.5 c 0,39,40
 348 259 348 259 326 272.5 c 128,-1,41
 304 286 304 286 285 301.5 c 0,42,43
 241 337.394736842 241 337.394736842 241 379 c 0,44,45
 241 408 241 408 257 428 c 128,-1,46
 273 448 273 448 292.5 468 c 128,-1,47
 312 488 312 488 328 513 c 128,-1,48
 344 538 344 538 344 578 c 1,49,50
 342 610 342 610 318.5 633 c 128,-1,51
 295 656 295 656 261 656 c 0,0,1
EndSplineSet
EndChar

StartChar: paragraph
Encoding: 182 182 148
Width: 584
Flags: HW
LayerCount: 2
Fore
SplineSet
350 133 m 1,0,-1
 349 100 l 1,1,2
 349 59.8 349 59.8 258 -13 c 1,3,-1
 192 77 l 1,4,-1
 260 120 l 1,5,-1
 260 299 l 1,6,7
 150 304 150 304 89 358 c 128,-1,8
 28 412 28 412 28 500 c 0,9,10
 28 574.941176471 28 574.941176471 74.5 626 c 0,11,12
 133.696428571 691 133.696428571 691 247 691 c 2,13,-1
 528 691 l 1,14,-1
 528 611 l 1,15,-1
 480 611 l 1,16,-1
 480 0 l 1,17,-1
 395 0 l 1,18,-1
 395 611 l 1,19,-1
 350 611 l 1,20,-1
 350 133 l 1,0,-1
EndSplineSet
EndChar

StartChar: ntilde
Encoding: 241 241 149
Width: 530
Flags: HW
LayerCount: 2
Fore
SplineSet
181 449 m 1,0,1
 228.571428571 486 228.571428571 486 301 486 c 0,2,3
 404.735849057 486 404.735849057 486 437.5 410.5 c 0,4,5
 449 384 449 384 449 346 c 2,6,-1
 449 71 l 1,7,-1
 509 54 l 1,8,-1
 509 0 l 1,9,-1
 310 0 l 1,10,-1
 298 54 l 1,11,-1
 359 68 l 1,12,-1
 359 331 l 2,13,14
 359 376 359 376 338 392.5 c 128,-1,15
 317 409 317 409 286 409 c 128,-1,16
 255 409 255 409 226 396 c 128,-1,17
 197 383 197 383 184 370 c 1,18,-1
 184 70 l 1,19,-1
 242 54 l 1,20,-1
 242 0 l 1,21,-1
 43 0 l 1,22,-1
 31 54 l 1,23,-1
 94 68 l 1,24,-1
 94 408 l 1,25,-1
 39 404 l 1,26,-1
 29 464 l 1,27,28
 42 466 42 466 59 469.5 c 128,-1,29
 76 473 76 473 93 476 c 128,-1,30
 110 479 110 479 126 481.5 c 128,-1,31
 142 484 142 484 152 486 c 1,32,-1
 181 449 l 1,0,1
228 596 m 0,33,34
 191.529411765 596 191.529411765 596 173 551 c 1,35,-1
 120 585 l 1,36,37
 120 613 120 613 146 641 c 0,38,39
 178.5 676 178.5 676 226 676 c 0,40,41
 262.285714286 676 262.285714286 676 312 647 c 0,42,43
 324 640 324 640 335 636 c 1,44,-1
 336 633 l 1,45,-1
 382 680 l 1,46,-1
 438 614 l 1,47,48
 417 591 417 591 394.5 575 c 128,-1,49
 372 559 372 559 348.5 559 c 128,-1,50
 325 559 325 559 310.5 565 c 128,-1,51
 296 571 296 571 282.5 577.5 c 128,-1,52
 269 584 269 584 256 590 c 128,-1,53
 243 596 243 596 228 596 c 0,33,34
EndSplineSet
EndChar

StartChar: section
Encoding: 167 167 150
Width: 503
Flags: HW
LayerCount: 2
Fore
SplineSet
109 406 m 1,0,1
 52 454.230769231 52 454.230769231 52 523 c 0,2,3
 52 594.636363636 52 594.636363636 110.5 642.5 c 0,4,5
 169.777777778 691 169.777777778 691 259 691 c 0,6,7
 345.307692308 691 345.307692308 691 433 661 c 1,8,-1
 446 489 l 1,9,-1
 377 489 l 1,10,-1
 334 602 l 1,11,12
 306 612 306 612 260.5 612 c 128,-1,13
 215 612 215 612 185.5 590 c 128,-1,14
 156 568 156 568 156 539 c 128,-1,15
 156 510 156 510 171.5 492 c 128,-1,16
 187 474 187 474 210.5 459.5 c 128,-1,17
 234 445 234 445 261.5 434 c 128,-1,18
 289 423 289 423 321.5 407 c 128,-1,19
 354 391 354 391 382 371.5 c 128,-1,20
 410 352 410 352 427 331.5 c 0,21,22
 459 292.911764706 459 292.911764706 459 235.455882353 c 128,-1,23
 459 178 459 178 405 124 c 1,24,25
 451 80.0909090909 451 80.0909090909 451 17 c 0,26,27
 451 -70.4603174603 451 -70.4603174603 381.5 -119 c 0,28,29
 321.363636364 -161 321.363636364 -161 225 -161 c 0,30,31
 170 -161 170 -161 129.5 -150.5 c 128,-1,32
 89 -140 89 -140 48 -124 c 1,33,-1
 56 45 l 1,34,-1
 124 45 l 1,35,-1
 138 -68 l 1,36,37
 185.6 -82 185.6 -82 218.8 -82 c 128,-1,38
 252 -82 252 -82 273 -77.5 c 128,-1,39
 294 -73 294 -73 310.5 -62.5 c 0,40,41
 347 -39.2727272727 347 -39.2727272727 347 -2.63636363636 c 128,-1,42
 347 34 347 34 325.5 55 c 128,-1,43
 304 76 304 76 271 93.5 c 128,-1,44
 238 111 238 111 200.5 127.5 c 128,-1,45
 163 144 163 144 130 165.5 c 0,46,47
 54 215.015151515 54 215.015151515 54 285.299242424 c 128,-1,48
 54 355.583333333 54 355.583333333 109 406 c 1,0,1
331 177 m 1,49,50
 354 207.666666667 354 207.666666667 354 230.833333333 c 128,-1,51
 354 254 354 254 338.5 271.5 c 128,-1,52
 323 289 323 289 298.5 303.5 c 128,-1,53
 274 318 274 318 243.5 331.5 c 128,-1,54
 213 345 213 345 183 360 c 1,55,56
 158 335 158 335 158 304 c 128,-1,57
 158 273 158 273 188 252 c 128,-1,58
 218 231 218 231 252 215.5 c 0,59,60
 309.490909091 189.290909091 309.490909091 189.290909091 331 177 c 1,49,50
EndSplineSet
EndChar

StartChar: copyright
Encoding: 169 169 151
Width: 716
Flags: HW
LayerCount: 2
Fore
SplineSet
290 290.5 m 128,-1,1
 320 259 320 259 364.625 259 c 128,-1,2
 409.25 259 409.25 259 445 281 c 1,3,-1
 471 216 l 1,4,5
 423.090909091 185 423.090909091 185 377.045454545 185 c 128,-1,6
 331 185 331 185 297 198 c 128,-1,7
 263 211 263 211 237.5 234.5 c 0,8,9
 183 284.725490196 183 284.725490196 183 367 c 0,10,11
 183 455.568627451 183 455.568627451 237.5 509 c 0,12,13
 289.52 560 289.52 560 371 560 c 0,14,15
 399 560 399 560 417 558 c 1,16,-1
 443 553 l 1,17,-1
 452 432 l 1,18,-1
 405 432 l 1,19,-1
 391 483 l 1,20,21
 373 484 l 1,22,23
 322 484 322 484 291 456 c 128,-1,24
 260 428 260 428 260 375 c 128,-1,0
 260 322 260 322 290 290.5 c 128,-1,1
120 373.5 m 0,25,26
 120 324 120 324 138.5 281 c 128,-1,27
 157 238 157 238 189.5 205.5 c 0,28,29
 259 136 259 136 358 136 c 128,-1,30
 457 136 457 136 526.5 205.5 c 128,-1,31
 596 275 596 275 596 374 c 128,-1,32
 596 473 596 473 526.5 542.5 c 128,-1,33
 457 612 457 612 358 612 c 128,-1,34
 259 612 259 612 189.5 542.5 c 128,-1,35
 120 473 120 473 120 373.5 c 0,25,26
57.5 246.5 m 128,-1,37
 32 306 32 306 32 373.5 c 128,-1,38
 32 441 32 441 57.5 500.5 c 128,-1,39
 83 560 83 560 127 604.5 c 128,-1,40
 171 649 171 649 230.5 674.5 c 128,-1,41
 290 700 290 700 357.5 700 c 128,-1,42
 425 700 425 700 484.5 674.5 c 128,-1,43
 544 649 544 649 588.5 604.5 c 128,-1,44
 633 560 633 560 658.5 500.5 c 128,-1,45
 684 441 684 441 684 373.5 c 128,-1,46
 684 306 684 306 658.5 246.5 c 128,-1,47
 633 187 633 187 588.5 143 c 128,-1,48
 544 99 544 99 484.5 73.5 c 128,-1,49
 425 48 425 48 357.5 48 c 128,-1,50
 290 48 290 48 230.5 73.5 c 128,-1,51
 171 99 171 99 127 143 c 128,-1,36
 83 187 83 187 57.5 246.5 c 128,-1,37
EndSplineSet
EndChar

StartChar: guillemotleft
Encoding: 171 171 152
Width: 461
Flags: HW
LayerCount: 2
Fore
SplineSet
6 339 m 1,0,-1
 219 553 l 1,1,-1
 273 499 l 1,2,-1
 112 338 l 1,3,-1
 273 176 l 1,4,-1
 219 123 l 1,5,-1
 6 339 l 1,0,-1
176 339 m 1,6,-1
 368 532 l 1,7,-1
 422 478 l 1,8,-1
 282 338 l 1,9,-1
 422 197 l 1,10,-1
 368 144 l 1,11,-1
 176 339 l 1,6,-1
EndSplineSet
EndChar

StartChar: logicalnot
Encoding: 172 172 153
Width: 588
Flags: HW
LayerCount: 2
Fore
SplineSet
49 380 m 1,0,-1
 49 444 l 1,1,-1
 60 455 l 1,2,-1
 513 455 l 1,3,-1
 524 444 l 1,4,-1
 524 242 l 2,5,6
 524 235 524 235 516 235 c 2,7,-1
 446 235 l 1,8,-1
 446 380 l 1,9,-1
 49 380 l 1,0,-1
EndSplineSet
EndChar

StartChar: registered
Encoding: 174 174 154
Width: 716
Flags: HW
LayerCount: 2
Fore
SplineSet
57.5 246.5 m 128,-1,1
 32 306 32 306 32 373.5 c 128,-1,2
 32 441 32 441 57.5 500.5 c 128,-1,3
 83 560 83 560 127 604.5 c 128,-1,4
 171 649 171 649 230.5 674.5 c 128,-1,5
 290 700 290 700 357.5 700 c 128,-1,6
 425 700 425 700 484.5 674.5 c 128,-1,7
 544 649 544 649 588.5 604.5 c 128,-1,8
 633 560 633 560 658.5 500.5 c 128,-1,9
 684 441 684 441 684 373.5 c 128,-1,10
 684 306 684 306 658.5 246.5 c 128,-1,11
 633 187 633 187 588.5 143 c 128,-1,12
 544 99 544 99 484.5 73.5 c 128,-1,13
 425 48 425 48 357.5 48 c 128,-1,14
 290 48 290 48 230.5 73.5 c 128,-1,15
 171 99 171 99 127 143 c 128,-1,0
 83 187 83 187 57.5 246.5 c 128,-1,1
120 373.5 m 0,16,17
 120 324 120 324 138.5 281 c 128,-1,18
 157 238 157 238 189.5 205.5 c 0,19,20
 259 136 259 136 358 136 c 128,-1,21
 457 136 457 136 526.5 205.5 c 128,-1,22
 596 275 596 275 596 374 c 128,-1,23
 596 473 596 473 526.5 542.5 c 128,-1,24
 457 612 457 612 358 612 c 128,-1,25
 259 612 259 612 189.5 542.5 c 128,-1,26
 120 473 120 473 120 373.5 c 0,16,17
495 436 m 0,27,28
 495 364.379310345 495 364.379310345 430 333 c 1,29,-1
 476 249 l 1,30,-1
 507 243 l 1,31,-1
 507 193 l 1,32,-1
 419 193 l 1,33,-1
 362 316 l 1,34,35
 351 314 351 314 341 314 c 2,36,-1
 321 314 l 1,37,-1
 321 250 l 1,38,-1
 367 239 l 1,39,-1
 367 193 l 1,40,-1
 233 193 l 1,41,-1
 229 241 l 1,42,-1
 252 249 l 1,43,-1
 252 496 l 1,44,-1
 228 501 l 1,45,-1
 228 559 l 1,46,-1
 328 559 l 2,47,48
 413.088235294 559 413.088235294 559 456.5 523 c 0,49,50
 495 491.073170732 495 491.073170732 495 436 c 0,27,28
335 379 m 2,51,52
 422 379 422 379 422 435.5 c 128,-1,53
 422 492 422 492 339 492 c 2,54,-1
 321 492 l 1,55,-1
 321 379 l 1,56,-1
 335 379 l 2,51,52
EndSplineSet
EndChar

StartChar: Atilde
Encoding: 195 195 155
Width: 608
Flags: HW
LayerCount: 2
Fore
SplineSet
-1 62 m 1,0,-1
 51 80 l 1,1,-1
 253 691 l 1,2,-1
 349 691 l 1,3,-1
 562 80 l 1,4,-1
 608 62 l 1,5,-1
 597 0 l 1,6,-1
 362 0 l 1,7,-1
 362 59 l 1,8,-1
 450 80 l 1,9,-1
 402 228 l 1,10,-1
 188 228 l 1,11,-1
 142 80 l 1,12,-1
 228 60 l 1,13,-1
 228 0 l 1,14,-1
 12 0 l 1,15,-1
 -1 62 l 1,0,-1
504 791 m 1,16,17
 449.1 730 449.1 730 404 730 c 0,18,19
 380 730 380 730 363 737.5 c 128,-1,20
 346 745 346 745 330.5 754 c 128,-1,21
 315 763 315 763 299 770.5 c 128,-1,22
 283 778 283 778 256.5 778 c 128,-1,23
 230 778 230 778 214 761 c 128,-1,24
 198 744 198 744 190 727 c 1,25,-1
 134 761 l 1,26,-1
 134 778 l 1,27,28
 155.650793651 826.714285714 155.650793651 826.714285714 206.5 848 c 0,29,30
 228 857 228 857 261.5 857 c 128,-1,31
 295 857 295 857 323.5 841 c 128,-1,32
 352 825 352 825 375 808 c 1,33,-1
 384 802 l 1,34,-1
 445 858 l 1,35,-1
 504 791 l 1,16,17
214 314 m 1,36,-1
 374 314 l 1,37,-1
 292 565 l 1,38,-1
 214 314 l 1,36,-1
EndSplineSet
EndChar

StartChar: Ntilde
Encoding: 209 209 156
Width: 696
Flags: HW
LayerCount: 2
Fore
SplineSet
194 161 m 1,0,-1
 195 89.5 l 2,1,2
 195 84 195 84 196 81 c 1,3,-1
 253 71 l 1,4,-1
 253 0 l 1,5,-1
 59 0 l 1,6,-1
 47 71 l 1,7,-1
 110 84 l 1,8,-1
 110 609 l 1,9,-1
 50 615 l 1,10,-1
 50 691 l 1,11,-1
 259 691 l 1,12,-1
 511 96 l 1,13,-1
 511 609 l 1,14,-1
 449 617 l 1,15,-1
 449 691 l 1,16,-1
 646 691 l 1,17,-1
 659 616 l 1,18,-1
 595 604 l 1,19,-1
 595 0 l 1,20,-1
 478 0 l 1,21,-1
 194 597 l 1,22,-1
 194 161 l 1,0,-1
537 791 m 1,23,24
 482.1 730 482.1 730 437 730 c 0,25,26
 413 730 413 730 396 737.5 c 128,-1,27
 379 745 379 745 363.5 754 c 128,-1,28
 348 763 348 763 332 770.5 c 128,-1,29
 316 778 316 778 289.5 778 c 128,-1,30
 263 778 263 778 247 761 c 128,-1,31
 231 744 231 744 223 727 c 1,32,-1
 167 761 l 1,33,-1
 167 778 l 1,34,35
 188.650793651 826.714285714 188.650793651 826.714285714 239.5 848 c 0,36,37
 261 857 261 857 294.5 857 c 128,-1,38
 328 857 328 857 356.5 841 c 128,-1,39
 385 825 385 825 408 808 c 1,40,-1
 417 802 l 1,41,-1
 478 858 l 1,42,-1
 537 791 l 1,23,24
EndSplineSet
EndChar

StartChar: Otilde
Encoding: 213 213 157
Width: 651
Flags: HW
LayerCount: 2
Fore
SplineSet
148 342 m 256,0,1
 148 233.837209302 148 233.837209302 191.5 161 c 0,2,3
 238.680555556 82 238.680555556 82 325 82 c 256,4,5
 411.722222222 82 411.722222222 82 460 161 c 0,6,7
 504 233 504 233 504 342 c 256,8,9
 504 452.5 504 452.5 460 525.5 c 0,10,11
 411.479452055 606 411.479452055 606 325 606 c 256,12,13
 238.917808219 606 238.917808219 606 191.5 525.5 c 0,14,15
 148 451.651162791 148 451.651162791 148 342 c 256,0,1
325 -4 m 256,16,17
 188.833333333 -4 188.833333333 -4 113 100 c 0,18,19
 43 196 43 196 43 344 c 256,20,21
 43 492 43 492 113 588 c 0,22,23
 188.833333333 692 188.833333333 692 325 692 c 256,24,25
 460.583333333 692 460.583333333 692 537.5 588 c 0,26,27
 609 491.323943662 609 491.323943662 609 344 c 256,28,29
 609 196.676056338 609 196.676056338 537.5 100 c 0,30,31
 460.583333333 -4 460.583333333 -4 325 -4 c 256,16,17
454 858 m 1,32,-1
 513 791 l 1,33,34
 481.25 751.3125 481.25 751.3125 441 735.5 c 0,35,36
 427 730 427 730 408.5 730 c 128,-1,37
 390 730 390 730 372.5 737.5 c 128,-1,38
 355 745 355 745 340 754 c 128,-1,39
 325 763 325 763 309 770.5 c 128,-1,40
 293 778 293 778 267 778 c 0,41,42
 226 778 226 778 199 727 c 1,43,-1
 145 761 l 1,44,-1
 145 778 l 1,45,46
 166.879365079 827.228571429 166.879365079 827.228571429 216.5 848 c 0,47,48
 238 857 238 857 273 857 c 128,-1,49
 308 857 308 857 339 838.5 c 128,-1,50
 370 820 370 820 393 802 c 1,51,-1
 454 858 l 1,32,-1
EndSplineSet
EndChar

StartChar: ae
Encoding: 230 230 158
Width: 704
Flags: HW
LayerCount: 2
Fore
SplineSet
362 422 m 1,0,1
 426 486 426 486 517 486 c 0,2,3
 584.333333333 486 584.333333333 486 629 452.5 c 0,4,5
 676 417.25 676 417.25 676 355 c 0,6,7
 676 251 676 251 540 217 c 0,8,9
 492 205 492 205 425 205 c 2,10,-1
 407 205 l 2,11,12
 398 205 398 205 388 206 c 1,13,14
 397.742268041 111.824742268 397.742268041 111.824742268 468.5 81.5 c 0,15,16
 493 71 493 71 528.5 71 c 128,-1,17
 564 71 564 71 592.5 85 c 128,-1,18
 621 99 621 99 632 108 c 1,19,-1
 651 40 l 1,20,21
 639 27 639 27 603 11.5 c 128,-1,22
 567 -4 567 -4 514 -4 c 128,-1,23
 461 -4 461 -4 411.5 18.5 c 128,-1,24
 362 41 362 41 330 89 c 1,25,26
 304.449472097 26.9487179487 304.449472097 26.9487179487 241 3.5 c 0,27,28
 218 -5 218 -5 189 -5 c 0,29,30
 119 -5 119 -5 77.5 33 c 128,-1,31
 36 71 36 71 36 123.5 c 128,-1,32
 36 176 36 176 58.5 207 c 128,-1,33
 81 238 81 238 117.5 256.5 c 0,34,35
 183.594594595 290 183.594594595 290 293 290 c 1,36,-1
 293 361 l 2,37,38
 293 381 293 381 274.5 397.5 c 128,-1,39
 256 414 256 414 217 414 c 0,40,41
 179.777777778 414 179.777777778 414 162 398 c 1,42,-1
 142 333 l 1,43,-1
 37 364 l 1,44,45
 60.3463414634 447.379790941 60.3463414634 447.379790941 150.5 476 c 0,46,47
 182 486 182 486 222 486 c 0,48,49
 319.333333333 486 319.333333333 486 362 422 c 1,0,1
293 217 m 1,50,51
 131 217 131 217 131 134 c 0,52,53
 131 99.2272727273 131 99.2272727273 157 81.5 c 0,54,55
 175.333333333 69 175.333333333 69 198.666666667 69 c 128,-1,56
 222 69 222 69 237.5 75.5 c 128,-1,57
 253 82 253 82 264.5 91 c 0,58,59
 285.019607843 107.058823529 285.019607843 107.058823529 293 131 c 1,60,-1
 293 217 l 1,50,51
546.5 405 m 128,-1,62
 533 411 533 411 513 411 c 128,-1,63
 493 411 493 411 472.5 403 c 128,-1,64
 452 395 452 395 435 378.5 c 0,65,66
 395.264646465 339.933333333 395.264646465 339.933333333 388 280 c 1,67,-1
 425 280 l 2,68,69
 491.466666667 280 491.466666667 280 521.233333333 289.5 c 128,-1,70
 551 299 551 299 566 313.5 c 128,-1,71
 581 328 581 328 581 344.5 c 128,-1,72
 581 361 581 361 578 371.5 c 128,-1,73
 575 382 575 382 567.5 390.5 c 128,-1,61
 560 399 560 399 546.5 405 c 128,-1,62
EndSplineSet
EndChar

StartChar: Eth
Encoding: 208 208 159
Width: 632
Flags: HW
LayerCount: 2
Fore
SplineSet
37 379 m 1,0,-1
 47 390 l 1,1,-1
 109 390 l 1,2,-1
 109 611 l 1,3,-1
 49 617 l 1,4,-1
 49 691 l 1,5,-1
 238 691 l 2,6,7
 401.341176471 691 401.341176471 691 497 604.5 c 0,8,9
 596 514.978723404 596 514.978723404 596 350 c 128,-1,10
 596 184.934782609 596 184.934782609 501 92 c 0,11,12
 406.955555556 2.13162820728e-14 406.955555556 2.13162820728e-14 242 0 c 2,13,-1
 58 0 l 1,14,-1
 48 71 l 1,15,-1
 109 85 l 1,16,-1
 109 311 l 1,17,-1
 37 311 l 1,18,-1
 37 379 l 1,0,-1
491 353.5 m 0,19,20
 491 417 491 417 470.5 465 c 128,-1,21
 450 513 450 513 412.5 544.5 c 0,22,23
 338.095238095 607 338.095238095 607 208 607 c 1,24,-1
 208 390 l 1,25,-1
 374 390 l 2,26,27
 381 390 381 390 381 382 c 2,28,-1
 381 311 l 1,29,-1
 208 311 l 1,30,-1
 208 86 l 1,31,-1
 232 86 l 2,32,33
 360.68115942 86 360.68115942 86 427 157.5 c 0,34,35
 491 226.5 491 226.5 491 353.5 c 0,19,20
EndSplineSet
EndChar

StartChar: AE
Encoding: 198 198 160
Width: 786
Flags: HW
LayerCount: 2
Fore
SplineSet
-12 62 m 1,0,-1
 40 80 l 1,1,-1
 296 691 l 1,2,-1
 722 691 l 1,3,-1
 742 503 l 1,4,-1
 679 503 l 1,5,-1
 641 605 l 1,6,-1
 455 605 l 1,7,-1
 455 395 l 1,8,-1
 613 395 l 1,9,-1
 613 309 l 1,10,-1
 455 309 l 1,11,-1
 455 86 l 1,12,-1
 651 86 l 1,13,-1
 686 187 l 1,14,-1
 749 187 l 1,15,-1
 729 0 l 1,16,-1
 305 0 l 1,17,-1
 295 71 l 1,18,-1
 356 84 l 1,19,-1
 356 258 l 1,20,-1
 200 258 l 1,21,-1
 129 80 l 1,22,-1
 217 60 l 1,23,-1
 217 0 l 1,24,-1
 1 0 l 1,25,-1
 -12 62 l 1,0,-1
342 612 m 1,26,-1
 235 344 l 1,27,-1
 356 344 l 1,28,-1
 356 611 l 1,29,-1
 342 612 l 1,26,-1
EndSplineSet
EndChar

StartChar: thorn
Encoding: 254 254 161
Width: 492
Flags: HW
LayerCount: 2
Fore
SplineSet
159 12 m 1,0,1
 161 -20 161 -20 161 -33 c 2,2,-1
 161 -194 l 1,3,-1
 281 -218 l 1,4,-1
 281 -273 l 1,5,-1
 22 -273 l 1,6,-1
 15 -219 l 1,7,-1
 70 -206 l 1,8,-1
 70 660 l 1,9,-1
 13 656 l 1,10,-1
 4 716 l 1,11,-1
 131 735 l 1,12,-1
 161 703 l 1,13,-1
 161 459 l 1,14,15
 202.727272727 486 202.727272727 486 252.863636364 486 c 128,-1,16
 303 486 303 486 339 469 c 128,-1,17
 375 452 375 452 401 421 c 0,18,19
 456 355.423076923 456 355.423076923 456 247 c 0,20,21
 456 110.75 456 110.75 382 46 c 0,22,23
 324.857142857 -4 324.857142857 -4 242 -4 c 0,24,25
 192 -4 192 -4 159 12 c 1,0,1
242.5 409 m 0,26,27
 218 409 218 409 195.5 399.5 c 128,-1,28
 173 390 173 390 161 376 c 1,29,-1
 161 96 l 1,30,31
 170 86 170 86 192 78.5 c 128,-1,32
 214 71 214 71 236 71 c 128,-1,33
 258 71 258 71 279 78.5 c 128,-1,34
 300 86 300 86 318.5 105.5 c 0,35,36
 361 150.297297297 361 150.297297297 361 241 c 0,37,38
 361 325.151515152 361 325.151515152 324.5 370.5 c 0,39,40
 293.512195122 409 293.512195122 409 242.5 409 c 0,26,27
EndSplineSet
EndChar

StartChar: otilde
Encoding: 245 245 162
Width: 494
Flags: HW
LayerCount: 2
Fore
SplineSet
357 679 m 1,0,-1
 413 613 l 1,1,2
 391 590 391 590 369.5 574.5 c 128,-1,3
 348 559 348 559 323.5 559 c 128,-1,4
 299 559 299 559 284.5 564.5 c 128,-1,5
 270 570 270 570 257 577 c 0,6,7
 223.571428571 595 223.571428571 595 201.785714286 595 c 128,-1,8
 180 595 180 595 166.5 581 c 128,-1,9
 153 567 153 567 148 550 c 1,10,-1
 94 584 l 1,11,12
 94 612.037037037 94 612.037037037 120.5 640.5 c 0,13,14
 153.551724138 676 153.551724138 676 200 676 c 0,15,16
 234.714285714 676 234.714285714 676 286.5 647 c 0,17,18
 299 640 299 640 310 636 c 1,19,-1
 311 633 l 1,20,-1
 357 679 l 1,0,-1
163 112.5 m 128,-1,22
 195 71 195 71 247 71 c 128,-1,23
 299 71 299 71 332 111.5 c 128,-1,24
 365 152 365 152 365 235 c 128,-1,25
 365 318 365 318 333.5 364.5 c 128,-1,26
 302 411 302 411 248 411 c 0,27,28
 191.391304348 411 191.391304348 411 160.5 362 c 0,29,30
 131 315.206896552 131 315.206896552 131 234.603448276 c 128,-1,21
 131 154 131 154 163 112.5 c 128,-1,22
36 245 m 0,31,32
 36 303 36 303 53 348 c 128,-1,33
 70 393 70 393 99.5 424 c 0,34,35
 158.5 486 158.5 486 248 486 c 0,36,37
 340.238095238 486 340.238095238 486 399.5 420.5 c 0,38,39
 460 353.631578947 460 353.631578947 460 243 c 0,40,41
 460 127.305084746 460 127.305084746 396.5 59.5 c 0,42,43
 337.031746032 -4 337.031746032 -4 248 -4 c 0,44,45
 154.692307692 -4 154.692307692 -4 95.5 63.5 c 0,46,47
 36 131.350877193 36 131.350877193 36 245 c 0,31,32
EndSplineSet
EndChar

StartChar: mu
Encoding: 181 181 163
AltUni2: 0003bc.ffffffff.0
Width: 536
Flags: HW
LayerCount: 2
Fore
SplineSet
183 147 m 1,0,1
 191.653846154 72 191.653846154 72 268 72 c 0,2,3
 303 72 303 72 337.5 99 c 0,4,5
 349 108 349 108 355 120 c 1,6,-1
 355 405 l 1,7,-1
 306 405 l 1,8,-1
 296 464 l 1,9,-1
 418 487 l 1,10,-1
 447 453 l 1,11,-1
 447 100 l 2,12,13
 447 79 447 79 451.5 73 c 128,-1,14
 456 67 456 67 466 67 c 1,15,-1
 483 69 l 1,16,-1
 497 24 l 1,17,18
 469 -4 469 -4 425 -4 c 128,-1,19
 381 -4 381 -4 363 39 c 1,20,21
 320 -4 320 -4 256 -4 c 0,22,23
 213 -4 213 -4 179 10 c 1,24,-1
 182 -5 l 1,25,-1
 182 -274 l 1,26,-1
 90 -274 l 1,27,-1
 90 406 l 1,28,-1
 36 406 l 1,29,-1
 27 464 l 1,30,-1
 151 486 l 1,31,-1
 182 454 l 1,32,-1
 182 416 l 1,33,-1
 183 302 l 1,34,-1
 183 147 l 1,0,1
EndSplineSet
EndChar

StartChar: ocircumflex
Encoding: 244 244 164
Width: 494
Flags: HW
LayerCount: 2
Fore
SplineSet
234 695 m 1,0,-1
 258 695 l 1,1,-1
 383 545 l 1,2,-1
 379 537 l 1,3,-1
 313 537 l 1,4,-1
 246 591 l 1,5,-1
 179 537 l 1,6,-1
 114 537 l 1,7,-1
 109 544 l 1,8,-1
 234 695 l 1,0,-1
163 112.5 m 128,-1,10
 195 71 195 71 247 71 c 128,-1,11
 299 71 299 71 332 111.5 c 128,-1,12
 365 152 365 152 365 235 c 128,-1,13
 365 318 365 318 333.5 364.5 c 128,-1,14
 302 411 302 411 248 411 c 0,15,16
 191.391304348 411 191.391304348 411 160.5 362 c 0,17,18
 131 315.206896552 131 315.206896552 131 234.603448276 c 128,-1,9
 131 154 131 154 163 112.5 c 128,-1,10
36 245 m 0,19,20
 36 303 36 303 53 348 c 128,-1,21
 70 393 70 393 99.5 424 c 0,22,23
 158.5 486 158.5 486 248 486 c 0,24,25
 340.238095238 486 340.238095238 486 399.5 420.5 c 0,26,27
 460 353.631578947 460 353.631578947 460 243 c 0,28,29
 460 127.305084746 460 127.305084746 396.5 59.5 c 0,30,31
 337.031746032 -4 337.031746032 -4 248 -4 c 0,32,33
 154.692307692 -4 154.692307692 -4 95.5 63.5 c 0,34,35
 36 131.350877193 36 131.350877193 36 245 c 0,19,20
EndSplineSet
EndChar

StartChar: cedilla
Encoding: 184 184 165
Width: 406
Flags: HW
LayerCount: 2
Fore
SplineSet
141 -82 m 1,0,-1
 176 15 l 1,1,-1
 275 15 l 1,2,-1
 252 -43 l 1,3,4
 289 -53 289 -53 316.5 -79.5 c 128,-1,5
 344 -106 344 -106 344 -156.5 c 128,-1,6
 344 -207 344 -207 303.5 -241.5 c 128,-1,7
 263 -276 263 -276 192 -276 c 0,8,9
 120.214285714 -276 120.214285714 -276 72 -249 c 1,10,-1
 115 -163 l 1,11,-1
 186 -210 l 1,12,13
 224.1 -210 224.1 -210 243 -183 c 0,14,15
 250 -173 250 -173 250 -154.5 c 128,-1,16
 250 -136 250 -136 232 -119 c 128,-1,17
 214 -102 214 -102 171 -102 c 1,18,-1
 158 -101 l 1,19,-1
 141 -82 l 1,0,-1
EndSplineSet
EndChar

StartChar: periodcentered
Encoding: 183 183 166
Width: 237
Flags: HW
LayerCount: 2
Fore
SplineSet
179 384 m 1,0,-1
 178 239 l 1,1,-1
 59 239 l 1,2,-1
 59 399 l 1,3,-1
 166 399 l 1,4,-1
 179 384 l 1,0,-1
EndSplineSet
EndChar

StartChar: Thorn
Encoding: 222 222 167
Width: 525
Flags: HW
LayerCount: 2
Fore
SplineSet
109 610 m 1,0,-1
 46 615 l 1,1,-1
 46 691 l 1,2,-1
 264 691 l 1,3,-1
 274 616 l 1,4,-1
 209 606 l 1,5,-1
 211 569 l 1,6,7
 358 569 358 569 431.5 518.5 c 128,-1,8
 505 468 505 468 505 362 c 0,9,10
 505 254.945945946 505 254.945945946 426 200.5 c 0,11,12
 355.62745098 152 355.62745098 152 229 152 c 2,13,-1
 209 152 l 1,14,-1
 209 81 l 1,15,-1
 324 63 l 1,16,-1
 324 0 l 1,17,-1
 55 0 l 1,18,-1
 46 72 l 1,19,-1
 109 83 l 1,20,-1
 109 610 l 1,0,-1
209 478 m 1,21,-1
 209 238 l 1,22,-1
 225 238 l 2,23,24
 322 238 322 238 361 269.5 c 128,-1,25
 400 301 400 301 400 354 c 0,26,27
 400 423 400 423 354 450.5 c 128,-1,28
 308 478 308 478 217 478 c 2,29,-1
 209 478 l 1,21,-1
EndSplineSet
EndChar

StartChar: eth
Encoding: 240 240 168
Width: 511
Flags: HW
LayerCount: 2
Fore
SplineSet
225 582 m 1,0,1
 184.12371134 613.443298969 184.12371134 613.443298969 124 641 c 1,2,-1
 161 730 l 1,3,4
 236.326599327 701.198653199 236.326599327 701.198653199 309 640 c 1,5,-1
 416 713 l 1,6,-1
 465 633 l 1,7,-1
 368 578 l 1,8,9
 459.877887789 465.95379538 459.877887789 465.95379538 469 320 c 1,10,-1
 469 300 l 2,11,12
 469 174.814814815 469 174.814814815 417 92 c 0,13,14
 356.720930233 -4 356.720930233 -4 247 -4 c 0,15,16
 143.080645161 -4 143.080645161 -4 85.5 66 c 0,17,18
 35 127.392156863 35 127.392156863 35 214 c 0,19,20
 35 307.411764706 35 307.411764706 88.5 373.5 c 0,21,22
 143.952380952 442 143.952380952 442 231 442 c 0,23,24
 314 442 314 442 358 396 c 1,25,26
 335.780313837 471.917261056 335.780313837 471.917261056 282 530 c 1,27,-1
 176 470 l 1,28,-1
 144 527 l 1,29,-1
 225 582 l 1,0,1
248 82 m 0,30,31
 343.071428571 82 343.071428571 82 367 216 c 1,32,33
 367 285 367 285 328 324 c 0,34,35
 295 357 295 357 241 357 c 0,36,37
 185.2 357 185.2 357 155.5 313 c 0,38,39
 130 275.222222222 130 275.222222222 130 214.111111111 c 128,-1,40
 130 153 130 153 163 117.5 c 128,-1,41
 196 82 196 82 248 82 c 0,30,31
EndSplineSet
EndChar

StartChar: currency
Encoding: 164 164 169
Width: 602
Flags: HW
LayerCount: 2
Fore
SplineSet
118 222 m 1,0,1
 80 276.888888889 80 276.888888889 80 346 c 256,2,3
 80 416.157894737 80 416.157894737 120 473 c 1,4,-1
 51 543 l 1,5,-1
 120 614 l 1,6,-1
 195 539 l 1,7,8
 242.769230769 566 242.769230769 566 300.384615385 566 c 128,-1,9
 358 566 358 566 406 538 c 1,10,-1
 482 614 l 1,11,-1
 552 543 l 1,12,-1
 480 472 l 1,13,14
 520 415.157894737 520 415.157894737 520 346 c 256,15,16
 520 277.888888889 520 277.888888889 482 223 c 1,17,-1
 552 155 l 1,18,-1
 482 84 l 1,19,-1
 409 156 l 1,20,21
 359.285714286 127 359.285714286 127 300.642857143 127 c 128,-1,22
 242 127 242 127 192 155 c 1,23,-1
 120 84 l 1,24,-1
 51 155 l 1,25,-1
 118 222 l 1,0,1
175 346 m 256,26,27
 175 291 175 291 210 255 c 128,-1,28
 245 219 245 219 300 219 c 256,29,30
 355 219 355 219 390 255 c 128,-1,31
 425 291 425 291 425 346 c 256,32,33
 425 401 425 401 390 437 c 128,-1,34
 355 473 355 473 300 473 c 256,35,36
 245 473 245 473 210 437 c 128,-1,37
 175 401 175 401 175 346 c 256,26,27
EndSplineSet
EndChar

StartChar: Aring
Encoding: 197 197 170
Width: 604
Flags: HW
LayerCount: 2
Fore
SplineSet
357 662 m 1,0,-1
 560 80 l 1,1,-1
 606 62 l 1,2,-1
 595 0 l 1,3,-1
 360 0 l 1,4,-1
 360 59 l 1,5,-1
 448 80 l 1,6,-1
 400 228 l 1,7,-1
 186 228 l 1,8,-1
 140 80 l 1,9,-1
 226 60 l 1,10,-1
 226 0 l 1,11,-1
 10 0 l 1,12,-1
 -3 62 l 1,13,-1
 49 80 l 1,14,-1
 241 662 l 1,15,16
 199 691.4 199 691.4 199 745 c 0,17,18
 199 787 199 787 227.5 815.5 c 0,19,20
 257 845 257 845 299 845 c 256,21,22
 341 845 341 845 370.5 815.5 c 128,-1,23
 400 786 400 786 400 739.05 c 128,-1,24
 400 692.1 400 692.1 357 662 c 1,0,-1
212 314 m 1,25,-1
 372 314 l 1,26,-1
 290 565 l 1,27,-1
 212 314 l 1,25,-1
261 745 m 256,28,29
 261 727 261 727 271.5 717 c 128,-1,30
 282 707 282 707 299.5 707 c 128,-1,31
 317 707 317 707 327.5 717 c 128,-1,32
 338 727 338 727 338 745 c 256,33,34
 338 763 338 763 327.5 773 c 128,-1,35
 317 783 317 783 299.5 783 c 128,-1,36
 282 783 282 783 271.5 773 c 128,-1,37
 261 763 261 763 261 745 c 256,28,29
EndSplineSet
EndChar

StartChar: macron
Encoding: 175 175 171
Width: 442
Flags: HW
LayerCount: 2
Fore
SplineSet
57 614 m 1,0,-1
 57 690 l 1,1,-1
 385 690 l 1,2,-1
 385 614 l 1,3,-1
 57 614 l 1,0,-1
EndSplineSet
EndChar

StartChar: ccedilla
Encoding: 231 231 172
Width: 431
Flags: HW
LayerCount: 2
Fore
SplineSet
374 112 m 1,0,-1
 396 42 l 1,1,2
 350.95890411 5.53816046967 350.95890411 5.53816046967 285 -2 c 1,3,-1
 273 -37 l 1,4,5
 299 -44 299 -44 320 -62.5 c 128,-1,6
 341 -81 341 -81 341 -119 c 256,7,8
 341 -157 341 -157 310.5 -182.5 c 128,-1,9
 280 -208 280 -208 226 -208 c 0,10,11
 185.5 -208 185.5 -208 138 -189 c 1,12,-1
 171 -123 l 1,13,-1
 225 -160 l 1,14,15
 255.0625 -160 255.0625 -160 269.5 -139 c 0,16,17
 275 -131 275 -131 275 -120 c 0,18,19
 275 -76 275 -76 204 -76 c 1,20,-1
 192 -61 l 1,21,-1
 213 -1 l 1,22,23
 136.75 12.0714285714 136.75 12.0714285714 89.5 68 c 0,24,25
 36 131.326530612 36 131.326530612 36 233 c 0,26,27
 36 364.278688525 36 364.278688525 105.5 431.5 c 0,28,29
 161.847457627 486 161.847457627 486 251 486 c 0,30,31
 315.724137931 486 315.724137931 486 364.5 451.5 c 0,32,33
 402.552287582 424.58496732 402.552287582 424.58496732 416 395 c 1,34,-1
 317 348 l 1,35,-1
 285 406 l 1,36,37
 265 411 265 411 252 411 c 0,38,39
 131 411 131 411 131 235 c 0,40,41
 131 160 131 160 167.5 115.5 c 128,-1,42
 204 71 204 71 264 71 c 0,43,44
 292 71 292 71 323 81.5 c 128,-1,45
 354 92 354 92 374 112 c 1,0,-1
EndSplineSet
EndChar

StartChar: Ccedilla
Encoding: 199 199 173
Width: 583
Flags: HW
LayerCount: 2
Fore
SplineSet
281 -76 m 1,0,-1
 309 2 l 1,1,2
 192.834394904 23.1210191083 192.834394904 23.1210191083 117.5 108.5 c 0,3,4
 35 202 35 202 35 338 c 0,5,6
 35 504.365591398 35 504.365591398 136.5 601.5 c 0,7,8
 230.02247191 691 230.02247191 691 373 691 c 0,9,10
 437.4 691 437.4 691 521 672 c 1,11,-1
 540 490 l 1,12,-1
 472 490 l 1,13,-1
 433 598 l 1,14,15
 414 605 414 605 367.5 605 c 128,-1,16
 321 605 321 605 277 584 c 128,-1,17
 233 563 233 563 202.5 528 c 0,18,19
 140 456.278688525 140 456.278688525 140 348 c 0,20,21
 140 233.272727273 140 233.272727273 209 158 c 0,22,23
 278.666666667 82 278.666666667 82 395 82 c 0,24,25
 438 82 438 82 474 95 c 128,-1,26
 510 108 510 108 526 120 c 1,27,-1
 555 41 l 1,28,29
 499.761020882 1.79814385151 499.761020882 1.79814385151 399 -3 c 1,30,-1
 385 -39 l 1,31,32
 420 -48 420 -48 445.5 -73 c 128,-1,33
 471 -98 471 -98 471 -145.5 c 128,-1,34
 471 -193 471 -193 433 -225.5 c 128,-1,35
 395 -258 395 -258 329 -258 c 0,36,37
 279.6 -258 279.6 -258 222 -234 c 1,38,-1
 216 -232 l 1,39,-1
 257 -152 l 1,40,-1
 323 -195 l 1,41,42
 358.444444444 -195 358.444444444 -195 376.5 -170 c 0,43,44
 383 -161 383 -161 383 -144 c 128,-1,45
 383 -127 383 -127 366.5 -110.5 c 128,-1,46
 350 -94 350 -94 309 -94 c 1,47,-1
 297 -93 l 1,48,-1
 281 -76 l 1,0,-1
EndSplineSet
EndChar

StartChar: guillemotright
Encoding: 187 187 174
Width: 462
Flags: HW
LayerCount: 2
Fore
SplineSet
350 337 m 1,0,-1
 189 499 l 1,1,-1
 244 553 l 1,2,-1
 457 337 l 1,3,-1
 244 123 l 1,4,-1
 190 176 l 1,5,-1
 350 337 l 1,0,-1
179 338 m 1,6,-1
 40 478 l 1,7,-1
 94 532 l 1,8,-1
 286 337 l 1,9,-1
 94 144 l 1,10,-1
 40 197 l 1,11,-1
 179 338 l 1,6,-1
EndSplineSet
EndChar

StartChar: ordfeminine
Encoding: 170 170 175
Width: 342
Flags: HW
LayerCount: 2
Fore
SplineSet
206 443 m 1,0,1
 180 417 180 417 136 417 c 128,-1,2
 92 417 92 417 65 441 c 128,-1,3
 38 465 38 465 38 498 c 128,-1,4
 38 531 38 531 51.5 550 c 128,-1,5
 65 569 65 569 87 579 c 0,6,7
 124.4 596 124.4 596 194 596 c 1,8,-1
 194 605 l 2,9,10
 194 628 194 628 182.5 635 c 128,-1,11
 171 642 171 642 160.5 642 c 0,12,13
 145 642 145 642 130 639 c 1,14,-1
 126 615 l 1,15,-1
 39 632 l 1,16,17
 48.0901213172 670.178509532 48.0901213172 670.178509532 84 691.5 c 0,18,19
 115.157894737 710 115.157894737 710 157.578947368 710 c 128,-1,20
 200 710 200 710 224.5 696.5 c 128,-1,21
 249 683 249 683 260 660 c 128,-1,22
 271 637 271 637 273 606 c 128,-1,23
 275 575 275 575 275 538.5 c 128,-1,24
 275 502 275 502 276.5 493 c 128,-1,25
 278 484 278 484 283 484 c 1,26,-1
 296 487 l 1,27,-1
 311 441 l 1,28,29
 281.666666667 419 281.666666667 419 251.46969697 419 c 128,-1,30
 221.272727273 419 221.272727273 419 206 443 c 1,0,1
194 546 m 1,31,32
 118 546 118 546 118 507 c 0,33,34
 118 497 118 497 124.5 487.5 c 128,-1,35
 131 478 131 478 149 478 c 0,36,37
 182.636363636 478 182.636363636 478 194 503 c 1,38,-1
 194 546 l 1,31,32
EndSplineSet
EndChar

StartChar: degree
Encoding: 176 176 176
Width: 305
Flags: HW
LayerCount: 2
Fore
SplineSet
112 596 m 256,0,1
 112 556.2 112 556.2 131.5 538 c 0,2,3
 139 531 139 531 151.5 531 c 128,-1,4
 164 531 164 531 171.5 537.5 c 128,-1,5
 179 544 179 544 184 554 c 0,6,7
 193 572 193 572 193 596 c 256,8,9
 193 633.866666667 193 633.866666667 171.5 652.5 c 0,10,11
 164 659 164 659 151.5 659 c 128,-1,12
 139 659 139 659 131.5 652.5 c 128,-1,13
 124 646 124 646 119.5 636 c 0,14,15
 112 619.333333333 112 619.333333333 112 596 c 256,0,1
33 596 m 128,-1,17
 33 653.8 33 653.8 64 691 c 0,18,19
 95.6666666667 729 95.6666666667 729 152 729 c 0,20,21
 206.777777778 729 206.777777778 729 239.5 691 c 0,22,23
 272 653.258064516 272 653.258064516 272 595.629032258 c 128,-1,24
 272 538 272 538 240.5 500.5 c 128,-1,25
 209 463 209 463 151.5 463 c 128,-1,26
 94 463 94 463 63.5 500.5 c 128,-1,16
 33 538 33 538 33 596 c 128,-1,17
EndSplineSet
EndChar

StartChar: uni00AD
Encoding: 173 173 177
Width: 403
Flags: HW
LayerCount: 2
Fore
SplineSet
-28 312 m 1,0,-1
 -28 398 l 1,1,-1
 430 398 l 1,2,-1
 430 312 l 1,3,-1
 -28 312 l 1,0,-1
EndSplineSet
EndChar

StartChar: twosuperior
Encoding: 178 178 178
Width: 300
Flags: HW
LayerCount: 2
Fore
SplineSet
172 614 m 0,0,1
 172 647 172 647 139 647 c 0,2,3
 128 647 128 647 118 643 c 1,4,-1
 103 607 l 1,5,-1
 35 628 l 1,6,7
 49 670 49 670 82 689.5 c 128,-1,8
 115 709 115 709 142.5 709 c 128,-1,9
 170 709 170 709 187.5 703.5 c 128,-1,10
 205 698 205 698 219 687 c 0,11,12
 251 661.857142857 251 661.857142857 251 626.928571429 c 128,-1,13
 251 592 251 592 239 569 c 128,-1,14
 227 546 227 546 210.5 528.5 c 128,-1,15
 194 511 194 511 176.5 498 c 128,-1,16
 159 485 159 485 149 476 c 1,17,-1
 201 476 l 1,18,-1
 216 510 l 1,19,-1
 258 510 l 1,20,-1
 247 418 l 1,21,-1
 56 418 l 1,22,-1
 46 461 l 1,23,-1
 81 492 l 1,24,25
 144.979899497 550.648241206 144.979899497 550.648241206 158.489949749 574.824120603 c 128,-1,26
 172 599 172 599 172 614 c 0,0,1
EndSplineSet
EndChar

StartChar: threesuperior
Encoding: 179 179 179
Width: 295
Flags: HW
LayerCount: 2
Fore
SplineSet
248 632 m 0,0,1
 248 580.136363636 248 580.136363636 199 569 c 1,2,3
 221 564 221 564 239.5 549 c 128,-1,4
 258 534 258 534 258 506.5 c 128,-1,5
 258 479 258 479 248 462.5 c 128,-1,6
 238 446 238 446 221.5 435 c 0,7,8
 190 414 190 414 147 414 c 0,9,10
 77 414 77 414 35 456 c 1,11,-1
 66 509 l 1,12,13
 83 495 83 495 99 484.5 c 128,-1,14
 115 474 115 474 137 474 c 128,-1,15
 159 474 159 474 169.5 484.5 c 128,-1,16
 180 495 180 495 180 511.5 c 0,17,18
 180 541 180 541 109 541 c 1,19,-1
 109 589 l 1,20,21
 170 589 170 589 170 624 c 0,22,23
 170 632 170 632 163 640 c 128,-1,24
 156 648 156 648 146 648 c 0,25,26
 120.5 648 120.5 648 118 643 c 2,27,-1
 104 613 l 1,28,-1
 38 635 l 1,29,30
 67 709 67 709 152 709 c 0,31,32
 187 709 187 709 208 694 c 0,33,34
 248 665.428571429 248 665.428571429 248 632 c 0,0,1
EndSplineSet
EndChar

StartChar: onequarter
Encoding: 188 188 180
Width: 656
Flags: HW
LayerCount: 2
Fore
SplineSet
578 108 m 1,0,-1
 578 55 l 1,1,-1
 620 49 l 1,2,-1
 620 0 l 1,3,-1
 414 0 l 1,4,-1
 410 44 l 1,5,-1
 494 56 l 1,6,-1
 494 108 l 1,7,-1
 335 108 l 1,8,-1
 335 181 l 1,9,-1
 490 386 l 1,10,-1
 578 386 l 1,11,-1
 578 174 l 1,12,-1
 625 174 l 1,13,-1
 625 108 l 1,14,-1
 578 108 l 1,0,-1
517 691 m 1,15,-1
 516 677 l 1,16,-1
 183 -11 l 1,17,-1
 97 0 l 1,18,-1
 94 2 l 1,19,-1
 428 691 l 1,20,-1
 517 691 l 1,15,-1
175 371 m 2,21,22
 175 362 175 362 211 362 c 1,23,-1
 211 315 l 1,24,-1
 46 315 l 1,25,-1
 46 360 l 1,26,-1
 91 367 l 1,27,-1
 91 622 l 1,28,-1
 39 614 l 1,29,-1
 31 665 l 1,30,-1
 164 703 l 1,31,-1
 176 695 l 1,32,-1
 176 639 l 2,33,34
 176 633 176 633 175 627 c 1,35,-1
 175 371 l 2,21,22
494 174 m 1,36,-1
 494 290 l 1,37,-1
 404 174 l 1,38,-1
 494 174 l 1,36,-1
EndSplineSet
EndChar

StartChar: onehalf
Encoding: 189 189 181
Width: 701
Flags: HW
LayerCount: 2
Fore
SplineSet
519 691 m 1,0,-1
 518 677 l 1,1,-1
 185 -11 l 1,2,-1
 99 0 l 1,3,-1
 96 2 l 1,4,-1
 430 691 l 1,5,-1
 519 691 l 1,0,-1
395 49 m 1,6,7
 413 68 413 68 440.5 94.5 c 128,-1,8
 468 121 468 121 493.5 152 c 0,9,10
 556 227.980392157 556 227.980392157 556 281 c 0,11,12
 556 304 556 304 542 312 c 128,-1,13
 528 320 528 320 516.5 320 c 0,14,15
 503 320 503 320 488 314 c 1,16,-1
 464 257 l 1,17,-1
 379 297 l 1,18,19
 401 342 401 342 433 365 c 128,-1,20
 465 388 465 388 507 388 c 128,-1,21
 549 388 549 388 573 379 c 128,-1,22
 597 370 597 370 612.5 354 c 0,23,24
 643 322.516129032 643 322.516129032 643 274 c 0,25,26
 643 205.428571429 643 205.428571429 568 121.5 c 0,27,28
 547 98 547 98 527 76 c 2,29,-1
 517 65 l 1,30,-1
 606 65 l 1,31,-1
 627 121 l 1,32,-1
 672 121 l 1,33,-1
 659 0 l 1,34,-1
 408 0 l 1,35,-1
 395 49 l 1,6,7
177 371 m 2,36,37
 177 362 177 362 213 362 c 1,38,-1
 213 315 l 1,39,-1
 48 315 l 1,40,-1
 48 360 l 1,41,-1
 93 367 l 1,42,-1
 93 622 l 1,43,-1
 41 614 l 1,44,-1
 33 665 l 1,45,-1
 166 703 l 1,46,-1
 178 695 l 1,47,-1
 178 639 l 2,48,49
 178 633 178 633 177 627 c 1,50,-1
 177 371 l 2,36,37
EndSplineSet
EndChar

StartChar: threequarters
Encoding: 190 190 182
Width: 706
Flags: HW
LayerCount: 2
Fore
SplineSet
626 108 m 1,0,-1
 626 55 l 1,1,-1
 668 49 l 1,2,-1
 668 0 l 1,3,-1
 462 0 l 1,4,-1
 458 44 l 1,5,-1
 542 56 l 1,6,-1
 542 108 l 1,7,-1
 383 108 l 1,8,-1
 383 181 l 1,9,-1
 538 386 l 1,10,-1
 626 386 l 1,11,-1
 626 174 l 1,12,-1
 673 174 l 1,13,-1
 673 108 l 1,14,-1
 626 108 l 1,0,-1
572 691 m 1,15,-1
 571 677 l 1,16,-1
 238 -11 l 1,17,-1
 152 0 l 1,18,-1
 149 2 l 1,19,-1
 482 691 l 1,20,-1
 572 691 l 1,15,-1
220 427 m 0,21,22
 220 482 220 482 136 482 c 2,23,-1
 123 482 l 1,24,-1
 123 540 l 1,25,-1
 136 540 l 2,26,27
 175 540 175 540 189 547 c 0,28,29
 217 561 217 561 217 585.5 c 128,-1,30
 217 610 217 610 199 621.5 c 128,-1,31
 181 633 181 633 165 633 c 0,32,33
 148 633 148 633 128 625 c 1,34,-1
 105 576 l 1,35,-1
 29 611 l 1,36,37
 51.1428571429 670.047619048 51.1428571429 670.047619048 120 693 c 0,38,39
 144 701 144 701 171.5 701 c 128,-1,40
 199 701 199 701 222 694.5 c 128,-1,41
 245 688 245 688 262.5 675.5 c 0,42,43
 300 648.714285714 300 648.714285714 300 598 c 0,44,45
 300 568 300 568 284 544.5 c 128,-1,46
 268 521 268 521 239 512 c 1,47,48
 271 503 271 503 288.5 481 c 128,-1,49
 306 459 306 459 306 428 c 256,50,51
 306 369.952380952 306 369.952380952 259 337.5 c 0,52,53
 217.724137931 309 217.724137931 309 168.362068966 309 c 0,54,55
 86.6666666667 309 86.6666666667 309 40 344 c 1,56,-1
 94 400 l 1,57,58
 123.272727273 377 123.272727273 377 159 377 c 0,59,60
 195.368421053 377 195.368421053 377 213.5 403.5 c 0,61,62
 220 413 220 413 220 427 c 0,21,22
542 174 m 1,63,-1
 542 290 l 1,64,-1
 452 174 l 1,65,-1
 542 174 l 1,63,-1
EndSplineSet
EndChar

StartChar: onesuperior
Encoding: 185 185 183
Width: 237
Flags: HW
LayerCount: 2
Fore
SplineSet
87 465 m 1,0,-1
 87 644 l 1,1,-1
 43 636 l 1,2,-1
 34 683 l 1,3,-1
 152 717 l 1,4,-1
 163 701 l 1,5,-1
 163 468 l 1,6,-1
 199 460 l 1,7,-1
 199 418 l 1,8,-1
 52 418 l 1,9,-1
 49 458 l 1,10,-1
 87 465 l 1,0,-1
EndSplineSet
EndChar

StartChar: ordmasculine
Encoding: 186 186 184
Width: 334
Flags: HW
LayerCount: 2
Fore
SplineSet
127.5 614 m 128,-1,1
 114 592 114 592 114 560 c 128,-1,2
 114 528 114 528 127.5 508 c 128,-1,3
 141 488 141 488 167 488 c 256,4,5
 193 488 193 488 207 507.5 c 128,-1,6
 221 527 221 527 221 560 c 128,-1,7
 221 593 221 593 207.5 614.5 c 128,-1,8
 194 636 194 636 167.5 636 c 128,-1,0
 141 636 141 636 127.5 614 c 128,-1,1
44.5 497 m 0,9,10
 34 525 34 525 34 562.5 c 128,-1,11
 34 600 34 600 44.5 628 c 128,-1,12
 55 656 55 656 73 674.5 c 0,13,14
 108.513513514 711 108.513513514 711 167 711 c 256,15,16
 225.513513514 711 225.513513514 711 262 673.5 c 0,17,18
 300 634.444444444 300 634.444444444 300 563 c 256,19,20
 300 454.714285714 300 454.714285714 219.5 423.5 c 0,21,22
 195 414 195 414 167 414 c 256,23,24
 75.625 414 75.625 414 44.5 497 c 0,9,10
EndSplineSet
EndChar

StartChar: agrave
Encoding: 224 224 185
Width: 460
Flags: HW
LayerCount: 2
Fore
SplineSet
299 41 m 1,0,1
 255.3 -5 255.3 -5 187.15 -5 c 128,-1,2
 119 -5 119 -5 77.5 33 c 128,-1,3
 36 71 36 71 36 124 c 128,-1,4
 36 177 36 177 57.5 208 c 128,-1,5
 79 239 79 239 114.5 257 c 0,6,7
 174.925968768 287.638519375 174.925968768 287.638519375 293 290 c 1,8,-1
 293 361 l 2,9,10
 293 381 293 381 274.5 397.5 c 128,-1,11
 256 414 256 414 217 414 c 0,12,13
 179.777777778 414 179.777777778 414 162 398 c 1,14,-1
 142 333 l 1,15,-1
 37 364 l 1,16,17
 60.3463414634 447.379790941 60.3463414634 447.379790941 150.5 476 c 0,18,19
 182 486 182 486 222 486 c 0,20,21
 300 486 300 486 341.5 447 c 128,-1,22
 383 408 383 408 383 345 c 2,23,-1
 383 89 l 2,24,25
 383 68 383 68 397 68 c 0,26,27
 404 68 404 68 418 75 c 1,28,-1
 440 22 l 1,29,30
 408.8 -4 408.8 -4 371 -4 c 0,31,32
 314 -4 314 -4 299 41 c 1,0,1
180 71.5 m 128,-1,34
 192 69 192 69 207 69 c 128,-1,35
 222 69 222 69 237.5 75.5 c 128,-1,36
 253 82 253 82 264.5 91 c 0,37,38
 285.019607843 107.058823529 285.019607843 107.058823529 293 131 c 1,39,-1
 293 217 l 1,40,41
 226.764705882 217 226.764705882 217 195.882352941 206.5 c 128,-1,42
 165 196 165 196 148 179.5 c 128,-1,43
 131 163 131 163 131 138.5 c 128,-1,44
 131 114 131 114 138.5 101.5 c 128,-1,45
 146 89 146 89 157 81.5 c 128,-1,33
 168 74 168 74 180 71.5 c 128,-1,34
125 632 m 1,46,-1
 185 703 l 1,47,-1
 216 695 l 1,48,-1
 323 537 l 1,49,-1
 286 500 l 1,50,-1
 125 632 l 1,46,-1
EndSplineSet
EndChar

StartChar: acircumflex
Encoding: 226 226 186
Width: 460
Flags: HW
LayerCount: 2
Fore
SplineSet
60 541 m 1,0,-1
 193 700 l 1,1,-1
 226 700 l 1,2,-1
 360 540 l 1,3,-1
 354 529 l 1,4,-1
 276 529 l 1,5,-1
 209 581 l 1,6,-1
 142 529 l 1,7,-1
 65 529 l 1,8,-1
 60 541 l 1,0,-1
299 41 m 1,9,10
 255.3 -5 255.3 -5 187.15 -5 c 128,-1,11
 119 -5 119 -5 77.5 33 c 128,-1,12
 36 71 36 71 36 124 c 128,-1,13
 36 177 36 177 57.5 208 c 128,-1,14
 79 239 79 239 114.5 257 c 0,15,16
 174.925968768 287.638519375 174.925968768 287.638519375 293 290 c 1,17,-1
 293 361 l 2,18,19
 293 381 293 381 274.5 397.5 c 128,-1,20
 256 414 256 414 217 414 c 0,21,22
 179.777777778 414 179.777777778 414 162 398 c 1,23,-1
 142 333 l 1,24,-1
 37 364 l 1,25,26
 60.3463414634 447.379790941 60.3463414634 447.379790941 150.5 476 c 0,27,28
 182 486 182 486 222 486 c 0,29,30
 300 486 300 486 341.5 447 c 128,-1,31
 383 408 383 408 383 345 c 2,32,-1
 383 89 l 2,33,34
 383 68 383 68 397 68 c 0,35,36
 404 68 404 68 418 75 c 1,37,-1
 440 22 l 1,38,39
 408.8 -4 408.8 -4 371 -4 c 0,40,41
 314 -4 314 -4 299 41 c 1,9,10
180 71.5 m 128,-1,43
 192 69 192 69 207 69 c 128,-1,44
 222 69 222 69 237.5 75.5 c 128,-1,45
 253 82 253 82 264.5 91 c 0,46,47
 285.019607843 107.058823529 285.019607843 107.058823529 293 131 c 1,48,-1
 293 217 l 1,49,50
 226.764705882 217 226.764705882 217 195.882352941 206.5 c 128,-1,51
 165 196 165 196 148 179.5 c 128,-1,52
 131 163 131 163 131 138.5 c 128,-1,53
 131 114 131 114 138.5 101.5 c 128,-1,54
 146 89 146 89 157 81.5 c 128,-1,42
 168 74 168 74 180 71.5 c 128,-1,43
EndSplineSet
EndChar

StartChar: atilde
Encoding: 227 227 187
Width: 460
Flags: HW
LayerCount: 2
Fore
SplineSet
178 596 m 0,0,1
 141.529411765 596 141.529411765 596 123 551 c 1,2,-1
 70 585 l 1,3,4
 70 613 70 613 96 641 c 0,5,6
 128.5 676 128.5 676 176 676 c 0,7,8
 212.285714286 676 212.285714286 676 262 647 c 0,9,10
 274 640 274 640 285 636 c 1,11,-1
 286 633 l 1,12,-1
 332 680 l 1,13,-1
 388 614 l 1,14,15
 367 591 367 591 344.5 575 c 128,-1,16
 322 559 322 559 298.5 559 c 128,-1,17
 275 559 275 559 260.5 565 c 128,-1,18
 246 571 246 571 232.5 577.5 c 128,-1,19
 219 584 219 584 206 590 c 128,-1,20
 193 596 193 596 178 596 c 0,0,1
299 41 m 1,21,22
 255.3 -5 255.3 -5 187.15 -5 c 128,-1,23
 119 -5 119 -5 77.5 33 c 128,-1,24
 36 71 36 71 36 124 c 128,-1,25
 36 177 36 177 57.5 208 c 128,-1,26
 79 239 79 239 114.5 257 c 0,27,28
 174.925968768 287.638519375 174.925968768 287.638519375 293 290 c 1,29,-1
 293 361 l 2,30,31
 293 381 293 381 274.5 397.5 c 128,-1,32
 256 414 256 414 217 414 c 0,33,34
 179.777777778 414 179.777777778 414 162 398 c 1,35,-1
 142 333 l 1,36,-1
 37 364 l 1,37,38
 60.3463414634 447.379790941 60.3463414634 447.379790941 150.5 476 c 0,39,40
 182 486 182 486 222 486 c 0,41,42
 300 486 300 486 341.5 447 c 128,-1,43
 383 408 383 408 383 345 c 2,44,-1
 383 89 l 2,45,46
 383 68 383 68 397 68 c 0,47,48
 404 68 404 68 418 75 c 1,49,-1
 440 22 l 1,50,51
 408.8 -4 408.8 -4 371 -4 c 0,52,53
 314 -4 314 -4 299 41 c 1,21,22
180 71.5 m 128,-1,55
 192 69 192 69 207 69 c 128,-1,56
 222 69 222 69 237.5 75.5 c 128,-1,57
 253 82 253 82 264.5 91 c 0,58,59
 285.019607843 107.058823529 285.019607843 107.058823529 293 131 c 1,60,-1
 293 217 l 1,61,62
 226.764705882 217 226.764705882 217 195.882352941 206.5 c 128,-1,63
 165 196 165 196 148 179.5 c 128,-1,64
 131 163 131 163 131 138.5 c 128,-1,65
 131 114 131 114 138.5 101.5 c 128,-1,66
 146 89 146 89 157 81.5 c 128,-1,54
 168 74 168 74 180 71.5 c 128,-1,55
EndSplineSet
EndChar

StartChar: adieresis
Encoding: 228 228 188
Width: 460
Flags: HW
LayerCount: 2
Fore
SplineSet
69 624 m 256,0,1
 69 650 69 650 87 668 c 128,-1,2
 105 686 105 686 131 686 c 256,3,4
 157 686 157 686 175 668 c 128,-1,5
 193 650 193 650 193 624 c 256,6,7
 193 598 193 598 175 580 c 128,-1,8
 157 562 157 562 131 562 c 256,9,10
 105 562 105 562 87 580 c 128,-1,11
 69 598 69 598 69 624 c 256,0,1
230 624 m 256,12,13
 230 650 230 650 248 668 c 128,-1,14
 266 686 266 686 292 686 c 256,15,16
 318 686 318 686 336 668 c 128,-1,17
 354 650 354 650 354 624 c 256,18,19
 354 598 354 598 336 580 c 128,-1,20
 318 562 318 562 292 562 c 256,21,22
 266 562 266 562 248 580 c 128,-1,23
 230 598 230 598 230 624 c 256,12,13
299 41 m 1,24,25
 255.3 -5 255.3 -5 187.15 -5 c 128,-1,26
 119 -5 119 -5 77.5 33 c 128,-1,27
 36 71 36 71 36 124 c 128,-1,28
 36 177 36 177 57.5 208 c 128,-1,29
 79 239 79 239 114.5 257 c 0,30,31
 174.925968768 287.638519375 174.925968768 287.638519375 293 290 c 1,32,-1
 293 361 l 2,33,34
 293 381 293 381 274.5 397.5 c 128,-1,35
 256 414 256 414 217 414 c 0,36,37
 179.777777778 414 179.777777778 414 162 398 c 1,38,-1
 142 333 l 1,39,-1
 37 364 l 1,40,41
 60.3463414634 447.379790941 60.3463414634 447.379790941 150.5 476 c 0,42,43
 182 486 182 486 222 486 c 0,44,45
 300 486 300 486 341.5 447 c 128,-1,46
 383 408 383 408 383 345 c 2,47,-1
 383 89 l 2,48,49
 383 68 383 68 397 68 c 0,50,51
 404 68 404 68 418 75 c 1,52,-1
 440 22 l 1,53,54
 408.8 -4 408.8 -4 371 -4 c 0,55,56
 314 -4 314 -4 299 41 c 1,24,25
180 71.5 m 128,-1,58
 192 69 192 69 207 69 c 128,-1,59
 222 69 222 69 237.5 75.5 c 128,-1,60
 253 82 253 82 264.5 91 c 0,61,62
 285.019607843 107.058823529 285.019607843 107.058823529 293 131 c 1,63,-1
 293 217 l 1,64,65
 226.764705882 217 226.764705882 217 195.882352941 206.5 c 128,-1,66
 165 196 165 196 148 179.5 c 128,-1,67
 131 163 131 163 131 138.5 c 128,-1,68
 131 114 131 114 138.5 101.5 c 128,-1,69
 146 89 146 89 157 81.5 c 128,-1,57
 168 74 168 74 180 71.5 c 128,-1,58
EndSplineSet
EndChar

StartChar: aring
Encoding: 229 229 189
Width: 460
Flags: HW
LayerCount: 2
Fore
SplineSet
190 630 m 256,0,1
 190 615 190 615 200.5 604.5 c 128,-1,2
 211 594 211 594 226 594 c 256,3,4
 241 594 241 594 252 604.5 c 128,-1,5
 263 615 263 615 263 630 c 256,6,7
 263 645 263 645 252 655.5 c 128,-1,8
 241 666 241 666 226 666 c 256,9,10
 211 666 211 666 200.5 655.5 c 128,-1,11
 190 645 190 645 190 630 c 256,0,1
131 630 m 256,12,13
 131 670 131 670 158.5 697.5 c 128,-1,14
 186 725 186 725 226.5 725 c 128,-1,15
 267 725 267 725 294.5 697.5 c 128,-1,16
 322 670 322 670 322 630 c 256,17,18
 322 590 322 590 294.5 562.5 c 128,-1,19
 267 535 267 535 226.5 535 c 128,-1,20
 186 535 186 535 158.5 562.5 c 128,-1,21
 131 590 131 590 131 630 c 256,12,13
299 41 m 1,22,23
 255.3 -5 255.3 -5 187.15 -5 c 128,-1,24
 119 -5 119 -5 77.5 33 c 128,-1,25
 36 71 36 71 36 124 c 128,-1,26
 36 177 36 177 57.5 208 c 128,-1,27
 79 239 79 239 114.5 257 c 0,28,29
 174.925968768 287.638519375 174.925968768 287.638519375 293 290 c 1,30,-1
 293 361 l 2,31,32
 293 381 293 381 274.5 397.5 c 128,-1,33
 256 414 256 414 217 414 c 0,34,35
 179.777777778 414 179.777777778 414 162 398 c 1,36,-1
 142 333 l 1,37,-1
 37 364 l 1,38,39
 60.3463414634 447.379790941 60.3463414634 447.379790941 150.5 476 c 0,40,41
 182 486 182 486 222 486 c 0,42,43
 300 486 300 486 341.5 447 c 128,-1,44
 383 408 383 408 383 345 c 2,45,-1
 383 89 l 2,46,47
 383 68 383 68 397 68 c 0,48,49
 404 68 404 68 418 75 c 1,50,-1
 440 22 l 1,51,52
 408.8 -4 408.8 -4 371 -4 c 0,53,54
 314 -4 314 -4 299 41 c 1,22,23
180 71.5 m 128,-1,56
 192 69 192 69 207 69 c 128,-1,57
 222 69 222 69 237.5 75.5 c 128,-1,58
 253 82 253 82 264.5 91 c 0,59,60
 285.019607843 107.058823529 285.019607843 107.058823529 293 131 c 1,61,-1
 293 217 l 1,62,63
 226.764705882 217 226.764705882 217 195.882352941 206.5 c 128,-1,64
 165 196 165 196 148 179.5 c 128,-1,65
 131 163 131 163 131 138.5 c 128,-1,66
 131 114 131 114 138.5 101.5 c 128,-1,67
 146 89 146 89 157 81.5 c 128,-1,55
 168 74 168 74 180 71.5 c 128,-1,56
EndSplineSet
EndChar

StartChar: bullet
Encoding: 8226 8226 190
Width: 259
Flags: HW
LayerCount: 2
Fore
SplineSet
43 383 m 256,0,1
 43 419 43 419 68 444.5 c 128,-1,2
 93 470 93 470 129 470 c 256,3,4
 165 470 165 470 190.5 444.5 c 128,-1,5
 216 419 216 419 216 383 c 256,6,7
 216 347 216 347 190.5 322 c 128,-1,8
 165 297 165 297 129 297 c 256,9,10
 93 297 93 297 68 322 c 128,-1,11
 43 347 43 347 43 383 c 256,0,1
EndSplineSet
EndChar

StartChar: OE
Encoding: 338 338 191
Width: 873
Flags: HW
LayerCount: 2
Fore
SplineSet
390 0 m 1,0,1
 356 -4 356 -4 325 -4 c 0,2,3
 188.833333333 -4 188.833333333 -4 113 100 c 0,4,5
 43 196 43 196 43 344 c 256,6,7
 43 492 43 492 113 588 c 0,8,9
 188.833333333 692 188.833333333 692 325 692 c 1,10,-1
 352 691 l 1,11,-1
 809 691 l 1,12,-1
 829 503 l 1,13,-1
 766 503 l 1,14,-1
 728 605 l 1,15,-1
 542 605 l 1,16,-1
 542 395 l 1,17,-1
 700 395 l 1,18,-1
 700 309 l 1,19,-1
 542 309 l 1,20,-1
 542 86 l 1,21,-1
 738 86 l 1,22,-1
 773 187 l 1,23,-1
 836 187 l 1,24,-1
 816 0 l 1,25,-1
 390 0 l 1,0,1
443 568 m 1,26,27
 395.5 606 395.5 606 345.25 606 c 128,-1,28
 295 606 295 606 258.5 584 c 128,-1,29
 222 562 222 562 197.5 525.5 c 0,30,31
 148 451.755102041 148 451.755102041 148 342 c 256,32,33
 148 236.529411765 148 236.529411765 201.5 161 c 0,34,35
 257.458333333 82 257.458333333 82 345 82 c 0,36,37
 409.52173913 82 409.52173913 82 443 117 c 1,38,-1
 443 568 l 1,26,27
EndSplineSet
EndChar

StartChar: oe
Encoding: 339 339 192
Width: 775
Flags: HW
LayerCount: 2
Fore
SplineSet
594 -4 m 0,0,1
 472.523809524 -4 472.523809524 -4 412 78 c 1,2,3
 382 37 382 37 339 16.5 c 128,-1,4
 296 -4 296 -4 248.5 -4 c 128,-1,5
 201 -4 201 -4 162.5 13.5 c 128,-1,6
 124 31 124 31 95.5 63.5 c 0,7,8
 36 131.350877193 36 131.350877193 36 243 c 0,9,10
 36 357.271186441 36 357.271186441 99.5 424 c 0,11,12
 158.5 486 158.5 486 248 486 c 0,13,14
 354.87804878 486 354.87804878 486 415 401 c 1,15,16
 446 443 446 443 490 464.5 c 128,-1,17
 534 486 534 486 574 486 c 128,-1,18
 614 486 614 486 642.5 477 c 128,-1,19
 671 468 671 468 692.5 451 c 0,20,21
 739 414.23255814 739 414.23255814 739 352 c 0,22,23
 739 280.8 739 280.8 688 240 c 0,24,25
 620.268656716 185.814925373 620.268656716 185.814925373 466 184 c 1,26,27
 482.400394477 105.278106509 482.400394477 105.278106509 547 80 c 0,28,29
 570 71 570 71 597 71 c 128,-1,30
 624 71 624 71 643 75.5 c 128,-1,31
 662 80 662 80 676 86.5 c 0,32,33
 703.066666667 99.0666666667 703.066666667 99.0666666667 714 110 c 1,34,-1
 736 40 l 1,35,36
 725.142857143 29.1428571429 725.142857143 29.1428571429 698.571428571 18.0714285714 c 0,37,38
 645.6 -4 645.6 -4 594 -4 c 0,0,1
163 112.5 m 128,-1,40
 195 71 195 71 247 71 c 128,-1,41
 299 71 299 71 332 111.5 c 128,-1,42
 365 152 365 152 365 235 c 128,-1,43
 365 318 365 318 333.5 364.5 c 128,-1,44
 302 411 302 411 248 411 c 0,45,46
 191.391304348 411 191.391304348 411 160.5 362 c 0,47,48
 131 315.206896552 131 315.206896552 131 234.603448276 c 128,-1,39
 131 154 131 154 163 112.5 c 128,-1,40
629 392 m 128,-1,50
 614 410 614 410 585.5 410 c 128,-1,51
 557 410 557 410 537.5 401 c 128,-1,52
 518 392 518 392 502 373.5 c 0,53,54
 466.591958939 332.559452524 466.591958939 332.559452524 461 258 c 1,55,56
 534.444444444 258 534.444444444 258 570.222222222 269.5 c 128,-1,57
 606 281 606 281 625 299.5 c 128,-1,58
 644 318 644 318 644 346 c 128,-1,49
 644 374 644 374 629 392 c 128,-1,50
EndSplineSet
EndChar

StartChar: endash
Encoding: 8211 8211 193
Width: 482
Flags: HW
LayerCount: 2
Fore
SplineSet
54 376 m 1,0,-1
 425 376 l 1,1,-1
 425 301 l 1,2,-1
 54 301 l 1,3,-1
 54 376 l 1,0,-1
EndSplineSet
EndChar

StartChar: emdash
Encoding: 8212 8212 194
Width: 632
Flags: HW
LayerCount: 2
Fore
SplineSet
54 376 m 1,0,-1
 575 376 l 1,1,-1
 575 301 l 1,2,-1
 54 301 l 1,3,-1
 54 376 l 1,0,-1
EndSplineSet
EndChar

StartChar: quotedblleft
Encoding: 8220 8220 195
Width: 334
Flags: HW
LayerCount: 2
Fore
SplineSet
189 453 m 1,0,1
 178 497 178 497 178 529.5 c 128,-1,2
 178 562 178 562 185 593 c 128,-1,3
 192 624 192 624 202 650.5 c 0,4,5
 218.72 694.808 218.72 694.808 246 733 c 1,6,-1
 298 703 l 1,7,-1
 298 689 l 1,8,-1
 268 587 l 1,9,-1
 294 472 l 1,10,-1
 189 453 l 1,0,1
164 689 m 1,11,-1
 134 587 l 1,12,-1
 160 452 l 1,13,-1
 55 431 l 1,14,15
 54 435 54 435 52.5 446.5 c 128,-1,16
 51 458 51 458 49 472.5 c 0,17,18
 44 508.75 44 508.75 44 529 c 0,19,20
 44 629.75 44 629.75 103 733 c 1,21,-1
 164 703 l 1,22,-1
 164 689 l 1,11,-1
EndSplineSet
EndChar

StartChar: quotedblright
Encoding: 8221 8221 196
Width: 329
Flags: HW
LayerCount: 2
Fore
SplineSet
148 701 m 1,0,1
 159 657 159 657 159 624.5 c 128,-1,2
 159 592 159 592 152 561 c 128,-1,3
 145 530 145 530 135 503.5 c 0,4,5
 118.28 459.192 118.28 459.192 91 421 c 1,6,-1
 39 451 l 1,7,-1
 39 465 l 1,8,-1
 69 567 l 1,9,-1
 43 682 l 1,10,-1
 148 701 l 1,0,1
173 465 m 1,11,-1
 203 567 l 1,12,-1
 177 702 l 1,13,-1
 282 723 l 1,14,15
 283 719 283 719 284.5 707.5 c 128,-1,16
 286 696 286 696 288 681.5 c 0,17,18
 293 645.25 293 645.25 293 625 c 0,19,20
 293 524.25 293 524.25 234 421 c 1,21,-1
 173 451 l 1,22,-1
 173 465 l 1,11,-1
EndSplineSet
EndChar

StartChar: quoteleft
Encoding: 8216 8216 197
Width: 201
Flags: HW
LayerCount: 2
Fore
SplineSet
146 702 m 1,0,-1
 122 588 l 1,1,-1
 176 486 l 1,2,-1
 79 441 l 1,3,4
 38 506.6 38 506.6 38 584 c 0,5,6
 38 617 38 617 51 657.5 c 128,-1,7
 64 698 64 698 87 732 c 1,8,-1
 142 716 l 1,9,-1
 146 702 l 1,0,-1
EndSplineSet
EndChar

StartChar: quoteright
Encoding: 8217 8217 198
Width: 199
Flags: HW
LayerCount: 2
Fore
SplineSet
159 731 m 1,0,1
 170 687 170 687 170 654.5 c 128,-1,2
 170 622 170 622 161.5 591 c 128,-1,3
 153 560 153 560 140 533.5 c 0,4,5
 116.407407407 485.407407407 116.407407407 485.407407407 82 451 c 1,6,-1
 30 481 l 1,7,-1
 30 495 l 1,8,-1
 80 597 l 1,9,-1
 54 712 l 1,10,-1
 159 731 l 1,0,1
EndSplineSet
EndChar

StartChar: Euro
Encoding: 8364 8364 199
Width: 569
Flags: HW
LayerCount: 2
Fore
SplineSet
353 -4 m 0,0,1
 141.792792793 -4 141.792792793 -4 97 222 c 1,2,-1
 31 222 l 1,3,-1
 31 298 l 1,4,-1
 88 298 l 1,5,6
 87 308 87 308 87 317 c 2,7,-1
 87 348 l 1,8,-1
 31 348 l 1,9,-1
 31 424 l 1,10,-1
 92 424 l 1,11,12
 109 562 109 562 179.5 627.5 c 128,-1,13
 250 693 250 693 363 693 c 0,14,15
 455.333333333 693 455.333333333 693 512 676 c 1,16,-1
 531 500 l 1,17,-1
 463 500 l 1,18,-1
 424 598 l 1,19,20
 400 607 400 607 362 607 c 128,-1,21
 324 607 324 607 293 593 c 128,-1,22
 262 579 262 579 242 554 c 0,23,24
 204.529411765 507.161764706 204.529411765 507.161764706 196 424 c 1,25,-1
 450 424 l 1,26,-1
 450 348 l 1,27,-1
 192 348 l 1,28,-1
 193 298 l 1,29,-1
 450 298 l 1,30,-1
 450 222 l 1,31,-1
 201 222 l 1,32,33
 213.857142857 153.428571429 213.857142857 153.428571429 251 120 c 0,34,35
 293.222222222 82 293.222222222 82 370 82 c 0,36,37
 413 82 413 82 445.5 95 c 128,-1,38
 478 108 478 108 494 120 c 1,39,-1
 523 41 l 1,40,41
 460 -4 460 -4 353 -4 c 0,0,1
EndSplineSet
EndChar

StartChar: guilsinglleft
Encoding: 8249 8249 200
Width: 349
Flags: HW
LayerCount: 2
Fore
SplineSet
11 314 m 1,0,-1
 294 530 l 1,1,-1
 299 528 l 1,2,-1
 299 437 l 1,3,-1
 120 300 l 1,4,-1
 299 164 l 1,5,-1
 299 73 l 1,6,-1
 293 70 l 1,7,-1
 11 288 l 1,8,-1
 11 314 l 1,0,-1
EndSplineSet
EndChar

StartChar: guilsinglright
Encoding: 8250 8250 201
Width: 350
Flags: HW
LayerCount: 2
Fore
SplineSet
338 288 m 1,0,-1
 56 70 l 1,1,-1
 50 73 l 1,2,-1
 50 164 l 1,3,-1
 229 300 l 1,4,-1
 50 437 l 1,5,-1
 50 528 l 1,6,-1
 55 530 l 1,7,-1
 338 314 l 1,8,-1
 338 288 l 1,0,-1
EndSplineSet
EndChar

StartChar: quotesinglbase
Encoding: 8218 8218 202
Width: 212
Flags: HW
LayerCount: 2
Fore
SplineSet
36 -97 m 1,0,-1
 77 7 l 1,1,-1
 40 119 l 1,2,-1
 139 148 l 1,3,4
 144 140 144 140 153.5 112.5 c 128,-1,5
 163 85 163 85 163 51 c 128,-1,6
 163 17 163 17 155 -11.5 c 128,-1,7
 147 -40 147 -40 134.5 -64.5 c 0,8,9
 111.583333333 -109.416666667 111.583333333 -109.416666667 81 -140 c 1,10,-1
 36 -109 l 1,11,-1
 36 -97 l 1,0,-1
EndSplineSet
EndChar

StartChar: quotedblbase
Encoding: 8222 8222 203
Width: 346
Flags: HW
LayerCount: 2
Fore
SplineSet
274 156 m 1,0,1
 297 87 297 87 297 23 c 0,2,3
 297 -50.1379310345 297 -50.1379310345 245.5 -126.5 c 0,4,5
 231 -148 231 -148 216 -162 c 1,6,-1
 161 -132 l 1,7,-1
 161 -120 l 1,8,-1
 212 -15 l 1,9,-1
 175 127 l 1,10,-1
 274 156 l 1,0,1
33 -109 m 1,11,-1
 74 -15 l 1,12,-1
 37 97 l 1,13,-1
 132 126 l 1,14,15
 136 117 136 117 145 85 c 128,-1,16
 154 53 154 53 154 21 c 128,-1,17
 154 -11 154 -11 146.5 -35 c 128,-1,18
 139 -59 139 -59 127 -81 c 0,19,20
 105.4 -120.6 105.4 -120.6 74 -152 c 1,21,-1
 33 -121 l 1,22,-1
 33 -109 l 1,11,-1
EndSplineSet
EndChar

StartChar: a
Encoding: 97 97 204
Width: 460
Flags: HW
LayerCount: 2
Fore
SplineSet
299 41 m 1,0,1
 255.3 -5 255.3 -5 187.15 -5 c 128,-1,2
 119 -5 119 -5 77.5 33 c 128,-1,3
 36 71 36 71 36 124 c 128,-1,4
 36 177 36 177 57.5 208 c 128,-1,5
 79 239 79 239 114.5 257 c 0,6,7
 174.925968768 287.638519375 174.925968768 287.638519375 293 290 c 1,8,-1
 293 361 l 2,9,10
 293 381 293 381 274.5 397.5 c 128,-1,11
 256 414 256 414 217 414 c 0,12,13
 179.777777778 414 179.777777778 414 162 398 c 1,14,-1
 142 333 l 1,15,-1
 37 364 l 1,16,17
 60.3463414634 447.379790941 60.3463414634 447.379790941 150.5 476 c 0,18,19
 182 486 182 486 222 486 c 0,20,21
 300 486 300 486 341.5 447 c 128,-1,22
 383 408 383 408 383 345 c 2,23,-1
 383 89 l 2,24,25
 383 68 383 68 397 68 c 0,26,27
 404 68 404 68 418 75 c 1,28,-1
 440 22 l 1,29,30
 408.8 -4 408.8 -4 371 -4 c 0,31,32
 314 -4 314 -4 299 41 c 1,0,1
180 71.5 m 128,-1,34
 192 69 192 69 207 69 c 128,-1,35
 222 69 222 69 237.5 75.5 c 128,-1,36
 253 82 253 82 264.5 91 c 0,37,38
 285.019607843 107.058823529 285.019607843 107.058823529 293 131 c 1,39,-1
 293 217 l 1,40,41
 226.764705882 217 226.764705882 217 195.882352941 206.5 c 128,-1,42
 165 196 165 196 148 179.5 c 128,-1,43
 131 163 131 163 131 138.5 c 128,-1,44
 131 114 131 114 138.5 101.5 c 128,-1,45
 146 89 146 89 157 81.5 c 128,-1,33
 168 74 168 74 180 71.5 c 128,-1,34
EndSplineSet
EndChar

StartChar: b
Encoding: 98 98 205
Width: 490
Flags: HW
LayerCount: 2
Fore
SplineSet
144 19 m 1,0,1
 96 -5 96 -5 92 -6 c 1,2,-1
 69 8 l 1,3,-1
 69 656 l 1,4,-1
 11 652 l 1,5,-1
 2 712 l 1,6,-1
 129 731 l 1,7,-1
 159 699 l 1,8,-1
 159 459 l 1,9,10
 200.727272727 486 200.727272727 486 250.863636364 486 c 128,-1,11
 301 486 301 486 337 469 c 128,-1,12
 373 452 373 452 399 421 c 0,13,14
 454 355.423076923 454 355.423076923 454 247 c 0,15,16
 454 110.75 454 110.75 380 46 c 0,17,18
 322.857142857 -4 322.857142857 -4 240 -4 c 0,19,20
 185 -4 185 -4 144 19 c 1,0,1
240.5 410 m 0,21,22
 216 410 216 410 193.5 400.5 c 128,-1,23
 171 391 171 391 159 377 c 1,24,-1
 159 97 l 1,25,26
 167 87 167 87 189.5 79 c 128,-1,27
 212 71 212 71 234 71 c 128,-1,28
 256 71 256 71 277 78.5 c 128,-1,29
 298 86 298 86 316.5 105.5 c 0,30,31
 359 150.297297297 359 150.297297297 359 241 c 0,32,33
 359 326.757575758 359 326.757575758 322.5 371 c 0,34,35
 290.325 410 290.325 410 240.5 410 c 0,21,22
EndSplineSet
EndChar

StartChar: c
Encoding: 99 99 206
Width: 432
Flags: HW
LayerCount: 2
Fore
SplineSet
396 42 m 1,0,1
 336.2 -4 336.2 -4 250 -4 c 0,2,3
 160.474576271 -4 160.474576271 -4 102 53.5 c 0,4,5
 36 118.4 36 118.4 36 233 c 0,6,7
 36 364.278688525 36 364.278688525 105.5 431.5 c 0,8,9
 161.847457627 486 161.847457627 486 251 486 c 0,10,11
 315.724137931 486 315.724137931 486 364.5 451.5 c 0,12,13
 402.552287582 424.58496732 402.552287582 424.58496732 416 395 c 1,14,-1
 317 348 l 1,15,-1
 285 406 l 1,16,17
 265 411 265 411 252 411 c 0,18,19
 131 411 131 411 131 235 c 0,20,21
 131 160 131 160 167.5 115.5 c 128,-1,22
 204 71 204 71 264 71 c 0,23,24
 292 71 292 71 323 81.5 c 128,-1,25
 354 92 354 92 374 112 c 1,26,-1
 396 42 l 1,0,1
EndSplineSet
EndChar
